<?xml version="1.0" encoding="utf-8"?>
<!-- Svg Vector Icons : http://www.onlinewebfonts.com/icon -->
<!DOCTYPE svg PUBLIC "-//W3C//DTD SVG 1.1//EN" "http://www.w3.org/Graphics/SVG/1.1/DTD/svg11.dtd">
<svg version="1.1" xmlns="http://www.w3.org/2000/svg" xmlns:xlink="http://www.w3.org/1999/xlink" x="0px" y="0px" viewBox="0 0 1000 1000" enable-background="new 0 0 1000 1000" xml:space="preserve">
<metadata> Svg Vector Icons : http://www.onlinewebfonts.com/icon </metadata>
<g><g><g><path d="M500,10c-127,0-222.4,145.5-268,232.3c-64.7,123.3-108.3,277.1-108.3,382.9C123.8,829.7,289,990,500,990c211,0,376.2-160.3,376.2-364.9c0-105.8-43.5-259.6-108.3-382.9C722.4,155.5,627,10,500,10z M695.7,194.9c5.1-4.8,11.4-4.7,17.2-4.3c8.9,13.9,17.9,28.9,26.9,45.2C714.6,224.2,684.8,205,695.7,194.9z M440.5,44.3c31.8,10.8,72.3,14.2,117.1-0.8c26.7,10.7,57.8,30.1,91.1,64.5c-13.4,1.4-24.9,0.6-31.5-1.4c-25.6-7.8-40.1,2.2-50.1,14.8c-59,70.4-135.7,16.4-145.7,0c-10-16.4-20-14.8-35.6-8.1c-15.9,7-31.6,9.1-46.4,7.5C376.5,79.4,411.1,56.5,440.5,44.3z M319.9,144.3c9.6,2.3,19.1,3.2,28.2,2.4c52.3-4.5,44.5,4.5,71.2,21.1c26.7,16.7,104.6,42.3,145.7,0c41.2-42.3,42.3-34.5,73.4-35.6c7.1-0.3,17.4-1.2,28.9-3.7c8,9.4,16.1,19.7,24.3,30.9c-6.6,1.3-13.6,2.3-21,2.8c-47.8,1.1-49.9,1.6-73.4,30.3c-35.6,43.4-133.2,54.1-183.2,19.6c-26.7-21.1-36-32.1-71.6-29.9c-9.9,0.6-26.6-1-45.5-6.7C304.7,164.3,312.3,154,319.9,144.3z M699.6,445.5c-0.6,21.1-19.5,14.5-28.9,18.9c-9.5,4.4-7.2,18.9-20,30c-12.8,11.1-36.2-11.1-47.3-43.9c2.2,20.6-18.3,64-35,64c-16.7,0-18.4-22.8-26.7-26.7c-8.4-3.9-30.6,11.7-41.2-10.6c-16.7-35.6,73.4-48.4,73.4-48.4s-81.8-14.5-79-39.5c2.8-25,22.8-20,35-26.1c12.2-6.1,6.1-29.5,26.7-28.9c20.6,0.6,34.3,38.5,37.3,80.7c-2.2-62.9,25-99.6,36.2-96.2c11.1,3.3,11.7,12.2,17.8,23.9c6.1,11.7,35.6-1.1,40.6,26.2c8.3,32.3-70.1,50.6-66.8,50.6C625,419.3,700.1,424.3,699.6,445.5z M586.1,255.8c0-8,6.5-14.5,14.5-14.5c8,0,14.5,6.5,14.5,14.5c0,8-6.5,14.5-14.5,14.5C592.6,270.2,586.1,263.8,586.1,255.8z M314.1,342c0,0-66.2-33.9-72.9-66.2c-0.2-1-0.3-1.9-0.4-2.9c3.1-6.3,6.2-12.5,9.5-18.6c11.6-5,30.3-2.3,38.2-5.8c12.8-5.6,9.5-33.4,37.3-32.8c27.8,0.6,32.8,51.7,33.4,102.9c0,0,33.4-82.9,51.7-73.4c18.4,9.5,10.6,30.6,17.2,43.9c6.7,13.4,43.9,31.7,38.4,55.6c-5.6,23.9-90.1,2.8-90.1,2.8s67.3,42.8,65.6,58.4c-2.8,26.7-39.5,26.7-50.1,28.9c-10.6,2.2-19.5,43.9-42.8,44.5c-45.1,2.8-9.5-110.7-9.5-110.7s-42.8,67.3-64,66.2c-21.1-1.1-23.4-32.8-26.2-38.4c-2.8-5.6-18.4-6.7-27.8-21.7C204.5,340.9,314.1,342,314.1,342z M211.3,450.5c10.4,0,18.8,7.7,18.8,17.2c0,9.5-8.4,17.2-18.8,17.2s-18.8-7.7-18.8-17.2C192.5,458.2,200.9,450.5,211.3,450.5z M202.3,795.4c-8.6,0-15.6-8.7-15.6-19.5c0-10.8,7-19.5,15.6-19.5s15.6,8.7,15.6,19.5C217.8,786.6,210.9,795.4,202.3,795.4z M382.5,893.6c0,0,57.9,26.7,55.6,41.7c-2.2,15-32.8,12.2-41.2,10c-5-1.3-10,1.3-17.4,3.3l0,0c-10-3.4-19.8-7.2-29.3-11.4c-1.5-12.8,3.8-30.2,3.8-30.2s-7.9,14.1-18.2,23.5c-13.4-6.6-26.2-14-38.5-22.1c-2.6-1.7-5.2-3.6-7.8-5.4c-8.2-6.4-17.3-14.6-17.3-22.7c0-10.9,64,0,64,0s-76.8-38.4-76.2-57.8c0.6-19.5,21.1-17.5,40.6-17c19.5,0.6,27.3-17.4,40.6-12.4s18.4,41.7,19.5,74.5c0,0,15.6-66.2,35.6-61.2c20,5,21.7,36.7,21.7,36.7s30,19.5,30.6,41.2C449.3,905.9,382.5,893.6,382.5,893.6z M522.6,967.5c0.3-2.6,0.7-4.5,1.2-4.9c1.7-1.7-10.6-29.5,7.2-30.6c17.8-1.1,43.4,10.6,43.4,10.6c-14.5-16.1-31.1-63.4-14.5-62.9c16.7,0.6,31.1,3.3,36.7,2.8c5.6-0.6,19.5-6.7,23.9,7.8c4.4,14.5-22.8,55.6-22.8,55.6s45.6-30,59.5-15.6c0.8,0.8,1.5,1.7,2.1,2.5C618,952.5,571.8,964.7,522.6,967.5z M542.7,815.4c0-11.1,7.7-20,17.2-20c9.5,0,17.2,9,17.2,20c0,11.1-7.7,20-17.2,20C550.4,835.4,542.7,826.4,542.7,815.4z M733.7,885c4.3-11.3,12.8-24.5,27.6-38.7c-27,18.6-58.4,27.8-65.6,16.7c-7.2-11.1,3.9-27.8,6.7-39.5c2.8-11.7-3.9-42.8,15-38.4c18.9,4.4,55.1,34.5,54.5,31.2c-0.6-3.3-24.5-55.6-5-65.1c19.5-9.5,32.3-2.2,42.8-6.1c8.1-3,20.2-10,25.6-6.7C815.1,796.1,779.8,846.3,733.7,885z M845.4,704.1c-100.6,42.1-393.8,138.3-693.8-14.8c-1.5-8.2-2.8-16.4-3.7-24.8c57.7,32.2,174.4,82.9,338.6,82.9c171,0,303-49.3,365.2-77.9C850.1,681.2,848,692.7,845.4,704.1z M854.5,625.1c0,5.5-0.2,11-0.4,16.4c-328.6,168.3-587.5,58.6-708.1,2.4c-0.2-4.5-0.3-9.1-0.4-13.7c1.1,0.4,2.1,0.9,3.2,1.1c20,3.3,28.9-33.4,53.4-26.1c24.5,7.2,27.8,61.7,48.9,65.1c21.1,3.3,54.5-44.5,73.4-37.8c18.9,6.7,53.4,66.8,79,64.5c25.6-2.2,54.5-49.5,72.3-48.1c17.8,1.4,60.1,50.5,84,48.2c23.9-2.3,54-58.9,66.2-59c12.2-0.1,62.3,51.1,82.3,45.5c20-5.6,45.6-71.2,59-74.5c13.4-3.3,60.1,28.9,76.8,23.4c3-1,6.6-4.1,10.3-8.2C854.5,624.5,854.5,624.8,854.5,625.1z M854,605.3c-3.5,3.8-6.9,6.7-9.8,7.6c-16.7,5.6-63.4-26.7-76.8-23.4c-13.4,3.3-38.9,69-59,74.5c-20,5.6-70.1-45.6-82.3-45.5c-12.2,0.1-42.3,56.7-66.2,59c-23.9,2.3-66.2-46.8-84-48.2c-17.8-1.4-46.7,45.9-72.3,48.1c-25.6,2.2-60.1-57.9-79-64.5c-18.9-6.7-52.3,41.2-73.4,37.8c-21.1-3.3-24.5-57.9-48.9-65.1c-24.5-7.2-33.4,29.5-53.4,26.1c-1-0.2-2-0.6-3-1c0.7-20,2.9-41.5,6.4-64c58.3,26.2,179,69.4,340.4,69.4c188.7,0,294.5-38.4,354.9-71.3C850.8,566,853.1,586.3,854,605.3z M842,514.2c-341,142.4-557.9,70.5-685.4,6.9c1.6-8.3,3.3-16.8,5.2-25.3c121.7,51.4,382.3,120.9,675.1-5C838.8,498.7,840.5,506.5,842,514.2z M816.1,414.9c4.5,14.2,8.7,28.4,12.5,42.4c-3.4,2.7-7.6,4.3-12.1,4.3c-11.7,0-21.1-10.5-21.1-23.4C795.2,425.4,804.6,415.1,816.1,414.9z M751.5,337.6c-17.2-7.7-8-75.2-8-75.2s-24.8,51.5-41.2,41.2c-16.4-10.2-6.9-33.9-10.6-40.1c-3.7-6.2-15-6.6-17.9-17.9c-2.9-11.3,23.5-16.7,66.2-9.6c2.9,5.3,5.9,10.8,8.8,16.4c10.6,20.2,20.6,41.3,30,62.8C770.9,325.4,764.4,343.3,751.5,337.6z"/></g></g><g></g><g></g><g></g><g></g><g></g><g></g><g></g><g></g><g></g><g></g><g></g><g></g><g></g><g></g><g></g></g>
</svg>