<?xml version="1.0" encoding="utf-8"?>
<!-- Svg Vector Icons : http://www.onlinewebfonts.com/icon -->
<!DOCTYPE svg PUBLIC "-//W3C//DTD SVG 1.1//EN" "http://www.w3.org/Graphics/SVG/1.1/DTD/svg11.dtd">
<svg version="1.1" xmlns="http://www.w3.org/2000/svg" xmlns:xlink="http://www.w3.org/1999/xlink" x="0px" y="0px" viewBox="0 0 1000 1000" enable-background="new 0 0 1000 1000" xml:space="preserve">
<metadata> Svg Vector Icons : http://www.onlinewebfonts.com/icon </metadata>
<g><g transform="translate(0.000000,511.000000) scale(0.100000,-0.100000)"><path d="M4588.2,4981.6c-583.3-114-1092.4-403-1604.2-917.4c-167-167-395.1-426.9-503.8-578C1303,1874,852.2-456.6,1393.1-2127.1l53-159.1h339.4h339.4l-90.1,92.8c-387.1,395.1-445.5,864.4-129.9,1058c395.1,241.3,753,15.9,843.2-525l31.8-188.3l76.9,148.5c167,334.1,432.2,538.3,657.6,506.4c132.6-15.9,273.1-103.4,365.9-225.4c61-79.6,71.6-119.3,71.6-270.5c0-156.4-7.9-185.6-92.8-304.9c-53-71.6-169.7-180.3-265.1-243.9l-169.7-114h159.1c546.2,0,837.9-357.9,628.4-771.6c-98.1-190.9-201.5-249.2-432.2-246.6c-196.2,0-395.1,76.9-609.8,236l-127.3,92.8l68.9-167c58.3-132.6,71.6-206.8,71.6-389.8c0-267.8-50.4-376.5-228-474.6l-111.4-63.6l63.6-47.7c122-92.8,567.4-310.2,800.7-392.4c829.9-291.7,1803-283.7,2646.2,23.9l228,82.2v230.7c0,145.8,15.9,273.1,45.1,347.4c23.8,63.6,42.4,119.3,42.4,122c0,5.3-76.9-42.4-169.7-106.1c-201.5-135.2-395.1-185.6-546.2-145.8c-281.1,76.9-381.8,453.4-172.3,652.3c119.3,111.3,283.7,153.8,543.5,137.9L6537-3246l-122,129.9c-148.5,159.1-220.1,315.5-222.7,479.9c0,164.4,50.4,257.2,180.3,331.4c151.1,84.9,320.8,79.5,432.2-13.3c106.1-90.1,209.5-307.6,209.5-437.5c0-132.6,29.2-127.3,98.1,13.3c122,254.6,344.7,411,527.6,376.5c116.7-21.2,289-175,328.8-291.7c58.3-177.6-66.3-405.7-289-538.2l-122-71.6l159.1-15.9c87.5-7.9,185.6-23.9,217.4-34.5c53-15.9,76.9,7.9,209.5,206.8c509.1,784.8,753,1842.8,676.1,2932.5c-26.5,360.6-103.4,912.1-151.1,1068.5c-10.6,31.8-42.4,45.1-114,45.1c-132.6,0-357.9,137.9-493.2,304.9l-106.1,132.6V1121c0-209.5-10.6-273.1-61-376.5c-87.5-175-190.9-241.3-389.8-254.5c-206.8-10.6-371.2,66.3-458.7,220.1c-53,92.8-58.3,135.2-50.4,320.8c7.9,188.2,21.2,241.3,114,424.2l108.7,209.4l-201.5-100.7c-326.1-161.7-562.1-164.4-737.1-10.6c-119.3,106.1-167,217.4-167,395.1c0,379.2,403,578,946.6,464l161.7-34.5l-143.2,159.1c-273.1,302.3-368.6,633.7-243.9,851.1c74.2,127.3,294.3,251.9,450.8,251.9c55.7,0,100.7,10.6,100.7,23.9c0,45.1-620.5,654.9-808.7,795.4c-246.6,180.3-718.6,413.6-981,482.6C5325.3,5013.4,4845.4,5031.9,4588.2,4981.6z M4097.6,4172.9c37.1-26.5,87.5-87.5,114-137.9c76.9-145.8,42.4-320.8-135.2-665.5c-5.3-10.6,34.5-2.6,87.5,21.2c368.6,153.8,692,61,745.1-214.8c55.7-297-220.1-493.2-567.4-403l-137.9,37.1l66.3-82.2c124.6-151.1,206.8-355.3,190.9-472c-23.9-185.6-249.2-347.3-421.6-304.9c-159.1,39.8-294.3,225.4-328.8,445.5l-18.6,111.3l-66.3-129.9c-87.5-172.3-129.9-222.7-259.9-278.4c-222.7-100.8-487.9,74.2-487.9,323.5c0,129.9,127.3,318.2,291.7,429.5l135.2,90.2l-151.1,18.6c-387.1,45.1-564.8,254.5-450.8,530.3c55.7,135.2,159.1,201.5,312.9,201.5c153.8,0,273.1-45.1,448.1-172.3l127.3-95.4l-26.5,87.5c-13.3,47.7-26.5,167-29.2,265.2c0,135.2,13.3,198.9,58.3,283.7C3694.6,4239.1,3925.3,4292.2,4097.6,4172.9z M4808.2,1174c100.8-63.6,204.2-262.5,230.7-456l18.6-127.3l68.9,137.9c177.7,355.3,495.8,485.2,721.2,294.3c265.1-220.1,198.9-514.4-172.3-761l-106.1-69h135.2c188.3,0,365.9-66.3,461.4-175c63.6-74.2,79.6-116.7,79.6-217.4c0-440.1-432.2-554.2-867-228c-45.1,34.5-90.2,63.6-98.1,63.6c-7.9,0,13.3-55.7,45.1-124.6c39.8-87.5,55.7-180.3,58.3-299.6c0-286.4-124.6-424.2-384.5-424.2c-180.3,0-283.7,58.3-347.3,193.6c-61,135.2-66.3,384.5-10.6,564.8c53,177.6,50.4,185.6-45.1,100.8c-143.2-119.3-336.7-196.2-498.5-196.2c-254.5,0-397.7,143.2-397.7,397.7c0,167,63.6,259.8,228,336.7c124.6,55.7,172.3,63.6,379.2,55.7l233.3-7.9l-100.8,116.7c-161.7,182.9-243.9,376.5-230.7,532.9c13.3,140.5,61,214.8,193.6,294.3C4508.6,1243,4696.9,1243,4808.2,1174z"/><path d="M3758.2,3637.3c-87.5-34.5-108.7-183-45.1-347.4c26.5-66.3-21.2-58.3-135.2,18.6c-151.1,100.8-222.7,111.4-281.1,39.8c-114-140.5-26.5-291.7,169.7-291.7c129.9,0,129.9-50.4,2.6-135.2c-55.7-34.5-116.7-98.1-140.5-137.9c-39.8-71.6-37.1-76.9,47.7-153.8c47.7-42.4,95.5-76.9,108.7-76.9c55.7,0,156.4,111.4,185.6,209.5c45.1,153.8,98.1,140.5,114-26.5c15.9-164.4,90.2-251.9,188.2-225.4c172.3,42.4,196.2,177.7,61,328.8c-114,124.6-95.5,175,45.1,132.6c183-55.7,315.5,84.9,217.4,233.4c-47.7,74.2-185.6,87.5-302.3,23.8c-100.8-50.4-116.7-26.5-55.7,95.5c61,116.6,68.9,243.9,21.2,281C3906.7,3647.9,3821.9,3661.1,3758.2,3637.3z"/><path d="M4659.8,585.4c-122-61-108.7-204.2,39.8-368.5c53-55.7,82.2-103.4,71.6-106.1c-13.3,0-87.5,0-164.4,2.6c-188.3,5.3-270.5-47.7-270.5-172.3c0-90.1,74.2-198.9,132.6-198.9c55.7,0,225.4,82.2,283.7,137.9c50.4,45.1,61,47.7,74.2,15.9c7.9-21.2,2.7-71.6-13.3-111.3c-92.8-249.2,29.2-419,246.6-336.7c84.9,31.8,103.4,111.4,58.3,262.5c-21.2,69-29.2,132.6-15.9,145.8c13.3,13.3,79.5-15.9,151.1-58.3c69-45.1,159.1-82.2,198.9-82.2c92.8,0,156.5,84.9,156.5,206.8c0,76.9-13.3,92.8-95.5,127.3c-53,21.2-145.8,37.1-204.1,31.8c-84.9-5.3-111.4,2.7-119.3,34.5c-5.3,29.2,15.9,50.4,58.3,61c34.5,8,100.8,47.7,145.8,84.9c100.8,84.8,108.7,188.2,21.2,270.4c-124.6,116.7-262.5,47.7-342.1-169.7c-47.7-135.2-116.7-119.3-135.2,29.2C4916.9,588.1,4813.5,659.6,4659.8,585.4z"/><path d="M7817.7,2836.5l5.3-206.8l58.3,74.2c74.2,92.8,74.2,103.4-2.7,233.3l-63.6,106.1L7817.7,2836.5z"/><path d="M7486.2,2263.8c-71.6-63.6-87.5-95.5-87.5-188.3c0-92.8,15.9-124.6,87.5-188.2c185.6-167,453.4-45.1,456.1,206.8C7942.3,2322.1,7666.5,2425.5,7486.2,2263.8z"/><path d="M2535.9-2288.8c-82.2-58.3-137.9-198.9-119.3-299.6c8-42.4,50.4-111.4,95.5-151.2c172.3-169.7,445.4-42.4,445.4,204.2C2957.5-2318,2705.6-2172.2,2535.9-2288.8z"/><path d="M6637.8-2896c-106.1-58.3-116.7-129.9-34.5-267.8c39.8-66.3,87.5-127.3,108.7-135.2c21.2-7.9,37.1-26.5,37.1-45.1c0-18.6-63.7-29.2-188.3-29.2c-214.8,0-278.4-45.1-251.9-182.9c37.1-188.3,164.4-214.8,368.6-79.5c116.7,76.9,161.8,66.3,124.6-31.8c-15.9-37.1-26.5-124.6-26.5-196.2c0-140.5,39.8-185.6,164.4-185.6c161.7,0,228,159.1,140.5,328.8c-34.5,63.6-34.5,82.2-7.9,100.8c47.7,29.2,63.6,26.5,103.4-21.2c87.5-106.1,304.9-153.8,365.9-79.6c18.5,21.2,37.1,76.9,45,127.3c23.9,135.2-55.7,193.6-257.2,188.2c-129.9-2.6-156.5,5.3-156.5,42.5c0,26.5,37.1,58.3,92.8,79.5C7369.6-3246,7465-3140,7465-3063c0,68.9-116.7,180.3-193.6,180.3c-76.9,0-161.8-84.9-217.4-220.1c-45.1-111.4-119.3-132.6-119.3-34.5s-53,228-106.1,254.5C6762.4-2848.3,6722.6-2850.9,6637.8-2896z"/><path d="M2117-3092.2l-190.9-129.9l122-164.4l122-164.4l47.7,220.1c23.9,122,58.3,254.5,74.2,297c15.9,39.8,23.9,71.6,21.2,71.6C2310.5-2964.9,2223-3023.3,2117-3092.2z"/><path d="M7229-3802.8c0-10.6,21.2-66.3,45.1-122c45.1-98.1,47.7-100.8,90.2-53c42.4,47.7,39.8,53-45.1,122C7268.8-3816.1,7226.4-3792.2,7229-3802.8z"/></g></g>
</svg>