
<svg xmlns="http://www.w3.org/2000/svg" version="1.0" width="500px" height="500px" viewBox="0 0 500 500" preserveAspectRatio="xMidYMid meet">

<g transform="translate(-120.000000,620.000000) scale(0.14000,-0.14000)" fill="#fff" stroke="red">

<path d="M2525 3395 c-1097 -424 -1595 -621 -1607 -636 -25 -30 -23 -83 5 -112 15 -17 135 -66 407 -168 212 -78 388 -147 391 -152 3 -5 72 -223 153 -485 160 -518 162 -522 232 -522 35 0 68 25 432 322 73 60 88 68 125 68 25 0 56 -9 77 -21 19 -12 204 -144 411 -295 206 -150 387 -276 401 -279 35 -9 82 17 96 52 15 37 572 2721 572 2755 0 35 -38 77 -75 83 -23 3 -413 -144 -1620 -610z m983 -5 c1 -9 -258 -256 -636 -608 -475 -441 -645 -605 -661 -636 -14 -30 -28 -99 -46 -226 -15 -113 -30 -187 -37 -192 -24 -14 -48 -8 -58 15 -20 48 -170 595 -170 621 0 33 20 74 50 101 44 41 1516 943 1535 942 11 -1 21 -9 23 -17z"/>
</g>
</svg>