<svg width="17" height="17" viewBox="0 0 17 17" fill="none" xmlns="http://www.w3.org/2000/svg">
<path d="M8.19575 14.766C11.7864 14.766 14.6972 11.8552 14.6972 8.26459C14.6972 4.67395 11.7864 1.76317 8.19575 1.76317C4.60512 1.76317 1.69434 4.67395 1.69434 8.26459C1.69434 11.8552 4.60512 14.766 8.19575 14.766Z" stroke="#f8f79a" stroke-width="1.00189" stroke-miterlimit="10"/>
<path d="M8.19615 11.2657C9.8536 11.2657 11.1972 9.92206 11.1972 8.26461C11.1972 6.60716 9.8536 5.26353 8.19615 5.26353C6.5387 5.26353 5.19507 6.60716 5.19507 8.26461C5.19507 9.92206 6.5387 11.2657 8.19615 11.2657Z" stroke="#f8f79a" stroke-width="1.00189" stroke-miterlimit="10"/>
<path d="M8.19578 9.26623C8.74859 9.26623 9.19673 8.81809 9.19673 8.26528C9.19673 7.71247 8.74859 7.26433 8.19578 7.26433C7.64297 7.26433 7.19482 7.71247 7.19482 8.26528C7.19482 8.81809 7.64297 9.26623 8.19578 9.26623Z" fill="#f8f79a"/>
</svg>
