<svg width="17" height="17" viewBox="0 0 17 17" fill="none" xmlns="http://www.w3.org/2000/svg">
<g clip-path="url(#clip0_5_1195)">
<path d="M8.94884 8.34999C8.91445 8.28737 8.87153 8.22983 8.82131 8.17902L8.24806 7.61358C8.18918 7.55364 8.11964 7.5052 8.04301 7.47074C7.92242 7.41695 7.78838 7.40091 7.65851 7.42474C7.52863 7.44856 7.40901 7.51112 7.31536 7.6042C7.11656 7.79987 6.75273 8.15682 6.09634 8.8054C4.84107 10.0472 2.51025 12.1286 1.45627 13.0163C1.40316 13.0608 1.35987 13.1157 1.32912 13.1778C1.29837 13.2398 1.28084 13.3076 1.27763 13.3767C1.27443 13.4459 1.28563 13.515 1.31051 13.5796C1.3354 13.6442 1.37343 13.703 1.4222 13.7521L2.64121 14.9846C2.6903 15.0338 2.74905 15.0724 2.81375 15.0978C2.87846 15.1233 2.94774 15.135 3.01722 15.1324C3.0867 15.1298 3.15489 15.1129 3.21751 15.0826C3.28012 15.0524 3.33581 15.0095 3.38106 14.9567C4.29501 13.8824 6.39109 11.5498 7.63199 10.3235C8.26931 9.69653 8.62658 9.33646 8.82881 9.13766C8.9291 9.03567 8.99469 8.90465 9.01623 8.76324C9.03778 8.62183 9.0142 8.47723 8.94884 8.34999V8.34999Z" stroke="currentColor" stroke-width="1.00189" stroke-linecap="round" stroke-linejoin="round"/>
<path d="M15.2315 6.91236L14.1591 5.84963C14.1428 5.83327 14.1232 5.82043 14.1017 5.81188C14.0802 5.80334 14.0572 5.79927 14.0341 5.79993C14.011 5.79954 13.9881 5.80373 13.9666 5.81226C13.9451 5.82079 13.9256 5.83349 13.9091 5.84963C13.8705 5.88842 13.8235 5.91781 13.7717 5.93554C13.72 5.95326 13.6648 5.95884 13.6106 5.95184C13.4705 5.93652 13.3214 5.89307 13.2252 5.79993C13.0064 5.58551 13.2592 5.16354 13.0667 4.89348C12.8468 4.59795 12.6057 4.31882 12.3453 4.0583C12.1246 3.8395 11.2572 3.01213 9.7963 2.41638C9.33009 2.22538 8.83105 2.12727 8.32723 2.12756C7.50361 2.12756 6.87035 2.49514 6.63936 2.70613C6.45557 2.87241 6.26428 3.13653 6.26428 3.13653C6.37474 3.09626 6.48759 3.06286 6.60217 3.03651C6.84111 2.98531 7.0863 2.96961 7.32983 2.98994C7.81618 3.03026 8.40225 3.25844 8.71669 3.50536C9.22336 3.9117 9.44122 4.45526 9.47529 5.15666C9.5003 5.67834 8.99925 6.33692 8.52384 6.87391C8.48201 6.92113 8.45997 6.98264 8.4623 7.04567C8.46463 7.1087 8.49114 7.16842 8.53634 7.21242L9.20023 7.876C9.24648 7.92168 9.3087 7.94755 9.3737 7.94814C9.4387 7.94872 9.50137 7.92397 9.54843 7.87913C9.98384 7.45685 10.5202 6.98925 10.8243 6.80202C11.1285 6.61479 11.3738 6.56197 11.4917 6.54915C11.7232 6.52673 11.956 6.57722 12.1574 6.69356C12.1929 6.71363 12.2253 6.73868 12.2537 6.76795C12.4556 6.97299 12.4434 7.30807 12.2381 7.50999L12.1756 7.56906C12.1593 7.58506 12.1464 7.60413 12.1376 7.62517C12.1288 7.6462 12.1242 7.66878 12.1242 7.69159C12.1242 7.7144 12.1288 7.73697 12.1376 7.75801C12.1464 7.77905 12.1593 7.79812 12.1756 7.81412L13.248 8.87685C13.2644 8.89306 13.284 8.90578 13.3055 8.91427C13.327 8.92275 13.3499 8.92682 13.373 8.92623C13.4196 8.9269 13.4645 8.90915 13.498 8.87685L15.2315 7.16241C15.2635 7.12863 15.2813 7.08389 15.2813 7.03738C15.2813 6.99088 15.2635 6.94614 15.2315 6.91236V6.91236Z" stroke="currentColor" stroke-width="1.00189" stroke-linecap="round" stroke-linejoin="round"/>
</g>
<defs>
<clipPath id="clip0_5_1195">
<rect width="16.0035" height="16.0035" fill="white" transform="translate(0.276978 0.629456)"/>
</clipPath>
</defs>
</svg>
