<svg width="16" height="16" viewBox="0 0 16 16" fill="none" xmlns="http://www.w3.org/2000/svg">
<mask id="mask0_661_23" style="mask-type:luminance" maskUnits="userSpaceOnUse" x="0" y="0" width="17" height="17">
<path d="M4.00543e-05 0H16.0035V16.0035H4.00543e-05V0Z" fill="white"/>
</mask>
<g mask="url(#mask0_661_23)">
<path d="M2.35355 5.75505C2.51265 5.91313 2.72785 6.00185 2.95205 6.00185C3.17635 6.00185 3.39155 5.91313 3.55065 5.75505L4.25335 5.05208C4.41145 4.89307 4.50025 4.67793 4.50025 4.45367C4.50025 4.22941 4.41145 4.01427 4.25335 3.85526L2.66265 2.2646C2.65955 2.26154 2.65735 2.25778 2.65605 2.25365C2.65475 2.24952 2.65455 2.24514 2.65535 2.24089C2.65615 2.23663 2.65795 2.23264 2.66065 2.22926C2.66335 2.22588 2.66685 2.2232 2.67075 2.22147C3.69725 1.78199 5.02845 2.00548 5.87365 2.84473C6.68259 3.64771 6.72854 4.8536 6.43223 5.90789C6.39012 6.05765 6.39022 6.21614 6.43253 6.36584C6.47484 6.51554 6.5577 6.65064 6.67196 6.7562L12.0794 11.781C12.2085 11.8966 12.3126 12.0373 12.3854 12.1945C12.4583 12.3517 12.4983 12.522 12.5031 12.6952C12.5078 12.8684 12.4772 13.0407 12.4131 13.2017C12.349 13.3626 12.2527 13.5088 12.1302 13.6313C12.0076 13.7537 11.8614 13.8499 11.7004 13.914C11.5394 13.978 11.3671 14.0085 11.1939 14.0037C11.0207 13.9989 10.8504 13.9587 10.6932 13.8858C10.5361 13.8129 10.3954 13.7087 10.2799 13.5796L5.21165 8.16276C5.10725 8.05038 4.97415 7.96859 4.82675 7.92618C4.67925 7.88378 4.52305 7.88236 4.37495 7.92208C3.32905 8.20152 2.14035 8.14901 1.34085 7.36133C0.481551 6.5149 0.296251 5.01895 0.712551 4.16283C0.714451 4.15907 0.717151 4.15581 0.720551 4.15333C0.723951 4.15084 0.727851 4.1492 0.732051 4.14853C0.736151 4.14785 0.740451 4.14818 0.744451 4.14947C0.748451 4.15076 0.752051 4.15298 0.755051 4.15595L2.35355 5.75505Z" stroke="currentColor" stroke-width="1.00189" stroke-miterlimit="10" stroke-linecap="round"/>
<path d="M9.00117 8.87891C9.54794 8.34715 9.7985 8.09973 9.97085 7.93145C10.0571 7.84575 10.1137 7.73475 10.1325 7.61462C10.1512 7.49449 10.1311 7.37151 10.075 7.26362C10.0455 7.21057 10.0086 7.16192 9.96553 7.11911L9.47506 6.64084C9.42431 6.59 9.36461 6.54896 9.29896 6.51979C9.19532 6.47391 9.0803 6.46018 8.96878 6.48037C8.85725 6.50055 8.75435 6.55373 8.67336 6.63302C8.50289 6.79849 8.19071 7.10222 7.6283 7.65024" stroke="currentColor" stroke-width="1.00189" stroke-linecap="round" stroke-linejoin="round"/>
<path d="M6.09316 9.10547C4.81306 10.2965 3.26026 11.7086 2.65446 12.2132C2.60916 12.2505 2.57216 12.2969 2.54586 12.3494C2.51956 12.4019 2.50456 12.4594 2.50176 12.518C2.49896 12.5767 2.50856 12.6353 2.52976 12.69C2.55096 12.7448 2.58346 12.7944 2.62506 12.8359L3.66856 13.8791C3.71096 13.9206 3.76146 13.953 3.81686 13.9744C3.87226 13.9958 3.93146 14.0056 3.99076 14.0034C4.05016 14.0012 4.10836 13.9869 4.16206 13.9614C4.21566 13.936 4.26356 13.8999 4.30286 13.8553C4.81956 13.2557 6.21258 11.7574 7.40613 10.5104" stroke="currentColor" stroke-width="1.00189" stroke-linecap="round" stroke-linejoin="round"/>
<path d="M15.4619 6.04849L14.5426 5.15017C14.5286 5.13636 14.5119 5.12551 14.4936 5.11827C14.4753 5.11102 14.4557 5.10752 14.436 5.10797C14.3963 5.10754 14.3581 5.12269 14.3294 5.15017C14.2961 5.1831 14.2558 5.20801 14.2114 5.22301C14.1671 5.23801 14.1199 5.24271 14.0734 5.23675C13.9537 5.22362 13.8259 5.18674 13.7431 5.10797C13.5555 4.92668 13.7724 4.56941 13.6074 4.34093C13.4187 4.0908 13.2121 3.85471 12.9891 3.63452C12.8016 3.45073 12.0564 2.74933 10.8043 2.24516C10.4039 2.0833 9.97593 2.00031 9.54402 2.00073C8.83792 2.00073 8.29374 2.3133 8.09808 2.49052C7.98063 2.60227 7.87312 2.724 7.77676 2.85435C7.87086 2.81967 7.967 2.79075 8.06463 2.76777C8.26997 2.72421 8.48058 2.71095 8.68977 2.72839C9.10642 2.76246 9.60903 2.95531 9.87753 3.16598C10.312 3.50981 10.4986 3.96991 10.528 4.56348C10.5492 5.00482 10.443 5.25425 9.39961 6.29791C9.36395 6.33772 9.34513 6.38981 9.34711 6.44322C9.34909 6.49662 9.37172 6.54717 9.41024 6.58423L9.97974 7.14685C10.0194 7.18577 10.0727 7.20781 10.1283 7.20834C10.1839 7.20886 10.2375 7.18783 10.2779 7.14966C10.9637 6.46389 11.4235 6.11538 11.6845 5.9569C11.9455 5.79843 12.1555 5.75373 12.2565 5.74279C12.4548 5.72315 12.6543 5.76541 12.8275 5.86376C12.858 5.88046 12.8858 5.90152 12.9101 5.92627C12.9506 5.96822 12.9825 6.01779 13.0038 6.07212C13.0252 6.12645 13.0355 6.18447 13.0343 6.24283C13.0331 6.30118 13.0203 6.35871 12.9967 6.41211C12.9732 6.4655 12.9392 6.51369 12.8969 6.55391L12.8435 6.60392C12.8296 6.61741 12.8186 6.63354 12.8111 6.65136C12.8035 6.66919 12.7996 6.68834 12.7996 6.70769C12.7996 6.72704 12.8035 6.7462 12.8111 6.76402C12.8186 6.78184 12.8296 6.79798 12.8435 6.81146L13.7618 7.70822C13.7757 7.72231 13.7923 7.73344 13.8106 7.74096C13.829 7.74848 13.8486 7.75223 13.8684 7.75198C13.9081 7.75238 13.9463 7.73723 13.975 7.70978L15.4619 6.25853C15.4888 6.23019 15.5038 6.19259 15.5038 6.15351C15.5038 6.11442 15.4888 6.07683 15.4619 6.04849Z" stroke="currentColor" stroke-width="1.00189" stroke-linecap="round" stroke-linejoin="round"/>
</g>
</svg>
