<?xml version="1.0" standalone="no"?>
<!DOCTYPE svg PUBLIC "-//W3C//DTD SVG 20010904//EN"
 "http://www.w3.org/TR/2001/REC-SVG-20010904/DTD/svg10.dtd">
<svg version="1.0" xmlns="http://www.w3.org/2000/svg"
 width="2060.000000pt" height="2048.000000pt" viewBox="0 0 2060.000000 2048.000000"
 preserveAspectRatio="xMidYMid meet">

<g transform="translate(0.000000,2048.000000) scale(0.100000,-0.100000)"
fill="tomato" stroke="none">
<path d="M12238 17493 l-1788 -1786 0 -2551 0 -2551 1790 1790 1790 1790 -2
2547 -3 2547 -1787 -1786z"/>
<path d="M6596 19173 c-20 -264 -28 -937 -33 -2853 l-5 -2125 1783 -1780 1784
-1780 6 185 c4 102 7 1243 8 2536 l1 2351 -847 864 c-1728 1763 -2652 2689
-2682 2689 -5 0 -12 -39 -15 -87z"/>
<path d="M2130 13969 c-509 -6 -706 -16 -766 -39 -47 -18 -29 -46 145 -228
227 -237 1267 -1274 2405 -2396 l928 -916 2539 0 c1397 0 2539 3 2539 8 0 4
-804 811 -1788 1795 l-1787 1787 -1835 -2 c-1009 -1 -2080 -5 -2380 -9z"/>
<path d="M14239 13968 c-8 -7 -815 -815 -1794 -1795 l-1779 -1783 2543 0 2543
0 1793 1788 1794 1787 -327 6 c-180 3 -1324 7 -2543 8 -1759 1 -2218 -2 -2230
-11z"/>
<path d="M8025 10110 c-911 -10 -2484 -31 -2881 -39 l-320 -6 -1781 -1745
-1781 -1745 2576 -3 2577 -3 1265 1268 c1225 1229 1809 1822 2088 2123 l134
145 -84 7 c-103 8 -897 7 -1793 -2z"/>
<path d="M10745 10112 l-50 -7 95 -105 c233 -256 697 -728 2000 -2033 l1395
-1397 2574 2 2574 3 -1782 1745 -1781 1745 -348 7 c-1318 27 -4570 54 -4677
40z"/>
<path d="M9763 9492 c-892 -880 -2228 -2196 -2695 -2656 l-508 -498 1 -1357
c1 -746 5 -1903 8 -2571 l6 -1214 1782 1814 1783 1815 0 2518 c0 1384 -1 2517
-2 2517 -2 -1 -170 -166 -375 -368z"/>
<path d="M10466 9678 c-3 -84 -9 -1210 -12 -2503 l-5 -2350 1082 -1105 c1125
-1148 2131 -2159 2328 -2340 l115 -104 8 29 c24 92 31 590 35 2751 l5 2270
-274 270 c-151 148 -946 935 -1767 1749 -820 814 -1495 1481 -1500 1483 -5 2
-11 -66 -15 -150z"/>
</g>
</svg>
