<?xml version="1.0" standalone="no"?>
<!DOCTYPE svg PUBLIC "-//W3C//DTD SVG 20010904//EN"
 "http://www.w3.org/TR/2001/REC-SVG-20010904/DTD/svg10.dtd">
<svg version="1.0" xmlns="http://www.w3.org/2000/svg"
 width="700.000000pt" height="700.000000pt" viewBox="0 0 700.000000 700.000000"
 preserveAspectRatio="xMidYMid meet">
<metadata>
Created by potrace 1.14, written by Peter Selinger 2001-2017
</metadata>
<g transform="translate(0.000000,700.000000) scale(0.100000,-0.100000)"
fill="#000000" stroke="none">
<path d="M3412 6981 c-106 -36 -179 -124 -191 -230 -4 -33 -6 -211 -5 -396 l3
-336 33 -42 c86 -109 124 -129 248 -130 97 -1 100 0 149 33 27 19 68 58 91 87
l41 53 2 353 c0 193 -2 371 -6 395 -9 61 -32 105 -76 145 -85 78 -188 102
-289 68z"/>
<path d="M1175 6049 c-167 -31 -265 -201 -213 -369 20 -66 58 -110 288 -341
243 -244 288 -274 399 -268 173 10 287 134 280 303 -4 94 -24 127 -179 289
-146 154 -298 297 -365 343 -56 40 -139 57 -210 43z"/>
<path d="M5714 6050 c-82 -18 -148 -70 -372 -295 -190 -191 -247 -259 -262
-313 -26 -95 3 -213 71 -286 84 -92 252 -112 356 -43 65 43 347 320 443 435
84 101 105 148 103 238 -4 164 -176 298 -339 264z"/>
<path d="M3418 5395 c-2 -1 -34 -5 -73 -9 -63 -5 -113 -12 -225 -31 -64 -11
-182 -45 -279 -82 -373 -139 -694 -395 -919 -733 -101 -152 -207 -386 -247
-544 -9 -38 -19 -79 -22 -90 -23 -94 -40 -261 -40 -401 -1 -263 38 -470 129
-700 178 -447 522 -814 953 -1015 133 -62 310 -123 392 -136 21 -3 47 -8 58
-11 57 -17 218 -31 355 -31 184 0 346 22 530 72 168 46 356 136 530 252 121
81 163 116 285 239 201 202 353 445 443 710 78 228 102 386 97 650 -4 203 -4
202 -35 356 -83 408 -326 807 -655 1077 -215 176 -563 342 -790 378 -22 3 -42
7 -45 9 -3 2 -26 6 -50 9 -25 4 -63 9 -85 13 -22 3 -53 7 -70 9 -44 5 -233 12
-237 9z m344 -614 c244 -55 433 -150 608 -308 226 -203 360 -446 418 -755 21
-107 27 -333 11 -393 -4 -16 -10 -43 -12 -60 -6 -43 -46 -182 -69 -240 -116
-296 -350 -552 -633 -693 -111 -55 -211 -89 -345 -117 -97 -20 -138 -23 -260
-21 -80 2 -158 7 -175 10 -123 27 -200 48 -258 70 -429 161 -757 550 -832 986
-3 19 -10 52 -15 73 -9 41 -6 316 4 360 3 15 8 38 10 51 7 41 48 179 67 227
46 118 127 261 192 339 216 259 488 422 802 480 136 25 351 21 487 -9z"/>
<path d="M297 3784 c-1 -1 -24 -4 -52 -7 -68 -6 -93 -18 -148 -68 -117 -108
-124 -282 -16 -403 80 -88 93 -90 531 -89 l367 1 43 33 c110 87 130 123 131
242 1 124 -30 183 -136 261 l-37 27 -340 3 c-187 1 -341 1 -343 0z"/>
<path d="M6084 3779 c-98 -9 -168 -58 -216 -149 -32 -62 -33 -195 -1 -255 29
-53 69 -97 119 -129 l42 -27 338 -2 c441 -2 471 3 547 81 81 84 107 224 58
320 -46 91 -113 144 -196 158 -60 9 -605 12 -691 3z"/>
<path d="M1570 1923 c-67 -20 -120 -63 -311 -253 -233 -232 -263 -267 -291
-330 -27 -61 -27 -159 0 -222 43 -98 149 -169 252 -170 114 -1 166 31 372 230
193 186 306 317 322 372 21 68 15 166 -14 224 -30 59 -96 120 -153 139 -40 14
-145 19 -177 10z"/>
<path d="M5265 1917 c-126 -50 -188 -136 -192 -266 -3 -117 15 -147 212 -350
155 -160 319 -306 371 -330 80 -38 187 -29 267 21 82 53 131 142 130 242 -1
79 -18 118 -89 202 -105 124 -349 371 -428 433 -69 54 -197 77 -271 48z"/>
<path d="M3385 1142 c-43 -20 -109 -80 -137 -124 -29 -45 -35 -125 -33 -445 3
-389 7 -417 84 -486 68 -62 116 -81 201 -81 64 0 83 4 128 29 29 16 70 48 92
72 60 67 64 101 63 515 l-1 357 -28 38 c-41 56 -93 102 -134 120 -19 8 -71 17
-115 19 -64 4 -88 1 -120 -14z"/>
</g>
</svg>
