<?xml version="1.0" standalone="no"?>
<!DOCTYPE svg PUBLIC "-//W3C//DTD SVG 20010904//EN"
 "http://www.w3.org/TR/2001/REC-SVG-20010904/DTD/svg10.dtd">
<svg version="1.0" xmlns="http://www.w3.org/2000/svg"
 width="200.000000pt" height="200.000000pt" viewBox="0 0 200.000000 200.000000"
 preserveAspectRatio="xMidYMid meet">
<metadata>
Created by potrace 1.11, written by Peter Selinger 2001-2013
</metadata>
<g transform="translate(0.000000,200.000000) scale(0.100000,-0.100000)"
fill="#000000" stroke="none">
<path d="M335 1711 c-76 -46 -93 -150 -34 -211 8 -8 28 -32 46 -52 30 -36 33
-37 43 -18 13 24 74 37 103 21 31 -16 167 -61 167 -55 0 3 9 0 20 -6 28 -15
25 -43 -6 -66 -38 -28 -112 -130 -143 -198 -97 -210 -65 -457 82 -637 108
-133 257 -207 437 -216 113 -6 189 10 296 62 254 124 356 399 239 640 -96 199
-325 302 -540 244 -58 -16 -112 -45 -177 -95 -31 -24 -65 -44 -75 -44 -42 0
-57 50 -25 86 9 10 58 64 108 119 50 55 96 110 103 122 31 60 -6 145 -72 165
-29 9 -50 8 -95 -2 -111 -27 -194 -6 -264 65 -21 21 -38 42 -38 46 0 4 -15 17
-34 28 -42 26 -101 27 -141 2z"/>
</g>
</svg>
