<?xml version="1.0" standalone="no"?>
<!DOCTYPE svg PUBLIC "-//W3C//DTD SVG 20010904//EN"
 "http://www.w3.org/TR/2001/REC-SVG-20010904/DTD/svg10.dtd">
<svg version="1.0" xmlns="http://www.w3.org/2000/svg"
 width="50" height="50" viewBox="0 0 900.000000 596.000000"
 preserveAspectRatio="xMidYMid meet">

<g transform="translate(0.000000,0.00000) scale(0.100000,-0.100000)"
fill="currentColor" stroke="none">
<path d="M4416 5547 c-43 -160 -82 -301 -86 -313 -7 -18 -19 -22 -85 -27 -119
-10 -312 -53 -458 -101 -323 -106 -603 -277 -855 -520 -354 -342 -576 -763
-658 -1244 -13 -79 -24 -157 -24 -172 0 -34 36 -21 -367 -131 -149 -41 -269
-76 -266 -79 2 -3 145 -44 316 -91 l312 -86 7 -44 c4 -24 14 -93 24 -154 93
-610 464 -1176 998 -1523 276 -179 674 -321 977 -348 l75 -6 84 -307 c45 -168
86 -309 89 -313 3 -4 44 134 91 306 l85 313 100 13 c661 79 1238 435 1611 992
189 282 334 682 361 993 5 65 9 78 27 85 12 5 149 44 306 86 157 42 288 80
293 84 4 3 -132 44 -303 90 l-310 85 -4 30 c-3 16 -12 80 -21 140 -39 277
-139 556 -293 820 -164 281 -456 578 -744 757 -271 168 -640 295 -942 325
l-80 8 -85 312 c-47 172 -88 313 -91 313 -3 0 -40 -132 -84 -293z m34 -467 l0
-419 -32 -5 c-60 -8 -203 -23 -206 -20 -4 2 231 864 236 864 1 0 2 -189 2
-420z m-143 67 c-3 -9 -30 -16 -76 -21 -108 -10 -297 -52 -423 -95 -187 -63
-302 -118 -479 -227 -47 -30 -89 -54 -93 -54 -3 0 -6 6 -6 14 0 32 310 201
495 271 132 49 334 100 470 118 61 7 112 12 114 11 2 -2 1 -9 -2 -17z m678
-28 c333 -70 676 -239 942 -463 110 -93 147 -131 138 -145 -4 -7 -39 18 -90
63 -338 301 -724 482 -1160 545 -90 13 -121 21 -123 33 -3 13 8 14 95 2 54 -8
143 -23 198 -35z m-701 -56 c-4 -16 -33 -120 -64 -232 l-56 -204 -115 -31
c-202 -56 -409 -158 -564 -278 l-70 -54 -124 74 c-67 40 -124 72 -126 70 -1
-2 28 -59 66 -128 l68 -125 -53 -55 c-174 -184 -321 -454 -386 -710 -12 -47
-23 -86 -24 -87 -3 -3 -441 -123 -450 -123 -24 0 30 276 88 455 107 323 278
600 520 840 325 324 731 530 1178 599 128 19 119 20 112 -11z m646 -9 c308
-61 609 -196 870 -392 95 -71 284 -254 362 -351 191 -237 328 -508 403 -796
30 -117 70 -333 63 -340 -2 -2 -106 25 -232 59 l-228 63 -24 92 c-57 221 -155
418 -309 622 l-34 45 70 118 c39 64 69 119 67 121 -2 2 -57 -25 -122 -61
l-119 -64 -55 48 c-228 197 -455 320 -714 385 l-91 23 -57 210 c-32 115 -61
220 -65 233 -7 22 -5 22 42 16 26 -4 104 -18 173 -31z m-480 -1174 c0 -575 -3
-720 -13 -720 -7 0 -29 -11 -48 -25 l-37 -24 -208 239 c-115 131 -210 245
-212 253 -3 15 252 955 263 965 8 9 148 30 208 31 l47 1 0 -720z m-389 368
c-46 -172 -85 -314 -86 -316 -3 -4 -477 278 -493 293 -11 10 -1 22 55 62 81
58 164 109 252 153 65 32 313 120 342 120 12 0 -1 -58 -70 -312z m954 271
c189 -63 364 -160 534 -297 79 -64 91 -77 77 -87 -27 -20 -567 -307 -570 -304
-4 6 -196 713 -196 722 0 12 48 1 155 -34z m-2060 1 c4 -6 -25 -45 -64 -86
-297 -318 -505 -774 -556 -1216 -4 -35 -12 -58 -21 -62 -18 -7 -18 1 2 133 63
432 250 829 552 1169 65 73 76 80 87 62z m3441 -410 c131 -215 235 -491 278
-737 30 -170 36 -223 26 -223 -17 0 -28 29 -34 95 -26 266 -168 657 -326 897
-28 43 -48 83 -44 89 10 17 35 -13 100 -121z m-2756 -263 c133 -142 241 -259
239 -261 -2 -1 -48 -14 -101 -28 l-98 -26 -34 62 c-84 152 -276 513 -282 531
l-7 20 20 -20 c11 -11 129 -136 263 -278z m2035 255 c-6 -5 -131 -122 -278
-262 -147 -139 -270 -250 -273 -248 -9 10 -55 190 -50 195 10 10 591 322 601
322 6 1 6 -2 0 -7z m-2190 -294 c84 -156 151 -284 150 -286 -2 -3 -725 -202
-732 -202 -6 0 9 53 44 159 42 128 121 288 202 406 62 93 170 220 178 211 3
-3 74 -132 158 -288z m2306 170 c45 -54 130 -191 178 -287 69 -137 147 -371
124 -371 -5 0 -130 33 -278 74 -149 41 -289 79 -312 85 l-42 11 152 255 c84
140 154 255 155 255 2 0 12 -10 23 -22z m-161 -581 l485 -133 12 -79 c6 -44
12 -101 12 -127 l1 -48 -377 0 c-208 0 -529 -3 -713 -7 l-336 -6 -27 54 -26
54 22 22 c72 72 444 402 452 403 6 0 228 -60 495 -133z m992 -272 c232 -63
424 -118 427 -122 3 -3 -2 -3 -12 0 -10 4 -202 7 -427 7 l-409 0 -5 43 c-21
179 -22 198 -9 193 7 -3 203 -57 435 -121z m-2040 -21 c111 -57 107 -234 -6
-288 -107 -51 -236 26 -236 141 0 129 126 206 242 147z m-1772 -236 c0 -29 5
-84 10 -122 6 -38 9 -71 7 -72 -3 -3 -863 229 -892 240 -5 3 189 5 433 5 l442
1 0 -52z m1490 38 c0 -7 11 -29 24 -48 l23 -35 -238 -214 c-131 -118 -243
-215 -248 -217 -9 -3 -960 254 -968 262 -5 5 -20 110 -28 194 l-6 72 720 0
c601 0 721 -2 721 -14z m559 -345 l208 -234 -29 -106 c-138 -516 -238 -865
-248 -871 -7 -4 -40 -11 -74 -14 -33 -4 -87 -9 -118 -13 l-58 -6 0 719 0 719
48 22 c26 11 51 20 55 19 5 -1 102 -107 216 -235z m-2525 141 c34 -291 141
-606 290 -856 28 -48 44 -86 41 -95 -8 -21 -19 -7 -92 122 -137 240 -242 565
-269 830 -5 58 -4 66 9 61 10 -3 17 -25 21 -62z m4360 -29 c-64 -466 -259
-884 -572 -1223 -49 -53 -63 -63 -73 -52 -11 10 -2 24 47 75 303 312 526 787
569 1212 8 76 11 85 28 85 12 0 12 -15 1 -97z m-3828 -159 c61 -213 147 -391
270 -557 l65 -88 -75 -125 c-42 -68 -74 -124 -72 -124 1 0 57 29 124 65 66 36
124 65 127 65 3 0 42 -32 87 -71 200 -172 435 -296 683 -359 l90 -23 60 -221
c33 -121 61 -225 63 -231 7 -27 -281 30 -466 91 -641 213 -1134 707 -1347
1349 -39 117 -81 302 -91 396 l-7 67 229 -63 228 -62 32 -109z m3758 189 c-12
-99 -55 -297 -85 -391 -179 -558 -569 -1010 -1094 -1268 -203 -100 -467 -178
-672 -200 l-62 -6 26 93 c14 52 42 155 63 229 l36 135 98 26 c199 54 415 156
566 270 50 38 93 69 95 69 2 0 56 -31 120 -70 64 -38 118 -70 120 -70 3 0 -18
42 -46 93 -27 50 -57 106 -66 124 l-16 32 68 73 c162 175 307 448 369 695 l22
88 220 61 c120 34 225 62 231 63 9 1 11 -12 7 -46z m-549 -204 c-32 -112 -89
-247 -151 -353 -72 -126 -243 -344 -251 -320 -2 6 -71 136 -153 289 -83 152
-150 281 -150 285 0 4 152 48 338 99 185 51 348 96 362 100 14 4 26 4 28 0 2
-5 -8 -50 -23 -100z m-2860 19 c165 -44 304 -84 309 -89 8 -7 -281 -499 -294
-499 -8 0 -30 30 -97 130 -57 85 -119 205 -163 314 -32 82 -72 226 -61 226 3
0 141 -37 306 -82z m2272 -425 c88 -164 159 -299 158 -301 -2 -3 -102 100
-349 360 l-177 187 43 11 c24 6 63 18 88 25 25 8 52 14 61 14 10 1 68 -98 176
-296z m-1582 147 c15 -56 26 -102 24 -104 -14 -13 -600 -323 -597 -316 2 6
538 518 544 520 1 0 14 -45 29 -100z m142 -512 c55 -200 99 -364 98 -365 0 -1
-36 7 -79 18 -222 57 -467 190 -659 359 l-48 42 283 153 c156 85 288 154 294
154 6 1 56 -162 111 -361z m1277 97 l217 -130 -33 -28 c-63 -54 -184 -129
-284 -177 -133 -65 -387 -149 -371 -123 3 4 37 125 76 268 40 143 78 284 87
313 l15 53 38 -23 c21 -13 135 -81 255 -153z m-2133 -610 c296 -221 631 -359
998 -413 70 -10 116 -22 119 -29 5 -18 -35 -16 -179 8 -295 50 -579 160 -834
323 -169 108 -432 339 -404 356 9 6 42 -19 108 -82 52 -50 139 -123 192 -163z
m1589 68 c0 -6 -121 -451 -229 -843 -6 -24 -9 101 -10 398 l-1 432 63 1 c34 0
82 4 107 8 63 12 70 12 70 4z m995 -123 c17 -28 -357 -225 -546 -288 -185 -61
-517 -127 -537 -107 -14 13 21 24 128 40 300 43 600 153 855 314 86 54 91 56
100 41z"/>
<path d="M3472 4524 c-24 -17 -30 -62 -10 -82 30 -30 98 -1 98 41 0 20 -34 57
-53 57 -7 0 -23 -7 -35 -16z"/>
<path d="M3004 4115 c-19 -30 -14 -48 20 -71 24 -15 28 -15 51 0 27 18 34 63
13 84 -21 21 -66 14 -84 -13z"/>
<path d="M5575 4446 c-28 -28 -24 -60 11 -83 22 -14 26 -14 48 1 39 25 43 56
12 83 -34 29 -41 29 -71 -1z"/>
<path d="M5984 3985 c-34 -52 31 -111 76 -70 22 20 26 65 8 83 -21 21 -66 14
-84 -13z"/>
<path d="M4476 3042 c-16 -34 -23 -41 -59 -46 l-40 -7 28 -29 c24 -25 27 -34
21 -69 -3 -23 -4 -41 -1 -41 2 0 20 7 38 16 31 15 36 15 65 0 43 -22 44 -21
37 27 -6 40 -4 46 24 70 l31 26 -43 6 c-39 6 -46 12 -63 47 l-20 40 -18 -40z"/>
<path d="M2927 2022 c-22 -24 -21 -55 1 -75 36 -33 92 -8 92 41 0 47 -61 69
-93 34z"/>
<path d="M3392 1558 c-21 -21 -14 -66 13 -84 52 -34 111 31 70 76 -20 22 -65
26 -83 8z"/>
<path d="M5854 1835 c-13 -21 -15 -31 -6 -50 21 -45 93 -42 105 4 15 59 -65
97 -99 46z"/>
<path d="M5463 1500 c-43 -18 -41 -84 4 -101 59 -22 102 59 51 95 -25 18 -25
18 -55 6z"/>
</g>
</svg>
