<?xml version="1.0" standalone="no"?>
<!DOCTYPE svg PUBLIC "-//W3C//DTD SVG 20010904//EN"
 "http://www.w3.org/TR/2001/REC-SVG-20010904/DTD/svg10.dtd">
<svg version="1.0" xmlns="http://www.w3.org/2000/svg"
 width="30" height="30" viewBox="0 0 615.000000 626.000000"
 preserveAspectRatio="xMidYMid meet">

<g transform="translate(0.000000,626.000000) scale(0.100000,-0.100000)"
fill="currentColor" stroke="none">
<path d="M2855 5964 c-16 -2 -82 -11 -145 -20 -359 -49 -802 -224 -1135 -448
-475 -319 -887 -808 -1100 -1306 -70 -162 -137 -432 -171 -685 -24 -176 -24
-540 0 -718 90 -687 376 -1265 862 -1737 207 -201 424 -359 664 -483 561 -290
1098 -347 1799 -191 635 142 1220 500 1612 986 308 383 520 871 593 1368 27
181 41 522 28 672 -35 392 -181 804 -440 1243 -283 479 -622 811 -1037 1015
-241 118 -621 228 -985 285 -100 16 -476 29 -545 19z m-25 -88 c0 -14 -81 -47
-135 -56 -73 -12 -115 -28 -115 -44 0 -9 23 -9 89 -1 71 9 98 18 137 43 111
70 161 76 319 37 147 -37 196 -41 250 -20 34 12 59 15 98 10 50 -7 57 -12 162
-115 104 -102 124 -115 185 -122 32 -4 50 -40 50 -103 0 -58 -15 -92 -26 -60
-20 58 -44 105 -53 105 -6 0 -20 -9 -31 -20 -18 -18 -20 -31 -18 -88 l3 -67
40 -8 c22 -5 74 -8 115 -7 49 1 81 -4 93 -12 17 -13 15 -17 -32 -56 -28 -24
-51 -50 -51 -58 0 -7 -16 -31 -35 -53 -42 -46 -45 -58 -8 -34 25 17 27 17 37
-1 46 -78 84 -84 64 -11 -17 64 -4 108 45 150 l42 36 -21 37 c-14 24 -30 38
-45 40 -87 10 -88 10 -82 47 3 19 -1 54 -11 81 -9 26 -16 65 -16 86 0 38 0 38
-40 38 -50 0 -91 20 -114 55 -10 15 -33 44 -53 66 -19 21 -31 39 -26 39 25 0
331 -83 423 -115 448 -155 792 -392 1051 -725 508 -652 769 -1414 694 -2031
-55 -463 -220 -918 -472 -1304 -222 -339 -530 -643 -863 -850 -91 -57 -342
-186 -386 -199 l-22 -7 20 41 c16 31 18 43 9 54 -9 11 -9 15 1 18 6 2 8 7 3
10 -21 11 -73 -14 -137 -67 -36 -30 -97 -69 -134 -86 -38 -17 -82 -45 -99 -63
-27 -29 -42 -35 -145 -55 -63 -12 -126 -25 -140 -28 l-25 -6 30 33 c37 40 68
56 124 65 57 9 81 34 81 85 0 34 -6 46 -47 84 -46 44 -47 46 -28 66 10 11 25
20 34 20 26 0 133 94 198 173 33 40 100 107 149 148 116 98 169 165 243 308
34 65 61 122 61 125 0 4 -12 11 -27 17 -49 18 -98 1 -188 -66 -131 -98 -173
-98 -247 0 -37 49 -69 72 -106 78 -45 7 -69 56 -41 84 20 20 3 40 -29 35 -36
-5 -56 20 -67 83 -9 52 -61 163 -114 244 -39 62 -71 143 -71 184 0 36 25 1 90
-126 39 -76 81 -142 112 -174 30 -33 48 -61 48 -76 0 -17 30 -57 100 -132 91
-98 100 -111 106 -156 8 -56 22 -69 79 -69 46 0 67 11 137 75 31 28 85 67 118
86 142 79 220 137 305 223 124 124 140 159 138 297 l-2 106 83 41 c101 50 163
66 222 58 93 -12 126 -42 214 -190 21 -35 57 -75 90 -101 30 -24 65 -54 78
-68 19 -20 33 -25 75 -26 29 0 58 3 65 8 21 13 31 79 21 140 -5 31 -9 58 -9
60 0 2 -13 1 -29 -1 l-30 -4 -8 75 c-4 42 -8 135 -8 206 1 153 18 222 73 302
72 105 102 157 97 173 -3 9 1 25 9 36 16 21 18 18 30 -39 4 -15 19 -40 34 -56
23 -25 36 -30 95 -34 41 -3 70 -1 74 6 9 15 -27 37 -62 37 -61 0 -94 19 -105
58 -5 21 -10 49 -10 65 0 22 -4 27 -25 27 -30 0 -51 -30 -61 -85 -9 -52 -21
-74 -92 -169 -34 -44 -67 -101 -76 -130 -23 -73 -34 -244 -23 -351 12 -114 14
-225 5 -248 -7 -16 -12 -14 -45 17 -21 19 -50 44 -64 55 -15 12 -54 65 -88
120 -60 97 -111 150 -165 171 -70 26 -169 3 -313 -75 -118 -64 -184 -58 -199
20 -8 44 -33 46 -66 6 -71 -84 -145 -68 -222 48 -48 74 -69 91 -109 91 -55 0
-60 -66 -13 -158 43 -84 153 -172 215 -172 48 0 76 21 100 75 11 25 25 45 30
45 6 0 22 -18 36 -40 28 -45 56 -56 117 -46 l41 7 -5 -83 c-3 -64 -10 -93 -28
-126 -36 -64 -176 -182 -335 -282 -77 -49 -162 -112 -190 -139 -52 -53 -74
-61 -95 -37 -6 8 -21 16 -33 18 -16 2 -23 11 -25 33 -2 22 -15 40 -45 65 -56
44 -167 179 -167 201 0 10 -16 30 -36 45 -51 39 -116 136 -175 258 -28 58 -55
108 -60 112 -15 9 -39 -61 -39 -113 0 -52 29 -124 78 -196 47 -68 64 -106 97
-217 26 -86 35 -106 52 -108 17 -3 21 -10 20 -37 -1 -44 15 -62 76 -80 39 -11
63 -29 107 -74 89 -93 138 -93 254 -1 40 31 82 62 94 69 28 15 82 14 82 -1 -1
-20 -101 -194 -140 -242 -19 -24 -77 -77 -129 -117 -59 -47 -113 -100 -146
-145 -29 -38 -79 -92 -111 -119 -88 -73 -164 -148 -164 -161 0 -7 9 -15 19
-19 22 -7 81 -70 81 -86 0 -24 -50 -58 -96 -65 -38 -5 -57 -15 -87 -46 -69
-69 -103 -86 -197 -95 -162 -15 -766 12 -923 41 -76 15 -94 27 -103 71 -4 25
0 36 25 63 17 17 31 38 31 46 0 8 -18 38 -40 67 -29 39 -40 63 -40 89 0 49
-20 74 -95 116 -77 42 -88 66 -56 119 27 47 26 63 -4 87 -31 24 -58 84 -49
111 6 19 3 20 -49 14 -51 -5 -57 -3 -82 23 -21 21 -26 35 -23 65 5 59 -27 77
-153 86 -97 6 -106 9 -213 62 -61 31 -142 63 -181 72 -86 19 -109 34 -135 85
-11 22 -38 51 -59 64 -66 42 -98 90 -106 160 -8 73 -32 131 -70 168 -27 27
-27 29 -23 130 4 95 7 107 37 154 18 29 39 82 48 120 14 61 21 75 67 119 71
70 144 133 166 145 27 15 66 12 80 -5 7 -8 18 -15 24 -15 7 0 53 40 103 89 51
48 107 95 126 104 31 15 39 15 88 1 87 -24 137 -28 180 -14 34 12 51 11 112
-3 40 -8 93 -18 118 -22 27 -3 67 -19 94 -37 41 -27 52 -30 96 -25 27 3 49 5
49 3 0 -1 -9 -22 -21 -45 -18 -39 -19 -48 -9 -92 10 -39 9 -56 0 -80 -18 -42
5 -64 75 -73 60 -7 134 -33 136 -47 1 -5 3 -13 4 -19 1 -5 3 -17 4 -25 2 -27
40 -55 74 -55 39 1 69 16 97 52 25 32 115 64 153 54 14 -3 47 -24 73 -47 69
-60 112 -74 259 -85 50 -3 109 -13 133 -21 44 -14 62 -11 62 11 0 30 -126 65
-236 66 -63 0 -132 25 -217 79 -124 78 -168 77 -248 -10 -36 -39 -52 -49 -76
-49 -34 0 -36 4 -48 73 -8 48 -38 68 -106 69 -29 0 -63 4 -76 9 -23 8 -23 10
-8 45 14 33 14 39 0 54 -21 23 -19 79 5 118 11 18 18 37 15 43 -4 5 -34 9 -69
9 -70 0 -126 15 -126 34 0 8 -31 16 -84 24 -47 6 -108 21 -135 33 l-51 21 37
42 c21 22 45 40 53 39 34 -6 61 9 85 46 31 50 68 60 126 33 46 -22 75 -19 92
9 28 44 67 17 139 -98 68 -107 79 -138 49 -148 -24 -7 -29 -35 -6 -35 25 0 17
-14 -18 -31 -41 -20 -45 -42 -13 -74 62 -62 174 4 125 75 -8 12 -9 9 -7 -11 4
-35 -18 -59 -52 -59 -23 0 -61 25 -49 33 2 1 21 10 42 20 20 9 37 23 37 31 0
7 11 17 24 20 23 6 38 32 50 89 5 22 12 27 36 27 16 0 31 4 34 9 4 5 -23 48
-59 96 -36 48 -65 92 -65 98 0 5 10 -3 22 -19 12 -16 45 -54 73 -85 48 -54 51
-59 80 -184 17 -77 38 -142 52 -162 18 -26 21 -38 13 -53 -15 -28 -12 -48 10
-70 50 -50 166 13 145 79 -6 19 -13 22 -43 19 -32 -2 -37 0 -34 17 2 11 3 34
2 52 -1 45 24 65 74 61 36 -3 41 0 44 20 6 39 -23 72 -63 72 -52 0 -87 -51
-90 -130 0 -9 -10 -15 -25 -15 -23 0 -26 6 -42 75 -9 41 -17 96 -17 123 -1 41
-6 52 -38 83 -21 20 -48 43 -60 51 -12 8 -50 55 -83 104 -34 50 -67 88 -73 86
-15 -5 -10 -77 9 -122 8 -19 39 -62 69 -96 58 -65 65 -78 39 -75 -10 0 -27
-18 -43 -48 -34 -62 -51 -70 -51 -23 0 49 -132 243 -183 270 -38 19 -77 16
-77 -7 0 -32 -27 -38 -75 -16 -62 28 -98 20 -131 -30 -29 -43 -50 -56 -58 -34
-11 29 -36 13 -61 -39 -14 -31 -35 -58 -48 -64 -59 -27 -179 10 -245 75 -33
33 -34 38 -30 94 3 45 11 68 36 103 25 36 32 56 32 95 0 32 6 54 17 66 19 18
9 27 106 -90 31 -37 45 -46 71 -46 36 0 68 27 85 73 17 44 13 64 -20 101 l-31
36 23 32 c12 18 24 35 26 37 1 2 30 -11 64 -29 56 -30 65 -31 99 -21 20 6 59
11 86 11 55 1 88 20 90 53 5 101 74 163 150 135 44 -16 67 1 41 30 -23 25 -21
54 3 80 31 33 51 29 43 -8 -3 -19 1 -48 12 -76 17 -46 18 -46 54 -39 93 17
116 16 155 -4 49 -25 53 -22 100 72 38 77 72 107 123 107 22 0 31 6 40 29 9
24 19 31 49 36 55 9 84 22 84 38 0 18 -40 77 -61 90 -12 8 -23 5 -44 -11 -47
-37 -145 -42 -145 -7 0 17 69 158 106 217 23 36 31 78 18 91 -7 6 -66 -22 -95
-45 -63 -52 -119 -164 -146 -298 -15 -75 -71 -193 -95 -202 -7 -3 -32 3 -55
13 l-41 17 4 86 c2 47 2 86 -2 86 -12 0 -51 -24 -91 -57 -24 -20 -47 -32 -54
-28 -19 12 -2 89 37 166 30 61 62 98 212 247 180 177 241 222 305 222 15 0 27
5 27 10 0 14 84 12 98 -2 7 -7 12 -24 12 -39 0 -35 11 -42 85 -50 39 -5 63
-13 72 -25 19 -25 16 -33 -13 -44 -14 -6 -22 -14 -19 -20 9 -15 52 -12 69 6
41 40 -3 98 -80 109 -75 10 -83 14 -86 43 -2 16 -13 31 -28 39 -28 14 -120 18
-120 5 0 -5 -24 -14 -53 -21 -73 -16 -140 -64 -233 -166 -43 -47 -108 -105
-144 -129 -75 -49 -130 -107 -130 -136 0 -11 -11 -49 -25 -86 -29 -77 -31
-115 -9 -149 22 -34 37 -32 89 16 43 40 45 41 45 17 0 -16 -19 -44 -60 -85
-48 -48 -60 -66 -60 -92 0 -28 -3 -31 -20 -26 -11 4 -36 1 -55 -5 -38 -13
-115 -93 -115 -120 0 -27 -20 -38 -93 -50 -61 -9 -71 -8 -123 13 l-57 24 75 5
c94 6 188 53 230 114 28 40 35 60 18 49 -5 -3 -10 3 -10 15 0 12 -15 36 -34
54 -46 43 -54 89 -30 168 18 59 17 60 -2 77 -11 9 -25 28 -32 44 -34 80 -112
-19 -112 -143 0 -28 -2 -29 -30 -23 -23 4 -48 -3 -103 -31 -113 -56 -112 -56
-88 -105 12 -22 33 -48 48 -58 l26 -17 53 59 c56 63 60 63 44 3 -10 -34 -50
-76 -114 -121 -14 -10 -26 -22 -26 -27 0 -5 18 -20 41 -33 l40 -24 -46 -5
c-94 -11 -115 -79 -45 -145 46 -44 49 -66 17 -107 -22 -27 -26 -28 -44 -15
-12 8 -43 41 -70 72 -43 53 -51 58 -78 53 -41 -8 -65 -40 -65 -88 0 -50 -12
-71 -54 -98 -63 -39 -68 -108 -14 -192 48 -76 128 -131 207 -144 23 -4 41 -10
41 -14 0 -16 -51 -16 -117 1 -116 30 -129 28 -229 -46 -48 -35 -96 -78 -107
-95 -16 -25 -23 -29 -45 -24 -15 4 -29 7 -32 6 -38 0 -59 -9 -117 -49 -147
-100 -193 -155 -212 -252 -6 -33 -26 -91 -43 -128 -28 -61 -32 -80 -36 -189
l-4 -121 35 -20 c31 -19 38 -31 60 -105 14 -45 28 -101 32 -123 9 -57 15 -75
26 -75 6 0 7 5 4 10 -3 5 -2 10 2 10 19 0 95 -89 108 -126 14 -42 17 -43 140
-69 42 -9 113 -37 176 -70 84 -43 126 -57 198 -70 101 -17 142 -30 153 -48 4
-7 8 -31 8 -54 0 -56 26 -83 77 -83 21 0 45 4 52 9 18 12 53 -32 77 -97 16
-41 16 -45 1 -72 -36 -60 -18 -93 81 -146 63 -33 76 -53 68 -105 -6 -36 -3
-41 44 -88 51 -51 66 -80 31 -62 -14 8 -23 5 -40 -13 -25 -26 -27 -72 -5 -104
20 -28 10 -28 -82 3 -105 35 -330 150 -454 232 -245 162 -540 429 -719 653
-190 236 -348 517 -429 762 -42 126 -118 476 -149 685 -26 182 -24 552 6 743
61 397 189 737 402 1060 72 110 83 123 93 106 43 -74 78 -83 91 -25 4 18 21
47 39 64 17 17 44 47 59 68 15 20 32 37 37 37 6 0 10 -24 10 -53 0 -64 11 -77
65 -77 54 0 98 31 271 192 190 176 144 172 -71 -7 -152 -126 -167 -136 -195
-132 -21 3 -26 12 -36 59 -13 67 -21 88 -32 88 -5 0 -30 -29 -55 -65 -26 -36
-58 -70 -70 -74 -15 -6 -28 -24 -37 -50 -10 -32 -16 -39 -27 -30 -19 17 -16
38 12 71 14 16 25 39 25 50 0 35 186 234 359 385 88 77 95 81 150 86 39 3 87
19 153 50 53 25 106 48 118 52 19 6 20 5 11 -12 -18 -34 -87 -90 -170 -138
-45 -26 -83 -51 -86 -55 -6 -10 13 -141 21 -149 12 -12 24 28 24 81 l0 57 58
37 c31 20 91 69 132 109 41 39 85 77 98 84 12 6 22 17 22 23 0 22 -97 1 -200
-44 -115 -50 -180 -71 -180 -58 0 14 265 186 343 224 137 66 166 58 129 -38
-11 -29 -18 -63 -15 -77 3 -20 -2 -27 -39 -44 -26 -13 -54 -38 -73 -65 -16
-24 -60 -74 -97 -110 -38 -37 -68 -69 -68 -73 0 -10 63 -66 74 -67 28 -1 536
362 536 383 0 21 -34 47 -62 47 -15 0 -28 4 -28 9 0 15 81 50 143 62 31 7 57
16 57 20 0 5 -15 16 -32 25 -18 9 -44 25 -57 35 -37 29 -57 23 -22 -7 17 -14
31 -29 31 -33 0 -4 -19 -12 -42 -18 -49 -13 -109 -51 -186 -117 -72 -62 -81
-60 -77 12 2 32 9 71 15 87 9 24 8 32 -4 41 -13 9 -12 13 12 24 101 47 252
105 335 130 145 44 507 105 507 86z m495 -16 c27 -7 25 -8 -15 -8 -25 0 -56 4
-70 8 -21 7 -19 8 15 8 22 0 54 -4 70 -8z m493 -395 c16 -30 27 -57 24 -60 -3
-3 -20 -5 -38 -5 -28 0 -32 4 -38 34 -6 30 6 86 18 86 2 0 18 -25 34 -55z
m-1658 7 c0 -25 -46 -67 -175 -158 -177 -125 -256 -174 -281 -174 -34 0 -30
25 9 57 17 16 48 46 67 68 100 112 136 142 166 138 22 -3 44 6 94 41 70 49
120 61 120 28z m791 -1254 c-3 -13 -23 -56 -44 -95 -20 -40 -37 -80 -37 -90 0
-10 -7 -30 -14 -45 -13 -25 -13 -29 2 -37 40 -21 88 -22 137 -4 49 19 95 20
95 3 0 -5 -24 -16 -52 -25 -29 -9 -62 -27 -73 -40 -11 -12 -32 -25 -46 -28
-42 -10 -78 -45 -100 -97 -25 -59 -46 -79 -79 -75 -14 1 -38 3 -54 4 l-29 1
46 49 c60 65 86 119 103 215 8 45 27 108 43 141 47 99 123 189 102 123z m-782
-170 c9 -25 6 -71 -10 -134 -9 -35 -8 -49 11 -93 13 -28 33 -59 44 -69 34 -26
27 -70 -15 -100 -84 -59 -193 -83 -247 -53 l-24 13 41 35 c48 41 66 71 76 130
4 23 12 41 18 40 13 -2 24 41 26 104 0 25 8 69 16 97 12 40 20 52 36 52 11 0
23 -10 28 -22z m28 -50 c-3 -8 -6 -5 -6 6 -1 11 2 17 5 13 3 -3 4 -12 1 -19z
m-177 -126 c0 -13 -53 -83 -85 -112 l-27 -25 -29 35 c-20 24 -25 36 -17 39 7
2 31 16 53 31 56 38 105 53 105 32z m885 -1273 c15 -23 -53 -74 -85 -64 -22 7
-27 44 -7 49 6 2 26 8 42 14 41 13 43 14 50 1z m1294 -337 c43 -43 45 -44 96
-40 40 3 52 1 48 -8 -8 -22 -51 -44 -87 -44 -80 0 -222 170 -178 214 4 5 23
-11 42 -35 19 -23 55 -62 79 -87z m318 -52 c7 -9 8 -16 2 -18 -14 -5 -56 24
-69 48 -10 19 -10 19 22 2 18 -9 38 -24 45 -32z m922 -180 c1 -51 -11 -70 -47
-70 -19 0 -23 4 -17 18 4 9 10 38 14 64 4 26 14 55 22 64 12 15 14 15 20 -7 4
-13 7 -44 8 -69z m-1351 -1372 c2 -8 -12 -35 -30 -58 -30 -40 -42 -47 -148
-82 -122 -41 -135 -43 -125 -28 3 5 31 17 63 27 44 14 73 34 135 91 76 71 99
82 105 50z"/>
<path d="M2367 5745 c-45 -11 -87 -39 -87 -57 0 -15 63 -47 105 -53 22 -3 64
0 93 8 48 13 53 13 46 -2 -19 -47 -18 -47 55 -59 108 -18 111 -18 111 23 0 27
-6 38 -27 52 -16 10 -33 24 -39 32 -10 13 -16 13 -39 3 -28 -13 -44 -5 -45 21
0 10 -54 32 -95 40 -16 2 -51 -1 -78 -8z m152 -44 c9 -15 7 -20 -12 -25 -29
-8 -141 -8 -161 0 -45 17 14 42 106 43 47 1 59 -3 67 -18z m124 -65 c26 -20
21 -34 -10 -29 -70 11 -75 13 -63 28 15 18 49 19 73 1z"/>
<path d="M2420 5573 c-8 -3 -24 -14 -36 -25 -18 -16 -25 -17 -47 -7 -33 15
-73 5 -88 -23 -10 -19 -8 -25 15 -45 32 -27 53 -29 84 -7 22 15 25 15 49 -7
21 -20 34 -24 86 -23 l62 2 0 -39 c1 -21 0 -39 -1 -39 -1 0 -21 7 -44 15 -74
26 -110 20 -173 -29 -49 -38 -84 -55 -201 -99 -16 -6 -61 -41 -101 -78 -90
-83 -108 -93 -219 -115 -74 -14 -96 -23 -127 -51 -45 -41 -80 -118 -86 -194
l-6 -57 58 -12 c71 -15 125 -9 162 18 43 30 101 36 167 17 32 -9 69 -14 82
-11 17 5 38 -1 63 -15 34 -19 43 -20 74 -10 73 24 214 129 377 278 105 96 141
122 207 149 53 22 52 30 -2 24 -38 -4 -100 -43 -173 -108 -104 -92 -281 -223
-376 -276 l-80 -46 -28 26 c-20 21 -33 25 -53 20 -15 -4 -52 0 -84 10 -54 15
-63 15 -122 0 -35 -9 -70 -23 -79 -31 -20 -18 -121 -20 -138 -3 -7 7 -12 23
-12 38 1 34 59 139 91 162 14 11 70 30 125 44 108 27 135 42 207 121 48 52 79
68 180 93 28 8 65 28 90 50 58 51 78 60 136 60 57 0 110 -21 234 -92 57 -33
91 -48 98 -41 9 9 -111 93 -162 111 -20 8 -16 10 31 16 55 7 130 41 137 63 5
15 -65 82 -94 89 -23 6 -28 5 -73 -21 -22 -13 -26 -12 -31 3 -4 10 -14 24 -23
31 -9 7 -16 19 -16 26 0 32 -89 57 -140 38z m86 -42 c44 -21 70 -46 57 -54 -4
-3 -34 -8 -66 -12 -48 -6 -61 -4 -77 10 -26 24 -25 49 3 63 31 15 38 14 83 -7z
m-168 -38 c-13 -16 -50 -14 -56 5 -5 17 39 33 56 20 9 -8 10 -14 0 -25z m400
-46 c29 -27 28 -30 -12 -50 -57 -27 -103 -31 -131 -13 -34 22 -26 31 40 51 36
10 55 21 55 31 0 17 13 12 48 -19z"/>
<path d="M3655 5049 c-19 -17 -35 -37 -35 -45 0 -16 26 -19 35 -3 5 6 13 3 22
-10 9 -13 25 -21 44 -21 28 0 29 -2 29 -47 0 -56 22 -90 65 -102 27 -7 30 -12
30 -49 0 -22 3 -44 8 -48 4 -4 7 6 7 22 0 39 11 53 46 63 40 10 37 25 -6 29
-64 5 -80 12 -100 45 -11 17 -20 48 -20 67 0 44 -13 65 -34 57 -17 -7 -22 8
-6 18 6 3 10 17 10 31 0 36 -49 33 -95 -7z"/>
<path d="M3470 4917 c-53 -94 -69 -137 -69 -188 -1 -54 28 -125 70 -173 18
-21 27 -40 23 -50 -5 -13 -9 -14 -20 -5 -18 15 -54 -14 -54 -43 0 -12 -7 -18
-22 -18 -13 0 -32 -7 -42 -15 -17 -13 -18 -18 -8 -40 10 -21 9 -30 -4 -50 -8
-13 -18 -50 -21 -82 -3 -32 -10 -64 -16 -70 -27 -35 -63 5 -74 82 -6 47 -6 48
18 42 l24 -6 -25 19 c-14 11 -28 20 -32 20 -12 0 -9 -133 3 -168 12 -36 52
-65 78 -57 36 11 50 40 56 110 6 74 22 108 37 81 12 -21 38 -21 38 0 0 18 -18
53 -37 73 -17 16 -8 26 29 35 24 5 28 2 38 -29 6 -19 16 -35 21 -35 18 0 41
50 36 79 -8 36 17 61 61 61 18 0 49 11 70 24 29 18 41 21 54 12 14 -8 22 -7
35 7 16 15 16 19 3 27 -11 7 -6 10 21 10 40 0 73 25 46 36 -8 3 -21 5 -28 3
-31 -4 -41 3 -55 36 -15 37 -17 89 -4 120 7 17 10 14 28 -25 10 -25 22 -53 26
-63 4 -14 10 -16 24 -8 15 8 25 4 50 -22 17 -18 32 -43 34 -57 4 -34 22 -32
26 3 5 41 -61 121 -93 113 -19 -5 -25 1 -39 38 -18 47 -49 82 -64 72 -26 -16
-35 -118 -16 -187 3 -12 -4 -18 -26 -22 -24 -5 -42 1 -85 28 -66 43 -82 82
-64 165 12 57 8 155 -7 170 -6 6 -23 -14 -44 -53z m50 -14 c0 -21 -7 -70 -17
-110 -23 -100 -10 -143 51 -172 24 -12 51 -30 61 -41 10 -11 25 -20 34 -20 13
-1 12 -4 -4 -16 -29 -22 -109 -13 -140 16 -35 33 -69 117 -69 175 0 51 56 205
75 205 5 0 9 -17 9 -37z m-30 -448 c0 -8 -2 -15 -4 -15 -2 0 -6 7 -10 15 -3 8
-1 15 4 15 6 0 10 -7 10 -15z"/>
<path d="M3154 4935 c-17 -12 -17 -15 -4 -29 32 -33 177 -46 235 -22 73 31 36
50 -111 59 -78 5 -106 3 -120 -8z m235 -21 c11 -10 -12 -15 -75 -16 -78 -1
-150 11 -122 21 18 6 190 2 197 -5z"/>
<path d="M2910 4920 c-23 -23 -28 -97 -7 -106 19 -7 66 13 73 31 4 8 -2 27
-12 43 -10 15 -17 33 -16 40 4 18 -15 15 -38 -8z m37 -64 c-4 -9 -13 -16 -22
-16 -16 0 -19 17 -9 45 6 15 8 15 22 2 8 -9 12 -23 9 -31z"/>
<path d="M996 4708 c-48 -65 -73 -125 -63 -152 14 -37 117 -4 142 45 29 54 15
109 -28 109 -17 0 -17 2 3 30 17 23 18 30 7 30 -8 0 -36 -28 -61 -62z m62 -20
c7 -7 12 -20 12 -30 0 -26 -50 -76 -84 -84 -27 -7 -29 -6 -22 20 9 36 55 106
70 106 7 0 17 -5 24 -12z"/>
<path d="M2380 4734 c-12 -4 -15 -14 -12 -39 6 -47 24 -61 48 -34 15 17 16 23
6 40 -7 11 -10 24 -7 29 6 10 -7 11 -35 4z"/>
<path d="M3987 4723 c-4 -3 -7 -10 -7 -14 0 -10 44 -37 74 -45 42 -10 32 22
-14 46 -44 23 -44 23 -53 13z"/>
<path d="M3954 4613 c-3 -10 -10 -26 -16 -37 -7 -13 -6 -21 3 -26 22 -14 39 1
39 35 0 38 -17 56 -26 28z"/>
<path d="M2125 4582 c-11 -2 -24 -8 -30 -12 -5 -4 -34 -15 -62 -24 -29 -10
-55 -21 -57 -24 -10 -16 25 -73 56 -92 50 -32 142 -24 175 14 26 31 32 96 9
115 -19 16 -67 28 -91 23z m57 -39 c41 -37 6 -103 -56 -103 -46 0 -94 18 -106
40 -12 22 -7 26 59 46 28 8 53 19 56 24 9 15 26 12 47 -7z"/>
<path d="M3216 3781 c-3 -5 7 -11 22 -14 30 -6 45 0 37 14 -8 12 -52 12 -59 0z"/>
<path d="M2820 3595 c-10 -12 -10 -19 -2 -27 13 -13 42 6 42 28 0 19 -24 18
-40 -1z"/>
<path d="M3974 3305 c-17 -7 -42 -27 -57 -44 -42 -51 -37 -101 22 -219 27 -53
55 -117 62 -142 22 -74 108 -144 154 -126 19 7 19 56 1 118 -19 62 -31 83 -83
146 -54 68 -59 87 -43 184 15 97 7 110 -56 83z m36 -43 c0 -5 -7 -31 -15 -58
-23 -78 -20 -95 39 -175 29 -41 59 -84 65 -97 10 -19 40 -109 41 -120 0 -2
-12 -2 -27 0 -22 2 -33 13 -50 48 -12 25 -46 96 -77 159 -66 134 -72 178 -29
223 26 27 53 37 53 20z"/>
<path d="M3429 3231 c-49 -48 -58 -70 -29 -79 8 -3 10 0 6 7 -9 13 8 37 36 52
30 16 21 -6 -23 -57 -35 -41 -40 -52 -36 -81 6 -36 -7 -42 -45 -22 -18 10 -20
17 -14 60 8 57 10 57 -87 28 -79 -23 -120 -58 -131 -110 -11 -55 -7 -79 17
-103 l23 -23 -31 -22 c-39 -27 -80 -69 -73 -76 2 -3 25 10 49 29 91 70 198 84
327 40 90 -30 124 -25 182 26 l35 30 -54 48 c-30 26 -77 69 -103 96 l-49 48
19 22 c22 24 62 103 62 123 0 26 -31 12 -81 -36z m-149 -155 c0 -45 29 -66 90
-66 55 0 81 13 62 32 -6 6 -12 17 -12 23 0 5 10 -5 21 -23 12 -18 41 -44 64
-58 51 -29 63 -53 39 -71 -26 -19 -76 -16 -136 8 -63 26 -156 28 -209 5 -36
-15 -36 -15 -48 10 -21 46 -14 98 18 128 25 24 66 43 99 45 7 1 12 -12 12 -33z"/>
<path d="M4670 3116 c0 -20 37 -63 59 -69 11 -3 25 1 31 8 8 9 1 20 -25 44
-38 33 -65 40 -65 17z"/>
<path d="M2991 2762 c-19 -35 7 -108 56 -154 56 -53 120 -62 177 -23 51 35
102 33 154 -5 86 -62 93 -120 25 -211 -43 -59 -77 -128 -67 -138 5 -6 1 -11
72 97 64 97 79 139 68 195 -11 57 -111 133 -181 139 -17 1 -56 -9 -88 -22
l-59 -24 -36 19 c-45 24 -83 79 -80 114 4 31 -26 41 -41 13z"/>
</g>
</svg>
