<?xml version="1.0" encoding="utf-8"?><svg xml:space="preserve" viewBox="0 0 128 128" y="0px" x="0px" xmlns:xlink="http://www.w3.org/1999/xlink" xmlns="http://www.w3.org/2000/svg" id="Layer_1" version="1.1" width="128px" height="128px" style="width:100%;height:100%;background-size:initial;background-repeat-y:initial;background-repeat-x:initial;background-position-y:initial;background-position-x:initial;background-origin:initial;background-color:initial;background-clip:initial;background-attachment:initial;animation-play-state:paused" ><g class="ldl-scale" style="transform-origin:50% 50%;transform:rotate(0deg) scale(0.8, 0.8);animation-play-state:paused" ><style type="text/css" style="animation-play-state:paused" >.st0{fill:none}.st1{fill:#323232}.st2{fill:#fff}</style>
<path d="z" class="st0" style="animation-play-state:paused" ></path>
<g style="animation-play-state:paused" ><circle r="51.2" cy="64" cx="64" class="st1" style="fill:rgb(50, 50, 50);animation-play-state:paused" ></circle>
<g style="animation-play-state:paused" ><path d="M42.8,47.5h-0.6c-5.3,0-9.6,4.3-9.6,9.6c0,2.7,1.2,5.2,3,6.9c-1.9,1.8-3,4.3-3,6.9c0,5.3,4.3,9.6,9.6,9.6h0.6 L59.3,64L42.8,47.5z" class="st2" style="fill:rgb(102, 216, 22);animation-play-state:paused" ></path>
<path d="M70.9,32.6c-2.6,0-5.1,1.1-6.9,3c-1.8-1.9-4.3-3-6.9-3c-5.3,0-9.6,4.3-9.6,9.6v0.6L64,59.3l16.5-16.5v-0.6 C80.5,36.9,76.2,32.6,70.9,32.6C70.9,32.6,70.9,32.6,70.9,32.6z" class="st2" style="fill:rgb(102, 216, 22);animation-play-state:paused" ></path>
<path d="M64,68.7L47.5,85.2v0.6c0,5.3,4.3,9.6,9.6,9.6l0,0c2.6,0,5.1-1.1,6.9-3c1.8,1.9,4.3,3,6.9,3 c5.3,0,9.6-4.3,9.6-9.6l0,0v-0.6L64,68.7z" class="st2" style="fill:rgb(102, 216, 22);animation-play-state:paused" ></path>
<path d="M95.4,57.1c0-5.3-4.3-9.6-9.6-9.6l0,0h-0.6L68.7,64l16.5,16.5h0.6c5.3,0,9.6-4.3,9.6-9.6l0,0 c0-2.6-1.1-5.1-3-6.9C94.3,62.2,95.4,59.7,95.4,57.1z" class="st2" style="fill:rgb(102, 216, 22);animation-play-state:paused" ></path></g></g>
<path d="z" class="st0" style="animation-play-state:paused" ></path>
<metadata xmlns:d="https://loading.io/stock/" style="animation-play-state:paused" ><d:name style="animation-play-state:paused" >flover</d:name>


<d:tags style="animation-play-state:paused" >flover,four leaf clover,lucky clover,flower,grass,plant,success,wealth,fortune</d:tags>


<d:license style="animation-play-state:paused" >by</d:license>


<d:slug style="animation-play-state:paused" >qkqvxs</d:slug></metadata></g><!-- generated by https://loading.io/ --></svg>