<?xml version="1.0" standalone="no"?>
<!DOCTYPE svg PUBLIC "-//W3C//DTD SVG 20010904//EN"
 "http://www.w3.org/TR/2001/REC-SVG-20010904/DTD/svg10.dtd">
<svg version="1.0" xmlns="http://www.w3.org/2000/svg"
 viewBox="0 0 800.000000 795.000000"
 preserveAspectRatio="xMidYMid meet">

<g transform="translate(0.000000,795.000000) scale(0.100000,-0.100000)"
stroke="none">
<path d="M4748 6793 l-698 -696 0 -993 c0 -547 3 -994 8 -994 4 0 321 314 705
698 l697 697 0 993 c0 545 -3 992 -7 992 -5 0 -322 -314 -705 -697z"/>
<path d="M2556 7448 c-3 -18 -9 -463 -12 -988 l-6 -955 698 -695 699 -695 3
994 2 993 -254 262 c-447 460 -1101 1116 -1113 1116 -6 0 -13 -15 -17 -32z"/>
<path d="M588 5421 c-75 -7 -84 -11 -69 -39 5 -10 312 -319 682 -686 l671
-666 994 0 c547 0 994 3 994 8 0 4 -312 319 -693 700 l-692 692 -910 -2 c-501
0 -940 -4 -977 -7z"/>
<path d="M4832 4737 c-380 -380 -692 -695 -692 -700 0 -4 447 -7 993 -7 l992
0 700 700 700 700 -1000 0 -1000 0 -693 -693z"/>
<path d="M2302 3921 l-432 -6 -138 -136 c-75 -75 -387 -380 -692 -679 -305
-298 -556 -546 -558 -551 -2 -5 428 -9 1005 -9 l1008 0 356 358 c547 549 999
1012 999 1023 0 10 -795 10 -1548 0z"/>
<path d="M4150 3922 c0 -15 268 -291 864 -889 l491 -493 1007 0 c555 0 1008 3
1007 8 -1 4 -312 311 -691 682 -678 662 -691 675 -737 681 -25 4 -472 10 -993
14 -700 6 -948 5 -948 -3z"/>
<path d="M3745 3650 c-105 -105 -418 -414 -697 -688 l-508 -497 1 -975 c1
-536 4 -988 8 -1004 6 -29 31 -4 698 675 l693 704 0 988 c0 543 -1 987 -3 987
-1 0 -88 -86 -192 -190z"/>
<path d="M4057 3518 c-4 -166 -7 -604 -7 -974 l0 -673 524 -533 c724 -737 844
-854 859 -839 9 9 13 241 15 985 l4 972 -687 682 c-378 375 -690 682 -694 682
-4 0 -11 -136 -14 -302z"/>
</g>
</svg>
