<svg width="38" height="38" viewBox="0 0 16 16" fill="currentColor" xmlns="http://www.w3.org/2000/svg">
    <path d="M9.00336 14.5027H7.00145C6.86872 14.5027 6.74142 14.5554 6.64756 14.6493C6.55371 14.7431 6.50098 14.8704 6.50098 15.0032C6.50098 15.1359 6.55371 15.2632 6.64756 15.3571C6.74142 15.4509 6.86872 15.5036 7.00145 15.5036H9.00336C9.1361 15.5036 9.26339 15.4509 9.35725 15.3571C9.45111 15.2632 9.50384 15.1359 9.50384 15.0032C9.50384 14.8704 9.45111 14.7431 9.35725 14.6493C9.26339 14.5554 9.1361 14.5027 9.00336 14.5027Z" fill="currentColor"/>
    <path d="M9.50199 13.0032H6.50091C6.36826 13.0032 6.24103 13.0559 6.14723 13.1497C6.05343 13.2435 6.00073 13.3707 6.00073 13.5034C6.00073 13.636 6.05343 13.7632 6.14723 13.857C6.24103 13.9508 6.36826 14.0035 6.50091 14.0035H9.50199C9.63465 14.0035 9.76187 13.9508 9.85567 13.857C9.94948 13.7632 10.0022 13.636 10.0022 13.5034C10.0022 13.3707 9.94948 13.2435 9.85567 13.1497C9.76187 13.0559 9.63465 13.0032 9.50199 13.0032Z" fill="currentColor"/>
    <path d="M11.5475 1.9597C10.6076 1.01856 9.34855 0.500319 8.00232 0.500319C7.34513 0.498753 6.69411 0.627041 6.08664 0.877814C5.47917 1.12859 4.92723 1.4969 4.46253 1.96161C3.99782 2.42632 3.6295 2.97825 3.37873 3.58572C3.12796 4.19319 2.99967 4.84422 3.00123 5.50141C3.00123 6.9586 3.55979 8.32171 4.53282 9.24097L4.6691 9.36881C5.23203 9.89518 6.00189 10.6163 6.00189 11.2527V12.0028C6.00189 12.1355 6.05458 12.2627 6.14837 12.3565C6.24216 12.4502 6.36936 12.5029 6.502 12.5029H7.25216C7.31848 12.5029 7.38208 12.4766 7.42898 12.4297C7.47587 12.3828 7.50221 12.3192 7.50221 12.2529V8.5902C7.50223 8.53964 7.48692 8.49025 7.45829 8.44857C7.42966 8.40688 7.38907 8.37486 7.34187 8.35672C7.05308 8.2389 6.77874 8.08841 6.52419 7.90818C6.46699 7.87165 6.41782 7.82386 6.37968 7.76772C6.34154 7.71158 6.31522 7.64827 6.30234 7.58163C6.28945 7.51499 6.29027 7.44643 6.30473 7.38012C6.31919 7.31381 6.347 7.25113 6.38646 7.19591C6.42592 7.14069 6.47621 7.09408 6.53426 7.05892C6.59231 7.02376 6.65692 7.00078 6.72413 6.99139C6.79135 6.98199 6.85978 6.98638 6.92525 7.00428C6.99071 7.02218 7.05185 7.05322 7.10494 7.0955C7.33624 7.25929 7.78165 7.50184 8.00232 7.50184C8.223 7.50184 8.66841 7.25866 8.90033 7.0955C9.00832 7.02761 9.13817 7.00355 9.26331 7.02824C9.38846 7.05293 9.49944 7.12451 9.57355 7.22833C9.64766 7.33215 9.6793 7.46036 9.66199 7.58674C9.64469 7.71312 9.57975 7.82811 9.48046 7.90818C9.22587 8.08808 8.95152 8.23826 8.66278 8.35578C8.61558 8.37392 8.57499 8.40594 8.54636 8.44763C8.51773 8.48931 8.50242 8.5387 8.50243 8.58927V12.2529C8.50243 12.3192 8.52878 12.3828 8.57567 12.4297C8.62257 12.4766 8.68617 12.5029 8.75249 12.5029H9.50265C9.63529 12.5029 9.76249 12.4502 9.85628 12.3565C9.95007 12.2627 10.0028 12.1355 10.0028 12.0028V11.2527C10.0028 10.6313 10.7642 9.9108 11.3202 9.38444L11.4737 9.23878C12.4745 8.28326 13.0034 6.98954 13.0034 5.50141C13.0067 4.84415 12.8798 4.19276 12.6299 3.58486C12.38 2.97695 12.0121 2.4246 11.5475 1.9597Z" fill="currentColor"/>
</svg>
