<svg width="16" height="16" viewBox="0 0 16 16" fill="none" xmlns="http://www.w3.org/2000/svg">
<path d="M12.502 9.50037L14.0034 11.0018L12.502 12.5032" stroke="currentColor" stroke-width="1.00189" stroke-linecap="round" stroke-linejoin="round"/>
<path d="M12.502 3.49988L14.0034 5.00131L12.502 6.50274" stroke="currentColor" stroke-width="1.00189" stroke-linecap="round" stroke-linejoin="round"/>
<path d="M2.00024 11.001H4.66339C5.07508 11.001 5.48039 10.8993 5.84337 10.7051C6.20635 10.5108 6.51576 10.23 6.74414 9.88743L8.00241 7.99988" stroke="currentColor" stroke-width="1.00189" stroke-linecap="round" stroke-linejoin="round"/>
<path d="M2.00049 5.00037H4.66326C5.07488 5.00037 5.48014 5.102 5.84307 5.29622C6.20599 5.49044 6.51536 5.77125 6.74371 6.11373L9.25988 9.8883C9.48823 10.2308 9.7976 10.5116 10.1605 10.7058C10.5234 10.9 10.9287 11.0017 11.3403 11.0017H13.0029" stroke="currentColor" stroke-width="1.00189" stroke-linecap="round" stroke-linejoin="round"/>
<path d="M13.0039 5.00024H11.3411C10.9294 5.00025 10.5241 5.10189 10.1611 5.29614C9.79814 5.49039 9.48873 5.77124 9.26035 6.11377L9.00244 6.50078" stroke="currentColor" stroke-width="1.00189" stroke-linecap="round" stroke-linejoin="round"/>
</svg>
