<?xml version="1.0" encoding="utf-8"?><svg xml:space="preserve" viewBox="0 0 100 100" y="0" x="0" 
xmlns="http://www.w3.org/2000/svg" version="1.1" width="128px" height="128px" 
xmlns:xlink="http://www.w3.org/1999/xlink" 
style="width:100%;height:100%;background-size:initial;background-repeat-y:initial;background-repeat-x:initial;background-position-y:initial;
background-position-x:initial;background-origin:initial;background-color:initial;background-clip:initial;background-attachment:initial" >
<!-- <g class="ldl-scale"/> -->
<path stroke-miterlimit="10" stroke-width="3.5" stroke="#333" fill="#849b87" stroke-linejoin="round" d="M63.491 28.019a5.881 5.881 0 0 1 3.485-3.428c.79-.281 1.632-.388 2.422-.668 1.483-.526 2.684-1.62 3.818-2.711a114.648 114.648 0 0 0 3.463-3.476c-1.054 2.439-1.443 5.103-2.123 7.672-.68 2.568-1.734 5.168-3.764 6.882-3.823 3.227-9.345 1.19-7.301-4.271z" style="stroke:rgb(60, 60, 60);fill:rgb(105, 202, 121)" ></path>
<path stroke-miterlimit="10" stroke-width="3.5" stroke="#333" fill="#849b87" stroke-linejoin="round" d="M72.372 37.866c2.556-.451 4.948-1.542 7.309-2.622l7.935-3.633c-3.841.663-7.737 1.329-11.616.958-2.409-.23-4.776-.859-7.194-.929a15.747 15.747 0 0 0-8.071 1.971c3.852 2.584 6.68 5.123 11.637 4.255z" style="stroke:rgb(60, 60, 60);fill:rgb(105, 202, 121)" ></path>
<path stroke-miterlimit="10" stroke-width="3.5" stroke="#333" fill="#849b87" stroke-linejoin="round" d="M72.39 44.982a33.333 33.333 0 0 0 12.294 4.234c1.403.19 2.845.289 4.223-.035-2.774-3.292-5.64-6.659-9.418-8.722-2.538-1.386-5.372-2.117-8.076-3.141-2.045-.775-3.928-1.808-5.875-2.776.125 4.674 2.886 8.124 6.852 10.44z" style="stroke:rgb(60, 60, 60);fill:rgb(105, 202, 121)" ></path>
<path stroke-miterlimit="10" stroke-width="3.5" stroke="#333" fill="#849b87" stroke-linejoin="round" d="M60.618 25.747c.888-2.439 2.377-4.606 3.851-6.743l4.954-7.184c-1.32 3.667-2.651 7.388-2.959 11.273-.191 2.412.017 4.852-.334 7.246a15.744 15.744 0 0 1-3.341 7.606c-1.876-4.241-3.885-7.466-2.171-12.198z" style="stroke:rgb(60, 60, 60);fill:rgb(105, 202, 121)" ></path>
<path stroke-miterlimit="10" stroke-width="3.5" stroke="#333" fill="#849b87" stroke-linejoin="round" d="M53.613 24.495a33.353 33.353 0 0 1-2.037-12.842c.056-1.415.209-2.852.767-4.153 2.76 3.304 5.579 6.709 6.956 10.788.925 2.74 1.153 5.658 1.692 8.498.408 2.148 1.099 4.182 1.715 6.268-4.581-.934-7.5-4.251-9.093-8.559z" style="stroke:rgb(60, 60, 60);fill:rgb(105, 202, 121)" ></path>
<path stroke-miterlimit="10" stroke="#333" stroke-width="3.5" fill="#e15b64" d="M14.598 51.705c-.97 3.805-1.468 7.712-1.964 11.607-.841 6.611-1.684 13.251-1.521 19.913.048 1.955.232 4.045 1.449 5.576 1.34 1.684 3.6 2.287 5.716 2.678 11.011 2.038 22.574 1.008 33.051-2.945 7.887-2.975 15.305-7.729 20.21-14.585s7.004-15.986 4.293-23.968c-1.126-3.316-3.015-6.326-5.148-9.104-3.021-3.934-6.6-7.496-10.847-10.058-6.062-3.657-15.37-5.698-22.448-4.278-7.493 1.504-13.773 7.188-17.764 13.466-2.284 3.596-3.975 7.573-5.027 11.698z" style="stroke:rgb(60, 60, 60);fill:rgb(255, 45, 45)" ></path>
<ellipse fill="#f5e6c8" ry="1.465" rx="2.562" cy="35.355" cx="50"  style="fill:rgb(255, 255, 255)" ></ellipse>
<ellipse fill="#f5e6c8" ry="2.562" rx="1.465" cy="70.905" cx="22.943"  style="fill:rgb(255, 255, 255)" ></ellipse>
<ellipse fill="#f5e6c8" ry="1.465" rx="2.562" cy="56.602" cx="50.042"  style="fill:rgb(255, 255, 255)" ></ellipse>
<ellipse fill="#f5e6c8" ry="2.562" rx="1.465" cy="47.709" cx="21.781"  style="fill:rgb(255, 255, 255)" ></ellipse>
<ellipse fill="#f5e6c8" ry="1.465" rx="2.562" cy="70.445" cx="65.538" style="fill:rgb(255, 255, 255)" ></ellipse>
<ellipse fill="#f5e6c8" ry="1.465" rx="2.562" cy="55.945" cx="66.313" style="fill:rgb(255, 255, 255)" ></ellipse>
<ellipse fill="#f5e6c8" ry="1.465" rx="2.562" cy="57.032" cx="24.087"  style="fill:rgb(255, 255, 255)" ></ellipse>
<ellipse fill="#f5e6c8" ry="1.465" rx="2.562" cy="64.198" cx="29.654" style="fill:rgb(255, 255, 255)" ></ellipse>
<ellipse fill="#f5e6c8" ry="2.562" rx="1.465" cy="30.35" cx="40.604"  style="fill:rgb(255, 255, 255)" ></ellipse>
<ellipse fill="#f5e6c8" ry="1.465" rx="2.562" cy="84.962" cx="41.628" style="fill:rgb(255, 255, 255)" ></ellipse>
<ellipse fill="#f5e6c8" ry="1.465" rx="2.562" cy="88.119" cx="31.665"  style="fill:rgb(255, 255, 255)" ></ellipse>
<ellipse fill="#f5e6c8" ry="2.562" rx="1.465" cy="37.218" cx="32.673" style="fill:rgb(255, 255, 255)" ></ellipse>
<ellipse fill="#f5e6c8" ry="2.562" rx="1.465" cy="76.44" cx="36.949" style="fill:rgb(255, 255, 255)" ></ellipse>
<ellipse fill="#f5e6c8" ry="2.562" rx="1.465" cy="44.87" cx="35.288" style="fill:rgb(255, 255, 255)" ></ellipse>
<ellipse fill="#f5e6c8" ry="2.562" rx="1.465" cy="76.44" cx="52.005" style="fill:rgb(255, 255, 255)" ></ellipse>
<ellipse fill="#f5e6c8" ry="1.465" rx="2.562" cy="68.957" cx="48.225" style="fill:rgb(255, 255, 255)" ></ellipse>
<ellipse fill="#f5e6c8" ry="1.465" rx="2.562" cy="48.6" cx="47.235" style="fill:rgb(255, 255, 255)" ></ellipse>
<ellipse fill="#f5e6c8" ry="1.465" rx="2.562" cy="63.576" cx="41.628" style="fill:rgb(255, 255, 255)" ></ellipse>
<ellipse fill="#f5e6c8" ry="1.465" rx="2.562" cy="64.198" cx="58.319" style="fill:rgb(255, 255, 255)" ></ellipse>
<ellipse fill="#f5e6c8" ry="2.562" rx="1.465" cy="43.283" cx="64.695" style="fill:rgb(255, 255, 255)" ></ellipse>
<ellipse fill="#f5e6c8" ry="2.562" rx="1.465" cy="53.338" cx="36.185"  style="fill:rgb(255, 255, 255)" ></ellipse>
<ellipse fill="#f5e6c8" ry="2.562" rx="1.465" cy="79.075" cx="16.544"  style="fill:rgb(255, 255, 255)" ></ellipse>
<ellipse fill="#f5e6c8" ry="1.465" rx="2.562" cy="49.392" cx="57.128" style="fill:rgb(255, 255, 255)" ></ellipse>
<ellipse fill="#f5e6c8" ry="1.465" rx="2.562" cy="82.289" cx="26.569" style="fill:rgb(255, 255, 255)" ></ellipse>
<ellipse fill="#f5e6c8" ry="1.465" rx="2.562" cy="65.522" cx="17.472" style="fill:rgb(255, 255, 255)" ></ellipse>
</svg>