<!-- <?xml version="1.0" encoding="utf-8"?> -->
<!-- <!DOCTYPE svg PUBLIC "-//W3C//DTD SVG 1.1//EN" "http://www.w3.org/Graphics/SVG/1.1/DTD/svg11.dtd"> -->
<svg 
xmlns="http://www.w3.org/2000/svg" 
xmlns:xlink="http://www.w3.org/1999/xlink" 
viewBox="0 0 1000 1000"  >
<g><g transform="translate(0.000000,511.000000) scale(0.100000,-0.100000)">
<path d="M4828.5,4737.8c-70.7-150-132.9-274.4-135-278.7c-4.3-2.1-139.3-25.7-302.3-49.3s-304.4-49.3-315.1-55.7c-42.9-25.7-10.7-70.7,199.4-280.8l216.5-218.6l-51.4-300.1c-40.7-242.2-45-306.5-23.6-328c21.4-21.4,81.5,2.1,304.4,117.9l278.7,145.8l278.7-145.8c222.9-115.8,283-139.3,304.4-117.9c21.4,21.4,17.1,85.7-23.6,328l-51.4,300.1l216.5,218.6c210.1,210.1,242.2,255.1,199.4,280.8c-12.9,8.6-570.2,98.6-610.9,98.6c-2.1,0-66.4,126.5-139.3,278.7C5070.7,4943.5,5030,5010,4997.9,5010C4967.8,5010,4927.1,4945.7,4828.5,4737.8z"/><path d="M3979.6,1886.8C3426.6,1196.5,2959.3,607,2937.9,577c-34.3-53.6-30-109.3,12.9-137.2c12.9-8.6,214.4-17.2,448-17.2c231.5,0,422.3-6.4,422.3-12.9c0-6.4-364.4-443.7-810.3-968.9c-971.1-1151.1-926-1095.4-926-1121.1c0-10.7,19.3-38.6,42.9-62.2c40.7-40.7,70.7-42.9,493-42.9h450.2l-900.3-1028.9c-495.2-565.9-900.3-1041.8-900.3-1059c0-17.1,15-47.1,34.3-64.3c30-30,203.6-34.3,1584.1-34.3h1552l6.4-377.2c6.4-343,10.7-379.4,47.2-407.3c62.2-45,949.6-45,1011.8,0c36.4,27.9,40.7,57.8,40.7,272.2v240.1l-321.5,135l-321.5,135.1l1879.9,2.1c1678.4,0,1882.1,4.3,1912.1,34.3c19.3,17.1,34.3,47.2,34.3,64.3c0,17.2-405.2,493-900.3,1059l-900.3,1028.9h450.2c422.3,0,452.3,2.1,493,42.9c23.6,23.6,42.9,51.5,42.9,64.3c0,21.4-42.9,75-1039.6,1251.9c-377.3,443.7-688.1,818.9-692.4,829.6c-4.3,10.7,167.2,19.3,418,19.3c233.6,0,435.1,8.6,448,17.2c42.9,27.9,47.2,83.6,12.9,137.2c-66.5,98.6-2049.3,2568-2062.1,2568C4993.6,3145.1,4534.8,2579.2,3979.6,1886.8z M5259.4,1768.9c175.8-60,282.9-207.9,282.9-390.1c0-158.6-85.7-295.8-231.5-370.9c-147.9-77.2-396.6-17.1-499.5,120.1C4573.4,1451.6,4886.4,1897.5,5259.4,1768.9z M4918.5-198.9c130.8-87.9,177.9-180.1,177.9-343c0-162.9-47.2-255.1-177.9-345.1c-113.6-77.2-328-72.9-448,6.4c-250.8,165.1-229.4,563.8,40.7,701C4633.4-117.5,4813.5-126.1,4918.5-198.9z M6061.1-1785.2c40.7-25.7,100.8-90,130.8-141.5c49.3-83.6,55.7-113.6,47.2-233.7c-6.4-113.6-19.3-152.2-72.9-216.5c-90-111.5-188.7-158.6-330.1-158.6c-439.4,0-559.5,585.2-160.8,776C5784.6-1708,5956-1718.8,6061.1-1785.2z M4198.3-2503.3c169.3-98.6,242.2-306.5,171.5-493c-122.2-319.4-559.5-358-733.1-62.2c-49.3,83.6-55.7,113.6-47.2,233.7c6.4,113.6,19.3,152.2,72.9,216.5C3795.3-2441.1,4018.2-2398.3,4198.3-2503.3z"/></g></g>
</svg>