<svg width="16" height="16" viewBox="0 0 16 16" fill="none" xmlns="http://www.w3.org/2000/svg">
<path d="M13.0026 13.5036L2.00024 2.50122" stroke="currentColor" stroke-width="1.00189" stroke-miterlimit="10" stroke-linecap="round"/>
<path d="M7.60622 3.08959C7.48135 3.02223 7.33987 2.99181 7.19835 3.00189C7.05682 3.01197 6.92109 3.06214 6.80702 3.14652L6.78638 3.16247L5.89428 3.89285C5.86721 3.915 5.84509 3.94256 5.82933 3.97378C5.81358 4.005 5.80454 4.03917 5.8028 4.07409C5.80106 4.10902 5.80666 4.14392 5.81924 4.17654C5.83182 4.20917 5.85109 4.2388 5.87582 4.26352L7.57525 5.96295C7.61025 5.99799 7.65486 6.02185 7.70342 6.03152C7.75199 6.0412 7.80234 6.03624 7.84809 6.01728C7.89384 5.99833 7.93293 5.96622 7.96043 5.92504C7.98792 5.88385 8.00257 5.83543 8.00254 5.78591V3.76867C8.00394 3.63025 7.96784 3.49402 7.89806 3.37446C7.82828 3.25489 7.72744 3.15645 7.60622 3.08959Z" fill="currentColor"/>
<path d="M7.85531 10.4801L3.02176 5.64782C2.92802 5.55401 2.80086 5.50128 2.66824 5.50122H1.74992C1.55096 5.50122 1.36016 5.58026 1.21947 5.72094C1.07879 5.86162 0.999756 6.05243 0.999756 6.25138V9.75215C0.999756 9.9511 1.07879 10.1419 1.21947 10.2826C1.36016 10.4233 1.55096 10.5023 1.74992 10.5023H3.93039L6.80602 12.8563C6.92144 12.9419 7.05912 12.9925 7.20254 13.0018C7.34597 13.0112 7.48906 12.979 7.61464 12.9091C7.73327 12.8415 7.83166 12.7434 7.89964 12.6249C7.96762 12.5065 8.00271 12.372 8.00128 12.2355V10.8333C8.0013 10.7009 7.94881 10.5739 7.85531 10.4801Z" fill="currentColor"/>
<path d="M11.0022 8.00273C11.0022 7.23475 10.8206 6.50586 10.4472 5.77415C10.4176 5.71518 10.3766 5.66264 10.3266 5.61957C10.2766 5.5765 10.2186 5.54374 10.1559 5.52318C10.0932 5.50263 10.0271 5.49468 9.96127 5.4998C9.89548 5.50492 9.83135 5.523 9.77258 5.553C9.71381 5.58301 9.66155 5.62434 9.61882 5.67463C9.57609 5.72491 9.54373 5.78315 9.5236 5.846C9.50347 5.90884 9.49597 5.97505 9.50154 6.0408C9.5071 6.10655 9.52562 6.17056 9.55603 6.22912C9.8559 6.81637 10.0016 7.39673 10.0016 8.00273C10.0016 8.08612 9.99839 8.17086 9.99192 8.25695C9.98925 8.29283 9.99435 8.32886 10.0069 8.36259C10.0194 8.39631 10.039 8.42694 10.0645 8.45239L10.5135 8.90142C10.5459 8.93392 10.5867 8.95688 10.6313 8.96776C10.6759 8.97864 10.7227 8.97703 10.7664 8.96311C10.8102 8.9492 10.8493 8.9235 10.8794 8.88885C10.9095 8.85419 10.9295 8.81192 10.9372 8.76665C10.9803 8.51428 11.002 8.25874 11.0022 8.00273Z" fill="currentColor"/>
<path d="M13.0028 8.00213C13.0028 6.40217 12.5939 5.37962 11.9343 4.2489C11.8665 4.13617 11.7571 4.05465 11.6297 4.022C11.5023 3.98936 11.3672 4.0082 11.2536 4.07446C11.14 4.14072 11.057 4.24906 11.0227 4.37603C10.9884 4.50299 11.0055 4.63836 11.0702 4.75283C11.6607 5.76507 12.0024 6.62132 12.0024 8.00213C12.0024 8.74708 11.8996 9.34261 11.7095 9.89812C11.6942 9.94241 11.6917 9.99009 11.7022 10.0357C11.7127 10.0814 11.7358 10.1232 11.7689 10.1563L12.1587 10.5468C12.1882 10.5763 12.2246 10.598 12.2646 10.6098C12.3046 10.6217 12.3469 10.6233 12.3877 10.6147C12.4284 10.606 12.4664 10.5873 12.4981 10.5602C12.5298 10.5331 12.5543 10.4985 12.5692 10.4596C12.8465 9.74525 13.0028 8.97935 13.0028 8.00213Z" fill="currentColor"/>
<path d="M15.0025 8.00182C15.0025 5.681 14.3714 4.21631 13.4237 2.73161C13.3523 2.61969 13.2394 2.54072 13.1098 2.51205C12.9802 2.48339 12.8445 2.50739 12.7326 2.57876C12.6207 2.65014 12.5417 2.76305 12.513 2.89265C12.4844 3.02225 12.5084 3.15794 12.5797 3.26985C13.434 4.6067 14.0022 5.92324 14.0022 8.00182C14.0022 9.44557 13.7387 10.5108 13.3011 11.4566C13.2797 11.503 13.273 11.5548 13.2819 11.6051C13.2908 11.6554 13.3148 11.7017 13.3508 11.7379L13.7234 12.1105C13.7516 12.1392 13.7862 12.1606 13.8245 12.173C13.8627 12.1854 13.9033 12.1884 13.9429 12.1818C13.9825 12.1752 14.02 12.1591 14.052 12.1349C14.0841 12.1108 14.1099 12.0792 14.1273 12.043C14.7399 10.7805 15.0025 9.5334 15.0025 8.00182Z" fill="currentColor"/>
</svg>
