<svg width="16" height="16" viewBox="0 0 16 16" fill="none" xmlns="http://www.w3.org/2000/svg">
<path d="M7.2516 13.0018C7.09181 13.0018 6.93623 12.9505 6.80776 12.8555C6.80062 12.8505 6.79373 12.8452 6.78713 12.8395L3.93088 10.5012H1.75041C1.55145 10.5012 1.36064 10.4222 1.21996 10.2815C1.07928 10.1408 1.00024 9.95 1.00024 9.75104V6.25028C1.00024 6.05132 1.07928 5.86052 1.21996 5.71983C1.36064 5.57915 1.55145 5.50012 1.75041 5.50012H3.93057L6.7865 3.1618C6.79311 3.15614 6.79999 3.15082 6.80713 3.14585C6.91885 3.06368 7.05116 3.01409 7.18937 3.00259C7.32757 2.99108 7.46626 3.01811 7.59003 3.08068C7.7138 3.14324 7.8178 3.23889 7.89048 3.357C7.96317 3.47511 8.00169 3.61105 8.00177 3.74974V12.2516C8.00177 12.4505 7.92273 12.6413 7.78205 12.782C7.64137 12.9227 7.45056 13.0018 7.2516 13.0018Z" fill="currentColor"/>
<path d="M10.0023 10.5025C9.91692 10.5025 9.83299 10.4806 9.75847 10.439C9.68396 10.3974 9.62133 10.3374 9.57655 10.2647C9.53178 10.192 9.50634 10.1091 9.50266 10.0239C9.49898 9.93859 9.51719 9.85379 9.55554 9.77754C9.85221 9.18764 10.0026 8.58962 10.0026 8.00159C10.0026 7.39575 9.8569 6.81554 9.55711 6.22814C9.49967 6.11031 9.49078 5.97465 9.53236 5.85033C9.57393 5.72602 9.66264 5.62299 9.77941 5.56342C9.89617 5.50385 10.0317 5.4925 10.1567 5.53181C10.2817 5.57111 10.3864 5.65794 10.4481 5.7736C10.821 6.5048 11.0026 7.23382 11.0026 8.00159C11.0026 8.74749 10.8151 9.49619 10.4493 10.2271C10.4076 10.3099 10.3438 10.3795 10.2648 10.4282C10.1859 10.4768 10.095 10.5025 10.0023 10.5025Z" fill="currentColor"/>
<path d="M11.5019 12.0012C11.4141 12.0012 11.3279 11.9781 11.2518 11.9342C11.1758 11.8904 11.1126 11.8272 11.0687 11.7512C11.0248 11.6752 11.0017 11.5889 11.0017 11.5011C11.0017 11.4133 11.0248 11.3271 11.0687 11.251C11.6598 10.2224 12.002 9.36032 12.002 8.00034C12.002 6.61972 11.6604 5.7636 11.07 4.7515C11.0052 4.63705 10.9881 4.5017 11.0224 4.37475C11.0568 4.24781 11.1397 4.13948 11.2533 4.07323C11.3669 4.00698 11.502 3.98814 11.6294 4.02078C11.7568 4.05343 11.8662 4.13493 11.9339 4.24764C12.5934 5.3782 13.0023 6.4003 13.0023 8.00034C13.0023 9.57662 12.594 10.6037 11.9355 11.7512C11.8915 11.8272 11.8283 11.8904 11.7522 11.9343C11.6761 11.9782 11.5898 12.0013 11.5019 12.0012Z" fill="currentColor"/>
<path d="M13.0026 13.5023C12.9126 13.5022 12.8242 13.4778 12.7468 13.4317C12.6695 13.3856 12.606 13.3194 12.5632 13.2402C12.5203 13.161 12.4996 13.0717 12.5033 12.9817C12.507 12.8917 12.5349 12.8044 12.5841 12.729C13.4355 11.4228 14.0028 10.119 14.0028 8.00108C14.0028 5.92251 13.4346 4.60597 12.581 3.26912C12.5456 3.2137 12.5215 3.15187 12.5101 3.08715C12.4986 3.02243 12.5001 2.95609 12.5142 2.89192C12.5284 2.82774 12.5551 2.76699 12.5928 2.71314C12.6305 2.65928 12.6784 2.61337 12.7338 2.57803C12.7892 2.54269 12.851 2.5186 12.9158 2.50716C12.9805 2.49571 13.0468 2.49713 13.111 2.51132C13.1752 2.52551 13.2359 2.55221 13.2898 2.58988C13.3436 2.62755 13.3895 2.67546 13.4249 2.73087C14.372 4.21557 15.003 5.67995 15.003 8.00108C15.003 10.025 14.5448 11.5528 13.4215 13.2754C13.376 13.345 13.3139 13.4023 13.2408 13.4419C13.1677 13.4815 13.0858 13.5023 13.0026 13.5023Z" fill="currentColor"/>
</svg>
