<?xml version="1.0" standalone="no"?>
<!DOCTYPE svg PUBLIC "-//W3C//DTD SVG 20010904//EN"
 "http://www.w3.org/TR/2001/REC-SVG-20010904/DTD/svg10.dtd">
<svg version="1.0" xmlns="http://www.w3.org/2000/svg"
 width="512.000000pt" height="512.000000pt" viewBox="0 0 512.000000 512.000000"
 preserveAspectRatio="xMidYMid meet">

<g transform="translate(0.000000,512.000000) scale(0.100000,-0.100000)"
fill="currentColor" stroke="none">
<path d="M2778 4739 c-286 -25 -537 -199 -668 -464 -59 -118 -80 -213 -80
-360 0 -153 21 -244 90 -381 199 -398 697 -565 1095 -367 190 95 334 248 412
438 81 195 74 450 -16 649 -95 210 -273 372 -491 448 -46 16 -234 51 -250 47
-3 -1 -44 -5 -92 -10z m276 -237 c193 -67 337 -215 398 -412 32 -104 32 -255
1 -355 -87 -274 -351 -460 -628 -442 -204 14 -376 111 -484 272 -74 111 -104
211 -104 350 -1 97 3 120 29 195 17 47 47 111 68 142 75 114 210 216 340 258
116 37 257 35 380 -8z"/>
<path d="M2838 4289 c-12 -7 -18 -22 -18 -49 0 -34 -3 -39 -28 -45 -80 -17
-132 -80 -132 -160 0 -73 31 -113 114 -146 l41 -17 3 -72 c2 -40 -1 -77 -5
-81 -5 -5 -37 -1 -72 9 -61 16 -63 16 -77 -3 -30 -41 -8 -68 74 -91 31 -8 63
-17 70 -19 6 -3 12 -16 12 -29 0 -16 9 -32 25 -42 23 -15 27 -15 50 0 17 11
25 26 25 45 0 24 6 30 40 40 86 26 141 106 126 185 -9 46 -59 96 -117 117
l-44 16 -3 83 -3 82 38 -7 c64 -14 84 -11 100 12 14 20 13 24 -10 47 -14 14
-42 28 -63 31 -61 10 -64 12 -64 44 0 50 -40 75 -82 50z m-18 -249 c0 -66 -13
-77 -50 -40 -25 25 -25 41 1 74 35 44 49 34 49 -34z m140 -215 c22 -11 30 -23
30 -42 0 -31 -26 -63 -52 -63 -15 0 -18 8 -18 60 0 33 2 60 5 60 4 0 19 -7 35
-15z"/>
<path d="M1244 3555 c-50 -11 -107 -44 -131 -75 -20 -24 -15 -55 27 -192 22
-72 40 -134 40 -138 0 -5 -40 -40 -88 -79 -96 -76 -207 -189 -261 -263 -37
-51 -14 -44 -270 -88 -130 -23 -167 -41 -201 -102 l-25 -43 0 -375 c0 -337 2
-378 17 -407 28 -50 86 -91 137 -99 25 -3 77 -14 116 -23 l69 -17 47 -82 c99
-171 236 -332 378 -442 39 -30 71 -59 71 -65 0 -5 15 -137 34 -292 36 -301 46
-337 100 -377 26 -20 41 -21 291 -21 252 0 265 1 292 21 46 34 63 77 83 200
10 64 20 118 22 120 2 1 21 -1 43 -6 217 -51 672 -61 910 -22 72 12 157 28
190 36 33 8 61 13 63 11 2 -2 10 -58 18 -125 16 -133 35 -185 81 -216 25 -17
52 -19 258 -22 276 -4 305 -1 345 39 40 40 49 78 105 441 l48 307 101 103
c211 215 336 463 365 723 8 64 13 79 32 92 53 35 160 158 189 217 75 154 51
284 -52 277 -9 0 -46 -39 -82 -86 -37 -46 -76 -91 -88 -99 -21 -15 -22 -14
-43 52 -101 314 -370 619 -720 814 l-85 48 -82 -86 c-133 -138 -297 -235 -483
-286 -104 -29 -315 -35 -429 -14 -158 30 -272 78 -404 169 -98 68 -226 205
-287 309 l-51 85 -79 -23 c-44 -12 -113 -34 -154 -48 l-74 -26 -56 59 c-95
100 -215 142 -327 116z m248 -770 c39 -26 78 -95 78 -138 0 -33 -24 -94 -48
-121 -23 -26 -90 -56 -126 -56 -51 0 -114 38 -141 84 -49 84 -27 179 54 233
49 33 133 32 183 -2z"/>
</g>
</svg>
