<?xml version="1.0" standalone="no"?>
<!DOCTYPE svg PUBLIC "-//W3C//DTD SVG 20010904//EN"
 "http://www.w3.org/TR/2001/REC-SVG-20010904/DTD/svg10.dtd">
<svg version="1.0" xmlns="http://www.w3.org/2000/svg"
 width="225.000000pt" height="225.000000pt" viewBox="0 0 225.000000 225.000000"
 preserveAspectRatio="xMidYMid meet">

<g transform="translate(0.000000,225.000000) scale(0.100000,-0.100000)"
fill="currentColor" stroke="none">
<path d="M433 2140 c-67 -40 -63 18 -63 -1015 0 -1033 -4 -975 63 -1015 31
-19 54 -20 535 -20 l502 0 0 151 c0 245 13 259 253 259 l157 0 0 780 c0 862 3
820 -63 860 -31 19 -55 20 -692 20 -637 0 -661 -1 -692 -20z m1084 -552 c29
-27 29 -65 1 -95 l-21 -23 -374 0 c-360 0 -374 1 -393 20 -26 26 -25 68 2 97
l21 23 371 0 c366 0 370 0 393 -22z m3 -348 c27 -27 25 -66 -5 -95 l-24 -25
-364 0 c-353 0 -365 1 -391 21 -32 25 -35 70 -6 99 19 19 33 20 395 20 362 0
376 -1 395 -20z m-6 -341 c32 -25 35 -70 6 -99 -19 -19 -33 -20 -395 -20 -362
0 -376 1 -395 20 -29 29 -26 74 6 99 26 20 38 21 389 21 351 0 363 -1 389 -21z"/>
<path d="M1610 223 l0 -138 135 135 c74 74 135 136 135 137 0 2 -61 3 -135 3
l-135 0 0 -137z"/>
</g>
</svg>
