<?xml version="1.0" standalone="no"?>
<!DOCTYPE svg PUBLIC "-//W3C//DTD SVG 20010904//EN"
 "http://www.w3.org/TR/2001/REC-SVG-20010904/DTD/svg10.dtd">
<svg version="1.0" xmlns="http://www.w3.org/2000/svg"
 width="220.000000pt" height="401.000000pt" viewBox="0 0 220.000000 401.000000"
 preserveAspectRatio="xMidYMid meet">

<g transform="translate(0.000000,401.000000) scale(0.100000,-0.100000)"
fill="currentColor" stroke="none">
<path d="M0 2005 l0 -2005 1100 0 1100 0 0 2005 0 2005 -1100 0 -1100 0 0
-2005z m1125 1765 c-3 -5 3 -10 14 -10 12 0 21 6 22 13 0 6 4 2 9 -9 11 -27
58 -37 87 -18 49 31 89 4 117 -79 19 -55 20 -71 6 -62 -5 3 -10 15 -10 25 0
11 -11 27 -24 35 -13 9 -26 26 -30 38 -4 16 -8 19 -17 10 -9 -9 -6 -19 10 -41
11 -17 21 -36 21 -44 0 -13 36 -78 49 -88 4 -3 12 -16 19 -30 7 -14 20 -38 29
-55 13 -23 14 -37 6 -67 -6 -20 -6 -35 -2 -32 5 3 9 -5 9 -18 0 -18 -2 -20
-10 -8 -8 13 -10 12 -11 -5 -3 -34 2 -70 12 -79 16 -18 10 -24 -23 -23 -30 2
-33 5 -34 37 0 19 -4 44 -9 55 -8 18 -7 19 8 6 23 -18 31 -8 30 34 -1 22 3 33
9 29 7 -5 8 6 4 32 -4 21 -12 41 -17 42 -5 2 -7 8 -3 13 3 5 0 9 -5 9 -6 0
-11 -8 -11 -18 0 -10 -9 -27 -19 -39 -10 -11 -21 -29 -23 -39 -2 -13 -13 -20
-33 -22 -34 -4 -51 -23 -65 -75 -9 -31 -8 -42 3 -55 12 -14 12 -21 1 -42 -10
-19 -14 -20 -14 -7 0 9 -5 17 -11 17 -7 0 -8 -7 -4 -17 4 -10 11 -34 15 -54 6
-35 6 -36 -24 -36 -16 0 -32 -5 -34 -11 -2 -6 -10 -8 -19 -5 -10 4 -14 2 -10
-4 4 -6 21 -16 38 -22 27 -9 32 -8 36 7 3 11 15 19 33 20 24 2 28 -1 23 -15
-5 -13 -2 -15 11 -10 10 4 22 7 27 7 5 0 8 3 7 8 0 4 2 15 6 25 9 19 38 24 35
5 -3 -27 2 -33 30 -34 24 -1 30 4 38 30 6 20 15 30 25 28 10 -1 18 6 21 20 4
20 4 19 6 -5 0 -15 9 -40 19 -54 13 -21 14 -25 2 -18 -12 7 -13 6 -4 -6 6 -8
16 -33 23 -55 11 -35 11 -45 0 -61 -14 -19 -15 -19 -33 -1 -11 10 -14 18 -8
18 8 0 9 7 2 26 -6 14 -10 38 -10 54 0 16 -5 32 -11 35 -16 11 -18 2 -10 -40
5 -22 11 -68 15 -101 5 -60 5 -62 -20 -67 -18 -3 -24 -1 -20 9 3 7 0 16 -6 20
-6 4 -8 3 -4 -4 3 -6 2 -13 -3 -16 -11 -7 -35 49 -26 63 6 10 -17 15 -55 13
-8 0 -17 4 -21 9 -3 5 -15 -1 -26 -13 -19 -21 -20 -28 -11 -75 11 -53 45 -103
71 -103 8 0 19 10 26 23 10 18 11 13 6 -35 -3 -39 -1 -61 8 -70 7 -7 12 -30
10 -53 -1 -25 4 -46 14 -57 20 -22 27 -22 48 -2 12 13 14 27 9 63 l-7 46 21
-23 c11 -13 27 -33 36 -45 l15 -22 0 22 c1 12 -3 25 -9 28 -17 10 -11 25 10
25 15 0 20 7 20 25 0 14 5 24 12 22 6 -1 14 12 18 30 6 26 3 36 -16 52 -13 12
-24 18 -24 13 -1 -4 -7 8 -15 27 -18 40 -20 79 -3 44 7 -14 20 -23 33 -23 19
0 29 -16 64 -99 22 -55 41 -107 41 -115 0 -8 5 -18 10 -21 6 -3 10 -17 10 -30
0 -13 8 -31 17 -41 10 -9 18 -29 19 -43 1 -14 3 -28 4 -31 1 -3 2 -26 2 -52 0
-42 1 -46 15 -33 8 8 17 15 20 15 4 0 3 -3 0 -7 -4 -3 0 -11 7 -17 8 -6 17
-22 21 -36 6 -20 5 -23 -6 -12 -7 6 -16 12 -20 12 -10 0 -20 -46 -13 -64 8
-20 24 -21 24 -2 0 19 37 27 51 10 6 -8 15 -29 19 -47 4 -17 11 -31 17 -30 6
1 10 -14 9 -34 -1 -22 4 -38 12 -41 11 -3 12 0 3 17 -9 17 -9 20 3 15 8 -3 16
-15 19 -27 3 -12 9 -32 12 -44 5 -15 3 -23 -4 -23 -7 0 -10 4 -6 9 9 16 -13
23 -35 11 -16 -8 -19 -15 -11 -24 8 -10 5 -16 -12 -23 -20 -9 -26 -7 -37 10
-9 15 -10 22 -1 25 18 6 13 51 -8 78 l-20 25 4 -50 c4 -46 3 -51 -15 -51 -23
0 -23 0 -10 34 5 14 5 28 1 30 -5 3 -11 19 -14 34 -4 18 -14 31 -26 35 -22 5
-27 -3 -12 -18 5 -6 14 -41 20 -80 9 -63 9 -71 -9 -87 -15 -14 -24 -16 -45 -8
-14 5 -24 14 -20 20 3 5 12 7 20 4 23 -9 39 37 28 83 -6 28 -14 39 -31 41 -12
2 -22 -2 -22 -9 0 -8 -4 -8 -15 1 -24 20 -27 7 -16 -56 10 -51 9 -60 -8 -78
-10 -12 -21 -33 -25 -48 -5 -22 -2 -28 24 -40 33 -14 39 -32 14 -42 -11 -4
-14 -13 -11 -28 5 -16 3 -18 -6 -9 -9 9 -8 16 1 32 8 12 11 24 7 27 -3 4 -10
0 -15 -8 -7 -10 -10 -11 -10 -2 0 22 -20 12 -20 -10 -1 -23 -1 -23 -16 -3 -17
23 -14 51 7 47 8 -2 11 0 7 4 -4 4 -2 14 5 22 10 13 9 15 -5 9 -26 -9 -22 9 7
36 23 20 24 26 14 54 -12 35 -35 49 -54 33 -9 -8 -14 -6 -18 4 -7 19 -47 17
-47 -2 0 -8 -6 -12 -15 -8 -9 3 -15 0 -15 -8 0 -8 -9 -16 -20 -19 -11 -3 -20
-4 -20 -2 0 2 -3 10 -6 18 -3 9 2 16 14 19 10 3 19 14 20 24 5 43 1 79 -9 89
-7 6 -9 6 -7 0 2 -6 -8 -21 -21 -34 -17 -17 -22 -30 -17 -52 3 -16 1 -29 -4
-29 -6 0 -10 -15 -10 -32 -1 -33 -29 -78 -49 -78 -7 0 -7 9 0 30 6 17 15 30
20 30 12 0 12 37 0 44 -5 4 -7 -3 -4 -14 3 -11 0 -20 -6 -20 -15 0 -14 35 2
49 8 6 17 7 22 3 4 -4 1 4 -8 18 -14 23 -14 27 3 48 10 12 23 22 29 22 16 0
14 15 -9 55 l-20 36 30 44 c32 47 38 64 16 46 -11 -9 -15 -6 -18 13 -3 14 -1
31 4 38 7 10 8 8 4 -4 -3 -12 0 -18 9 -18 9 0 15 9 15 21 0 15 4 19 15 15 8
-3 21 -9 29 -12 22 -9 38 29 26 60 -5 14 -14 26 -19 26 -5 0 -16 3 -25 6 -11
4 -16 1 -16 -11 0 -30 -25 -9 -28 23 -2 18 -8 32 -13 32 -6 0 -7 6 -4 13 4 6
-1 3 -9 -7 -9 -11 -16 -16 -16 -11 0 5 -6 0 -14 -11 -8 -10 -18 -15 -22 -11
-5 4 -2 12 6 17 12 8 12 10 -3 16 -9 3 -24 4 -32 1 -8 -4 -17 -2 -21 4 -9 16
-34 -10 -34 -37 0 -12 -4 -25 -9 -28 -10 -6 -3 -54 9 -61 5 -3 6 4 3 15 -3 13
0 20 8 20 22 0 42 -17 35 -28 -11 -19 5 -41 37 -48 24 -5 27 -8 15 -15 -20
-11 -22 -78 -2 -86 10 -4 11 -8 1 -18 -7 -7 -16 -10 -22 -7 -5 3 -4 -1 3 -10
10 -12 10 -18 -2 -27 -19 -16 -29 -54 -11 -47 9 3 15 -7 20 -31 6 -33 3 -40
-31 -72 -21 -20 -33 -29 -27 -21 7 9 10 46 8 90 -4 90 -2 85 -18 72 -18 -15
-51 10 -34 27 9 9 9 14 -3 21 -21 13 -34 -4 -22 -27 9 -14 5 -24 -16 -46 -21
-22 -24 -30 -13 -36 7 -5 10 -14 7 -20 -4 -6 -3 -11 3 -11 5 0 15 8 20 18 11
17 12 15 14 -28 1 -14 8 -25 16 -25 18 0 26 -21 12 -30 -6 -3 -11 -15 -11 -26
0 -10 -4 -19 -10 -19 -5 0 -10 17 -10 39 0 40 -20 68 -41 56 -6 -4 -15 -1 -20
6 -4 7 -4 16 1 19 4 3 6 17 3 32 -4 21 -10 25 -30 23 -13 -1 -29 -7 -35 -13
-13 -13 -17 -73 -4 -65 4 3 5 -5 1 -17 -14 -43 -13 -70 2 -70 9 0 13 -6 10
-15 -4 -8 -2 -17 3 -20 6 -4 10 1 10 9 0 18 23 21 50 6 13 -7 21 -7 25 0 10
17 35 -8 35 -35 0 -46 -61 -64 -85 -26 -9 16 -25 3 -18 -14 3 -8 1 -15 -5 -15
-12 0 -24 29 -16 41 8 13 -10 11 -25 -3 -10 -10 -15 -10 -18 -2 -2 7 -13 10
-24 7 -14 -4 -19 -1 -18 13 1 11 1 26 1 35 -2 19 -49 43 -57 29 -10 -17 -19
-11 -38 23 l-19 32 -19 -24 c-25 -30 -24 -35 6 -51 18 -10 24 -20 21 -36 -3
-12 -1 -25 2 -29 9 -8 9 -75 0 -75 -3 0 -9 6 -11 13 -3 7 -6 5 -6 -5 -1 -16
10 -23 32 -19 4 0 7 -6 7 -14 0 -8 -7 -15 -15 -15 -8 0 -15 -4 -15 -10 0 -5
-9 -10 -21 -10 -11 0 -18 4 -15 9 3 5 -1 12 -10 15 -8 3 -12 10 -9 16 3 5 1
10 -4 10 -6 0 -11 -12 -11 -26 0 -14 -3 -23 -7 -21 -5 3 -8 25 -8 49 0 33 -5
48 -23 63 -41 34 -56 50 -81 83 -13 18 -26 30 -29 27 -3 -3 4 -16 17 -28 13
-15 19 -30 15 -40 -4 -12 -1 -17 14 -17 21 0 37 -26 22 -35 -6 -4 -10 -1 -10
5 0 7 -7 5 -16 -4 -11 -12 -14 -25 -9 -47 5 -22 4 -29 -4 -25 -6 4 -11 2 -11
-3 0 -6 -5 -11 -11 -11 -5 0 -7 5 -4 10 4 6 4 19 0 28 -6 16 -7 16 -17 -1 -7
-14 -5 -28 8 -55 11 -21 22 -38 27 -40 4 -2 7 -8 7 -13 0 -6 -5 -7 -11 -3 -8
4 -9 0 -4 -15 4 -12 2 -21 -4 -21 -6 0 -12 8 -13 18 0 9 -2 22 -3 27 -2 6 -4
19 -5 30 l-1 20 -9 -20 c-10 -23 -13 -14 -10 33 1 26 -2 32 -18 32 -16 0 -21
9 -26 45 -9 60 -1 81 34 94 32 11 43 44 13 39 -12 -2 -20 7 -26 30 -6 20 -16
32 -27 32 -22 0 -35 -30 -18 -42 42 -28 43 -29 30 -34 -6 -3 -10 -10 -6 -15 3
-5 0 -9 -5 -9 -6 0 -11 9 -11 19 0 10 -7 22 -16 25 -13 5 -15 2 -11 -14 6 -24
-15 -27 -33 -5 -17 20 -25 19 -52 -8 -13 -12 -21 -21 -19 -19 3 1 10 -12 16
-30 6 -18 16 -32 23 -30 7 1 12 -4 12 -10 0 -10 2 -10 8 -1 5 8 14 7 31 -6 22
-17 23 -20 9 -40 -10 -14 -18 -18 -23 -12 -3 6 -1 11 6 11 8 0 8 4 -1 15 -7 9
-15 13 -18 10 -8 -8 -10 -45 -3 -45 3 0 7 -17 9 -37 1 -21 7 -42 14 -48 8 -7
9 -5 5 8 -4 9 -2 17 3 17 4 0 8 -20 7 -45 -2 -34 3 -50 20 -66 l22 -22 19 22
18 23 16 -24 c9 -14 23 -41 32 -61 8 -21 20 -37 25 -37 6 0 11 -6 11 -13 0 -8
-7 -14 -15 -14 -8 0 -12 4 -9 9 3 4 -1 8 -9 8 -16 0 -27 21 -27 52 0 10 -7 26
-15 34 -13 14 -16 12 -26 -10 -9 -20 -9 -29 1 -41 11 -13 9 -15 -13 -15 -30 0
-43 16 -28 34 7 9 5 16 -7 27 -32 27 -48 34 -29 12 23 -26 22 -36 -3 -21 -11
7 -20 18 -20 24 0 12 -42 34 -65 34 -21 0 -19 -14 5 -35 11 -10 20 -28 20 -39
-1 -21 -1 -21 -15 -2 -15 19 -15 19 -15 -2 0 -23 39 -55 60 -50 9 2 14 -11 15
-40 1 -50 -12 -51 -37 -1 -10 19 -18 30 -18 25 0 -23 -29 19 -35 52 -4 20 -12
46 -18 57 -6 11 -10 26 -9 32 2 8 -6 12 -19 10 -16 -1 -27 7 -38 25 -20 35 -7
48 18 17 23 -28 36 -21 27 16 -5 18 -13 25 -31 25 -23 0 -25 4 -24 48 0 62 -5
82 -21 92 -8 5 -11 12 -7 16 7 8 -30 54 -44 54 -4 0 -12 -12 -17 -27 -8 -22
-11 -23 -11 -8 0 29 24 68 44 71 13 2 16 -3 10 -23 -5 -23 -4 -25 20 -19 22 6
25 3 25 -18 0 -31 27 -41 51 -20 19 17 26 46 12 42 -5 -2 -19 5 -32 14 -19 14
-22 20 -12 31 6 8 10 25 9 38 -2 19 1 23 17 20 20 -3 20 -3 1 18 -22 24 -14
41 11 25 16 -10 22 -40 24 -121 1 -24 19 -33 19 -10 0 21 45 40 75 33 25 -6
26 -6 11 9 -9 9 -16 23 -16 30 0 7 -8 21 -17 31 -12 12 -14 19 -6 21 7 3 9 11
6 20 -3 8 -1 18 5 22 9 5 9 15 1 37 -8 21 -8 37 1 59 7 17 12 46 12 65 -1 19
1 28 4 20 3 -8 12 -29 20 -47 17 -38 17 -43 2 -43 -14 0 -19 -142 -6 -156 5
-4 8 -16 8 -26 0 -10 5 -18 11 -18 5 0 8 4 5 9 -3 5 1 14 9 21 20 16 19 27 -2
33 -16 4 -16 6 3 12 15 5 20 15 21 41 1 20 8 43 17 53 21 23 20 32 -1 24 -16
-6 -16 -4 1 16 15 16 17 24 8 33 -9 9 -12 7 -12 -7 -1 -19 -2 -19 -19 2 -10
12 -21 19 -25 16 -3 -4 -6 -1 -6 6 0 6 6 14 14 17 8 3 12 12 9 20 -4 10 0 12
11 8 18 -7 19 -4 10 20 -3 9 -11 13 -17 9 -21 -13 -67 -11 -67 3 0 7 6 11 13
8 7 -2 23 4 35 14 25 22 29 37 7 28 -9 -3 -15 0 -15 8 0 8 7 12 18 10 22 -5
53 15 35 23 -19 7 -15 23 4 16 11 -4 14 -3 9 5 -4 7 -2 12 4 12 8 0 10 9 6 24
-4 15 -1 26 7 29 6 2 8 8 4 13 -4 5 -11 4 -15 -2 -15 -22 -40 -22 -61 0 -12
12 -21 28 -21 34 0 7 -5 12 -11 12 -6 0 -9 7 -5 15 3 8 2 15 -3 15 -5 0 -12
-20 -15 -45 -4 -24 -11 -47 -17 -50 -5 -4 -9 -15 -9 -26 0 -11 -7 -19 -16 -19
-13 0 -15 7 -9 38 3 20 13 42 21 48 8 7 14 28 14 53 0 54 27 178 46 213 8 14
15 45 17 67 1 22 6 43 9 47 4 3 2 15 -5 25 -12 19 1 54 44 119 10 14 20 55 23
92 6 65 24 133 25 96 1 -9 5 -18 11 -20 13 -4 -41 -183 -71 -234 -23 -38 -24
-51 -4 -70 13 -14 15 -13 17 3 0 10 0 26 0 36 -1 10 5 20 13 23 8 3 17 22 21
42 4 21 11 43 17 50 5 6 7 24 4 40 -3 16 0 35 9 46 15 21 16 21 33 -12 6 -12
23 -29 36 -38 22 -14 26 -14 40 -1 8 9 15 20 15 26 0 15 17 14 23 -1 4 -8 6
-7 6 4 1 9 7 19 14 21 7 3 5 6 -5 6 -10 1 -18 9 -18 18 0 9 -3 14 -6 11 -3 -4
-18 -2 -34 2 -20 6 -27 5 -24 -3 2 -7 -5 -18 -15 -24 -17 -11 -21 -9 -26 8 -4
11 -4 32 -1 46 5 16 3 22 -3 18 -7 -3 -8 0 -5 9 4 11 0 16 -15 16 -12 0 -21 5
-21 10 0 6 5 10 11 10 7 0 18 8 25 18 12 15 15 15 24 2 5 -8 7 -23 4 -32 -3
-10 -1 -26 5 -35 10 -17 11 -15 15 14 0 7 4 13 9 13 4 0 11 0 17 0 5 0 6 -8 3
-17 -6 -15 -5 -16 9 -3 11 11 13 19 6 28 -6 6 -6 12 -1 12 15 0 13 38 -3 51
-20 17 -31 2 -15 -22 7 -12 10 -24 6 -27 -3 -4 -10 0 -14 7 -5 8 -14 10 -21 6
-9 -5 -11 -4 -6 4 4 6 2 18 -4 26 -9 11 -10 19 -1 28 12 15 5 27 -16 27 -7 0
-13 -7 -13 -16 0 -8 -4 -13 -9 -10 -5 4 -12 -7 -16 -24 -9 -41 -26 -38 -22 5
1 20 7 35 15 35 6 0 12 11 12 25 0 14 -6 25 -12 26 -10 0 -10 2 0 6 6 2 12 18
12 33 0 29 34 128 50 144 12 12 -1 -76 -13 -93 -17 -20 -17 -42 -1 -73 15 -29
27 -39 18 -13 -5 11 1 15 21 15 21 0 26 4 21 16 -4 9 -1 23 5 30 7 9 8 14 1
14 -6 0 -12 -5 -14 -12 -5 -15 -28 -1 -28 16 0 16 70 28 85 15 5 -6 2 -9 -9
-9 -12 0 -16 -5 -12 -15 3 -8 2 -15 -2 -15 -4 0 -9 -11 -10 -25 -2 -22 1 -24
23 -15 16 6 25 6 25 0 0 -12 30 -13 47 -2 17 11 4 55 -14 48 -24 -10 3 28 31
44 19 10 23 16 14 21 -12 7 -32 5 -80 -8 -12 -3 -7 6 13 27 18 18 29 37 25 45
-4 12 6 15 59 15 35 0 67 -5 70 -10 10 -16 123 -10 129 6 3 8 8 14 11 14 4 0
3 -4 0 -10z m259 -572 c14 -19 13 -23 -7 -49 -25 -32 -37 -36 -37 -14 0 8 -5
24 -12 34 -9 15 -9 23 1 35 18 22 37 20 55 -6z m135 -404 c24 -17 28 -44 6
-44 -8 0 -17 -11 -21 -25 -6 -26 -29 -34 -37 -12 -2 6 1 19 6 29 8 11 7 28 -1
56 -17 57 -15 71 7 39 10 -15 28 -35 40 -43z m-963 -204 c13 0 14 -3 4 -15
-19 -23 -49 -19 -43 5 3 12 0 20 -6 20 -15 0 -4 -88 13 -109 9 -12 8 -12 -10
-3 -13 7 -24 28 -32 60 -9 41 -8 55 5 85 l17 36 17 -40 c11 -23 25 -39 35 -39z
m-109 -36 c9 17 10 17 16 -3 3 -12 2 -19 -3 -16 -4 3 -11 -7 -14 -20 -4 -14
-10 -23 -15 -21 -5 3 -12 -18 -15 -47 -6 -40 -4 -54 7 -61 21 -13 -35 -60 -62
-51 -16 5 -17 9 -7 30 12 28 26 33 26 10 0 -8 7 -15 16 -15 11 0 14 5 10 16
-3 9 -6 20 -6 26 0 6 -6 8 -14 5 -11 -5 -9 10 10 59 13 35 24 74 25 87 0 20 1
21 8 2 7 -18 8 -18 18 -1z m28 -84 c-4 -11 -11 -18 -16 -15 -11 8 -11 -2 0
-43 10 -32 6 -38 -14 -24 -17 11 -17 68 0 82 8 7 15 22 15 34 1 19 2 19 11 3
6 -9 7 -26 4 -37z m852 27 c-6 -20 -27 -19 -27 2 0 14 5 19 15 14 9 -3 14 -10
12 -16z m-872 -167 c3 -5 2 -10 -4 -10 -5 0 -13 5 -16 10 -3 6 -2 10 4 10 5 0
13 -4 16 -10z m-95 -29 c0 -11 -5 -32 -10 -47 -16 -42 -32 -16 -18 29 12 40
28 50 28 18z m54 8 c-4 -7 0 -9 14 -5 19 6 20 5 9 -19 -11 -23 -13 -23 -24 -8
-16 21 -17 43 -2 43 5 0 7 -5 3 -11z m9 -90 c3 -13 1 -19 -6 -16 -15 5 -22 37
-9 37 5 0 12 -9 15 -21z m-96 -30 c0 -19 -10 -42 -24 -57 -12 -14 -23 -19 -23
-13 0 7 7 20 16 28 12 13 13 18 2 24 -10 6 -8 12 7 28 11 11 20 20 21 20 0 1
1 -13 1 -30z m133 21 c0 -5 -5 -10 -11 -10 -5 0 -7 5 -4 10 3 6 8 10 11 10 2
0 4 -4 4 -10z m-30 -100 c0 -5 -5 -10 -11 -10 -5 0 -7 5 -4 10 3 6 8 10 11 10
2 0 4 -4 4 -10z m1068 -72 c1 -28 6 -45 17 -51 15 -8 15 -10 -3 -23 -11 -7
-23 -28 -27 -46 -7 -29 -9 -30 -12 -10 -3 13 0 37 6 54 7 20 8 34 2 38 -12 7
-11 51 2 68 14 18 15 16 15 -30z m421 11 c-6 -12 -8 -34 -5 -50 4 -22 0 -32
-17 -44 -27 -19 -37 -19 -37 0 0 7 -8 18 -17 24 -14 8 -11 11 21 16 30 6 37
11 33 26 -3 11 -1 19 4 19 5 0 9 7 9 15 0 8 5 15 10 15 7 0 7 -7 -1 -21z
m-951 -14 c-3 -3 -13 -2 -22 1 -14 5 -15 9 -4 15 13 8 36 -6 26 -16z m831 11
c9 -10 8 -15 -3 -19 -14 -5 -36 10 -36 25 0 13 27 9 39 -6z m-1259 -41 c0 -5
-5 -3 -10 5 -5 8 -10 20 -10 25 0 6 5 3 10 -5 5 -8 10 -19 10 -25z m855 5 c3
-5 1 -10 -4 -10 -6 0 -11 5 -11 10 0 6 2 10 4 10 3 0 8 -4 11 -10z m409 -47
c-10 -15 -20 -30 -22 -33 -3 -5 -22 21 -22 32 0 4 6 5 14 2 8 -3 19 4 26 16 6
12 14 19 17 17 2 -3 -3 -18 -13 -34z m-84 -23 c6 0 10 7 10 16 0 9 5 12 12 8
7 -5 2 -15 -18 -31 -29 -23 -54 -30 -54 -15 0 4 6 14 13 21 9 10 9 15 0 18 -7
2 -9 11 -6 20 5 12 9 10 20 -11 7 -14 18 -26 23 -26z m-1471 -21 c14 -52 11
-69 -6 -47 -12 16 -24 98 -14 98 4 0 13 -23 20 -51z m1142 14 c-10 -17 -10
-16 -11 3 0 23 13 41 18 25 2 -6 -1 -18 -7 -28z m-306 -16 c4 5 5 -6 2 -24 -5
-23 -2 -37 11 -50 15 -15 15 -16 0 -11 -10 4 -19 1 -22 -8 -3 -9 -10 -12 -16
-9 -7 4 -7 12 0 25 15 28 12 48 -10 70 -27 27 -25 34 3 15 13 -8 27 -12 32 -8z
m35 13 c0 -5 -4 -10 -10 -10 -5 0 -10 5 -10 10 0 6 5 10 10 10 6 0 10 -4 10
-10z m-818 -40 c6 0 8 -3 5 -6 -12 -12 -36 17 -29 34 6 14 7 13 10 -5 2 -13 8
-23 14 -23z m658 30 c0 -5 -2 -10 -4 -10 -3 0 -8 5 -11 10 -3 6 -1 10 4 10 6
0 11 -4 11 -10z m457 -12 c-3 -8 -6 -5 -6 6 -1 11 2 17 5 13 3 -3 4 -12 1 -19z
m473 9 c0 -7 -11 -29 -25 -49 -14 -20 -25 -41 -25 -47 0 -19 -16 -19 -17 0 -1
10 2 19 8 19 5 0 9 7 9 16 0 9 -5 12 -12 8 -7 -4 -5 2 5 13 9 11 17 24 17 30
0 11 15 20 33 22 4 1 7 -5 7 -12z m-496 -24 c4 -9 2 -21 -4 -27 -7 -7 -10 -6
-10 3 0 11 -3 11 -15 1 -12 -10 -15 -10 -15 2 0 15 19 38 31 38 4 0 10 -8 13
-17z m156 -7 c0 -8 -5 -18 -10 -21 -6 -4 -10 -12 -9 -18 4 -30 -2 -57 -12 -57
-5 0 -7 5 -4 10 3 6 1 10 -4 10 -17 0 -13 51 6 72 19 22 33 23 33 4z m225 4
c-3 -5 -13 -10 -21 -10 -8 0 -12 5 -9 10 3 6 13 10 21 10 8 0 12 -4 9 -10z
m-1165 -34 c0 -10 -28 -7 -35 4 -11 18 5 31 21 16 8 -8 14 -17 14 -20z m1120
15 c0 -5 -7 -12 -16 -15 -14 -5 -15 -4 -4 9 14 17 20 19 20 6z m66 -27 c-4 -9
-9 -15 -11 -12 -3 3 -3 13 1 22 4 9 9 15 11 12 3 -3 3 -13 -1 -22z m-1523 -21
c3 -10 8 -36 11 -58 l6 -40 -20 45 c-10 25 -19 51 -19 58 -1 18 17 14 22 -5z
m477 2 c0 -8 -4 -15 -8 -15 -5 0 -9 7 -9 15 0 8 4 15 9 15 4 0 8 -7 8 -15z
m276 -14 c-3 -4 1 -17 9 -27 12 -16 17 -17 34 -6 20 11 21 10 19 -20 -4 -50
-38 -66 -58 -27 -10 19 -10 20 9 10 12 -7 22 -8 26 -1 3 5 -10 16 -30 24 -25
11 -35 21 -33 33 1 10 -1 24 -6 31 -7 11 -4 12 13 2 12 -6 19 -15 17 -19z
m554 21 c0 -5 -6 -17 -14 -28 -19 -25 -31 -12 -14 15 13 21 28 28 28 13z
m-413 -17 c-5 -16 -37 -18 -37 -3 0 8 9 14 20 14 11 0 19 -5 17 -11z m603 -1
c0 -10 6 -14 15 -10 9 3 15 0 15 -10 0 -8 5 -12 11 -8 7 4 6 -3 -2 -17 l-13
-24 -7 25 c-4 14 -8 21 -8 15 -1 -5 -5 -4 -10 3 -6 10 -10 7 -15 -12 -3 -14
-10 -26 -15 -26 -11 0 -2 38 10 45 4 3 6 12 2 20 -3 8 0 15 6 15 6 0 11 -7 11
-16z m-950 -4 c0 -5 -7 -7 -15 -4 -8 4 -15 8 -15 10 0 2 7 4 15 4 8 0 15 -4
15 -10z m74 -3 c16 -12 16 -13 -3 -14 -10 -1 -22 5 -25 13 -7 17 5 18 28 1z
m509 -10 c4 3 7 -1 7 -9 0 -9 -6 -19 -12 -22 -7 -3 -1 -4 15 -1 16 3 27 1 27
-5 0 -6 -5 -8 -12 -4 -7 5 -9 0 -6 -14 5 -18 3 -20 -10 -13 -10 5 -25 7 -34 6
-10 -2 -18 1 -18 6 0 5 -4 9 -10 9 -10 0 -26 -47 -22 -67 1 -6 -3 -15 -9 -19
-8 -4 -9 -3 -5 4 4 7 2 12 -4 12 -6 0 -13 -7 -16 -15 -4 -8 -12 -15 -19 -15
-7 0 -15 -4 -17 -8 -1 -5 -20 -12 -41 -15 -23 -4 -35 -2 -31 4 3 5 1 16 -5 23
-8 9 -8 21 -2 37 9 23 10 22 10 -8 1 -33 15 -51 26 -33 4 6 18 15 31 20 15 6
24 18 24 30 0 25 27 55 58 65 13 4 28 19 33 33 10 25 12 26 23 10 7 -10 16
-15 19 -11z m-641 -41 c-3 -25 1 -35 15 -40 30 -10 65 -33 74 -48 7 -10 9 -9
9 5 0 9 5 17 10 17 6 0 10 -7 10 -15 0 -8 7 -15 15 -15 21 0 19 29 -2 37 -24
9 -33 23 -33 52 0 17 3 21 13 14 6 -5 22 -8 35 -7 13 1 22 -4 22 -13 0 -10 -6
-13 -16 -9 -25 10 -11 -17 17 -31 13 -7 19 -13 12 -13 -7 0 -10 -6 -7 -14 6
-16 -42 -50 -61 -42 -23 8 -5 -24 19 -35 11 -5 30 -16 42 -24 19 -14 23 -14
47 5 34 27 45 25 20 -2 -11 -13 -23 -31 -26 -40 -4 -11 -13 -15 -26 -11 -12 3
-18 9 -15 15 3 5 -5 6 -20 2 -20 -5 -26 -2 -26 10 0 9 -7 16 -15 16 -8 0 -17
15 -21 37 -7 38 -24 63 -43 63 -6 0 -11 5 -11 10 0 6 -5 10 -11 10 -8 0 -8 -4
-1 -13 6 -7 7 -18 3 -26 -5 -8 -5 -28 0 -44 10 -34 1 -51 -23 -42 -12 5 -14
14 -8 40 5 21 3 38 -3 44 -8 8 -7 11 2 11 14 0 6 35 -13 59 -6 8 -11 28 -11
46 0 24 4 31 15 28 11 -3 15 -14 12 -37z m-452 8 c0 -8 -4 -12 -10 -9 -5 3
-10 13 -10 21 0 8 5 12 10 9 6 -3 10 -13 10 -21z m300 6 c0 -5 -2 -10 -4 -10
-3 0 -8 5 -11 10 -3 6 -1 10 4 10 6 0 11 -4 11 -10z m-19 -33 c-13 -13 -26 -3
-16 12 3 6 11 8 17 5 6 -4 6 -10 -1 -17z m364 3 c-3 -5 -1 -10 4 -10 6 0 11
-10 11 -22 l0 -22 -16 22 c-13 19 -12 42 2 42 3 0 2 -4 -1 -10z m823 -15 c-3
-3 -9 2 -12 12 -6 14 -5 15 5 6 7 -7 10 -15 7 -18z m-14 -10 c3 -8 1 -15 -4
-15 -6 0 -10 7 -10 15 0 8 2 15 4 15 2 0 6 -7 10 -15z m-1434 -35 c0 -13 -1
-13 -10 0 -5 8 -10 22 -10 30 0 13 1 13 10 0 5 -8 10 -22 10 -30z m706 -12 c4
-6 2 -14 -4 -16 -6 -2 -8 -10 -5 -19 4 -10 -3 -8 -20 7 -15 13 -24 27 -21 32
8 12 42 10 50 -4z m481 6 c-3 -3 -12 -4 -19 -1 -8 3 -5 6 6 6 11 1 17 -2 13
-5z m-977 -50 c5 -31 24 -60 53 -83 17 -13 18 -12 12 11 -7 28 12 42 43 31 10
-4 8 2 -8 14 -14 12 -22 24 -19 27 3 3 15 -3 27 -14 18 -17 20 -24 10 -45 -10
-22 -8 -29 12 -50 13 -14 31 -26 39 -26 9 -1 0 -4 -19 -8 -39 -7 -50 -33 -30
-70 15 -29 70 -29 77 -1 5 19 6 20 19 3 12 -16 13 -16 14 -2 0 9 -8 27 -18 40
-12 16 -16 34 -13 53 7 33 24 38 30 9 9 -49 51 -57 88 -17 16 18 28 23 36 16
7 -5 35 -10 62 -10 28 0 63 -6 78 -11 27 -10 29 -9 44 27 8 20 20 40 27 44 8
6 8 8 -1 8 -7 0 -10 6 -7 14 3 9 -1 13 -12 13 -9 -1 -19 4 -21 11 -3 8 1 10
11 6 9 -3 23 0 32 7 14 11 16 10 14 -6 -6 -54 -1 -59 26 -30 14 15 27 25 29
23 3 -2 -9 -19 -25 -37 -17 -18 -30 -34 -30 -36 0 -10 -62 -95 -69 -95 -5 0
-19 11 -32 23 -13 13 -37 27 -52 31 -26 6 -28 5 -22 -15 5 -14 4 -19 -4 -15
-6 4 -11 3 -11 -3 0 -5 5 -11 12 -13 9 -3 9 -6 1 -11 -7 -4 -20 1 -30 12 -18
19 -19 19 -60 -1 -39 -18 -42 -22 -31 -42 6 -11 15 -24 21 -27 5 -4 -7 -12
-26 -18 -24 -8 -39 -21 -44 -38 l-9 -25 -30 26 c-17 14 -34 23 -38 19 -3 -3
-6 -2 -6 4 0 6 -16 18 -35 27 -30 14 -35 22 -35 51 0 18 6 35 13 38 8 3 7 10
-7 26 -19 21 -43 30 -31 11 10 -16 -21 -12 -35 5 -7 8 -9 15 -4 15 4 0 -2 10
-14 23 -12 13 -20 25 -18 28 2 2 1 23 -4 47 -5 30 -4 42 4 39 6 -2 13 -17 16
-33z m1170 -10 c0 -28 -22 -56 -42 -52 -7 2 -14 -8 -16 -21 -2 -15 0 -21 7
-17 7 4 11 -1 11 -14 0 -11 -7 -23 -15 -26 -8 -3 -17 -15 -21 -27 l-7 -22 -8
23 c-6 15 -2 37 12 69 11 25 18 52 15 59 -3 8 0 11 8 8 8 -3 18 7 26 25 14 35
30 32 30 -5z m-1370 15 c0 -11 26 -45 93 -121 15 -17 25 -34 22 -37 -4 -3 -9
-1 -13 5 -4 6 -15 13 -25 17 -10 4 -25 23 -33 42 -8 19 -21 35 -29 35 -8 0
-15 9 -15 19 0 11 -4 23 -10 26 -5 3 -10 10 -10 16 0 5 5 9 10 9 6 0 10 -5 10
-11z m1030 7 c0 -3 -4 -8 -10 -11 -5 -3 -10 -1 -10 4 0 6 5 11 10 11 6 0 10
-2 10 -4z m-56 -14 c3 -5 -1 -9 -9 -9 -8 0 -12 4 -9 9 3 4 7 8 9 8 2 0 6 -4 9
-8z m41 -22 c3 -5 1 -10 -4 -10 -6 0 -11 5 -11 10 0 6 2 10 4 10 3 0 8 -4 11
-10z m30 -20 c3 -5 1 -10 -4 -10 -6 0 -11 5 -11 10 0 6 2 10 4 10 3 0 8 -4 11
-10z m321 -120 c-18 -58 -25 -71 -31 -56 -5 12 2 50 21 105 23 69 29 80 31 56
2 -16 -8 -64 -21 -105z m-266 110 c0 -5 -4 -10 -10 -10 -5 0 -10 5 -10 10 0 6
5 10 10 10 6 0 10 -4 10 -10z m-1056 -94 c16 -52 6 -52 -12 -1 -5 17 -13 39
-17 50 -6 15 -5 17 3 10 7 -6 18 -33 26 -59z m105 4 l-1 -35 -8 30 c-4 17 -8
39 -9 50 -1 16 1 17 9 5 5 -8 9 -31 9 -50z m901 41 c0 -4 -6 -15 -13 -25 -10
-13 -30 -19 -77 -22 -91 -5 -128 -43 -76 -78 24 -15 26 -14 45 11 19 23 21 24
21 6 0 -33 -26 -49 -55 -33 -13 7 -33 10 -44 7 -12 -3 -21 -1 -21 3 0 5 -3 15
-6 23 -3 9 3 16 15 20 24 6 29 37 6 37 -8 0 -15 5 -15 11 0 5 4 8 9 4 5 -3 11
3 14 12 3 15 6 14 15 -7 6 -14 11 -18 12 -10 1 18 75 54 95 46 8 -3 15 -12 15
-21 0 -24 20 -17 30 11 9 22 30 26 30 5z m-830 -53 c14 -35 26 -65 27 -68 2
-3 -1 -11 -6 -19 -9 -14 -23 -4 -60 42 -12 15 -12 17 1 12 12 -5 15 1 12 27
-2 18 -7 41 -10 50 -3 10 -2 18 3 18 4 0 19 -28 33 -62z m1030 33 c0 -12 -26
-32 -33 -25 -6 7 14 33 26 34 4 0 7 -4 7 -9z m-430 -41 c0 -5 -5 -10 -11 -10
-5 0 -7 5 -4 10 3 6 8 10 11 10 2 0 4 -4 4 -10z m-720 -29 c0 -11 5 -23 10
-26 6 -4 8 -10 5 -15 -3 -5 4 -54 15 -109 11 -54 20 -107 19 -118 -1 -35 -49
132 -49 173 0 23 -7 58 -15 78 -14 32 -14 36 0 36 8 0 15 -9 15 -19z m1227
-38 c11 -16 12 -23 4 -23 -7 0 -10 -4 -7 -9 6 -9 -48 -213 -64 -240 -5 -9 -17
-16 -26 -16 -20 0 -43 -49 -30 -62 4 -5 16 2 26 15 10 12 21 22 25 22 12 0 -8
-75 -32 -118 -13 -23 -22 -46 -19 -50 2 -4 -5 -23 -15 -42 l-20 -35 4 33 c3
24 0 32 -10 28 -7 -3 -13 1 -13 10 0 10 6 14 15 10 10 -4 17 6 25 35 6 22 13
48 16 57 4 13 2 13 -11 -3 -16 -19 -16 -18 -11 25 3 25 8 64 10 87 3 24 10 51
16 60 9 15 10 14 4 -7 -4 -14 -9 -31 -11 -37 -3 -7 -2 -13 1 -13 11 0 36 72
36 104 0 18 -5 37 -12 44 -7 7 -8 12 -2 12 5 0 15 -5 21 -11 15 -15 43 38 43
81 0 34 -6 37 -32 13 -17 -15 -18 -15 -18 1 0 23 30 67 41 60 5 -3 12 3 16 13
7 17 8 17 11 -2 3 -10 11 -29 19 -42z m-412 37 c-3 -5 -10 -10 -16 -10 -5 0
-9 5 -9 10 0 6 7 10 16 10 8 0 12 -4 9 -10z m245 -19 c0 -22 -15 -36 -50 -46
-14 -4 -49 -23 -78 -42 -29 -19 -56 -32 -59 -29 -3 3 2 8 11 12 9 3 16 12 16
19 0 7 9 15 21 18 16 4 19 11 14 26 -6 19 -2 21 39 21 35 0 48 5 56 20 13 25
30 26 30 1z m-560 -2 c0 -6 -7 -17 -15 -26 -8 -8 -13 -18 -10 -23 3 -4 -3 -11
-12 -14 -28 -11 -35 17 -8 34 14 8 25 20 25 27 0 7 5 13 10 13 6 0 10 -5 10
-11z m630 -18 c0 -13 -21 -19 -44 -13 -20 5 -20 5 0 13 27 11 44 11 44 0z
m-470 -11 c0 -5 -4 -10 -10 -10 -5 0 -10 5 -10 10 0 6 5 10 10 10 6 0 10 -4
10 -10z m-92 -16 c12 -4 22 -11 22 -16 0 -6 -7 -8 -15 -5 -8 4 -17 2 -20 -3
-4 -6 0 -10 7 -11 7 0 -2 -5 -20 -10 -22 -7 -39 -6 -54 2 l-21 11 24 19 c26
20 41 22 77 13z m-418 -24 c0 -12 11 -31 25 -44 14 -13 25 -29 25 -36 0 -9 -8
-6 -23 8 -13 12 -27 22 -33 22 -5 0 -10 16 -11 35 -2 19 2 35 7 35 6 0 10 -9
10 -20z m265 10 c3 -5 -1 -10 -10 -10 -9 0 -13 5 -10 10 3 6 8 10 10 10 2 0 7
-4 10 -10z m259 1 c3 -5 -3 -20 -14 -32 l-19 -24 -1 23 c0 13 -6 22 -16 22 -8
0 -12 5 -9 10 8 12 52 13 59 1z m-617 -36 c-3 -23 -17 -48 -17 -29 0 15 12 54
17 54 2 0 2 -11 0 -25z m298 -5 c3 -5 1 -10 -4 -10 -6 0 -11 5 -11 10 0 6 2
10 4 10 3 0 8 -4 11 -10z m435 -20 c-6 -11 -18 -20 -26 -20 -9 0 -28 -9 -44
-20 -28 -20 -40 -18 -40 8 0 9 6 12 16 8 13 -5 14 -3 6 6 -8 11 -3 13 29 10
29 -3 40 0 45 12 3 9 10 16 15 16 6 0 5 -9 -1 -20z m167 14 c-3 -3 -12 -4 -19
-1 -8 3 -5 6 6 6 11 1 17 -2 13 -5z m-400 -21 c4 -11 -45 -22 -65 -15 -21 7
-13 25 8 19 11 -3 23 -1 26 4 7 12 26 7 31 -8z m123 3 c0 -2 -8 -10 -17 -17
-16 -13 -17 -12 -4 4 13 16 21 21 21 13z m-328 -47 c16 10 23 9 36 -3 10 -8
29 -18 45 -21 42 -11 32 -20 -25 -22 -33 -1 -63 4 -82 15 -57 32 -78 61 -25
35 26 -13 36 -14 51 -4z m293 11 c3 -5 1 -10 -4 -10 -6 0 -11 5 -11 10 0 6 2
10 4 10 3 0 8 -4 11 -10z m-127 -48 c15 -11 14 -12 -5 -9 -11 1 -28 9 -37 16
-15 12 -15 15 1 27 15 11 19 10 21 -4 2 -9 11 -23 20 -30z m63 30 c15 -13 19
-21 11 -26 -7 -4 -12 -1 -12 8 0 8 -12 19 -27 24 -16 6 -21 11 -12 11 9 1 27
-7 40 -17z m-421 -12 c0 -5 -4 -10 -10 -10 -5 0 -10 5 -10 10 0 6 5 10 10 10
6 0 10 -4 10 -10z m75 -10 c11 -13 25 -18 37 -14 10 3 18 1 18 -5 0 -6 -6 -11
-12 -12 -10 0 -10 -2 0 -6 6 -2 12 -8 12 -13 0 -8 -38 -23 -52 -21 -5 1 -8 -8
-8 -18 0 -13 5 -18 18 -15 12 4 21 -4 30 -26 8 -18 24 -33 39 -37 25 -6 25 -7
8 -19 -11 -8 -15 -14 -11 -14 4 0 0 -7 -8 -16 -9 -8 -16 -22 -16 -30 0 -8 -4
-14 -10 -14 -5 0 -10 7 -10 16 0 8 -4 13 -9 10 -11 -7 -36 22 -28 31 4 3 13 1
20 -6 16 -13 47 -5 47 13 -1 16 -25 46 -39 46 -6 0 -16 -11 -21 -25 -8 -21
-15 -25 -36 -21 -36 7 -37 9 -8 23 18 8 22 8 18 0 -5 -9 -4 -9 5 -1 9 8 10 17
3 30 -18 33 -25 58 -23 82 2 13 -3 29 -9 37 -9 11 -9 18 2 29 17 20 22 20 43
-4z m445 10 c13 -9 13 -11 0 -20 -8 -6 -26 -8 -40 -5 -19 4 -21 3 -10 -4 12
-9 12 -11 -3 -17 -9 -3 -24 -3 -33 0 -13 5 -13 8 4 26 12 13 25 18 35 14 10
-3 17 -1 17 5 0 14 10 14 30 1z m280 -35 c0 -23 -9 -32 -91 -89 -41 -29 -41
-29 -18 -41 22 -13 22 -13 -9 -20 -18 -3 -34 -11 -37 -16 -4 -5 -20 -9 -36 -9
-20 0 -28 -4 -23 -11 4 -7 1 -10 -7 -7 -8 3 -22 1 -31 -4 -15 -7 -18 -4 -18
16 0 22 3 24 33 20 28 -5 34 -2 51 27 11 18 21 28 24 21 2 -7 8 -12 13 -12 6
0 7 5 4 10 -3 6 1 13 10 16 9 4 21 17 26 30 6 16 16 24 33 24 28 0 42 14 51
52 8 32 25 28 25 -7z m-885 15 c3 -5 1 -10 -4 -10 -6 0 -11 5 -11 10 0 6 2 10
4 10 3 0 8 -4 11 -10z m275 -37 c0 -7 -39 17 -46 28 -3 6 5 3 20 -6 14 -10 26
-19 26 -22z m215 27 c-3 -5 -10 -10 -16 -10 -5 0 -9 5 -9 10 0 6 7 10 16 10 8
0 12 -4 9 -10z m225 -9 c-12 -23 -30 -36 -30 -22 0 10 27 41 36 41 3 0 0 -9
-6 -19z m-305 -11 c-4 -6 7 -10 27 -10 24 0 29 -3 18 -9 -8 -6 -18 -7 -22 -5
-14 9 -9 -17 7 -32 22 -22 18 -36 -7 -32 -16 2 -23 10 -24 25 -1 13 -7 30 -14
39 -12 13 -11 17 1 25 18 11 22 11 14 -1z m-79 -15 c10 -8 14 -15 7 -15 -19 0
-43 11 -43 21 0 13 14 11 36 -6z m429 -5 c3 -5 -3 -10 -14 -10 -23 0 -29 -25
-8 -33 6 -3 -3 -10 -21 -17 -19 -7 -37 -22 -42 -34 l-9 -21 0 21 c-1 21 29 68
59 91 19 15 27 16 35 3z m-431 -41 c-3 -5 -10 -7 -15 -3 -5 3 -7 10 -3 15 3 5
10 7 15 3 5 -3 7 -10 3 -15z m226 2 c0 -27 -45 -55 -68 -42 -15 9 -15 10 5 11
12 0 30 11 40 25 22 30 23 30 23 6z m52 -9 c-16 -5 -15 -29 1 -35 6 -2 9 -7 5
-11 -3 -4 -16 -3 -27 4 l-21 11 22 30 c14 18 24 25 27 18 2 -7 -1 -15 -7 -17z
m-294 -11 c3 -10 0 -12 -11 -8 -9 3 -19 2 -23 -4 -3 -6 -11 -3 -19 8 -13 16
-13 16 -8 -7 6 -24 6 -24 -17 -9 -39 25 -33 34 22 34 35 0 53 -4 56 -14z m42
-11 c0 -5 -5 -10 -11 -10 -5 0 -7 5 -4 10 3 6 8 10 11 10 2 0 4 -4 4 -10z
m-316 -16 c9 -8 16 -23 16 -32 -1 -14 -5 -12 -20 7 -30 35 -26 56 4 25z m601
-4 c3 -5 1 -10 -4 -10 -6 0 -11 5 -11 10 0 6 2 10 4 10 3 0 8 -4 11 -10z m318
-39 c-10 -39 -77 -82 -87 -55 -4 9 1 14 15 14 12 0 33 14 47 30 31 35 32 36
25 11z m-168 -1 c-3 -6 5 -10 19 -10 14 0 28 -4 31 -10 4 -6 -7 -10 -24 -10
-17 0 -31 2 -31 4 0 2 -3 11 -6 20 -3 9 -1 16 6 16 6 0 8 -4 5 -10z m-263 -46
c16 -19 27 -24 44 -20 13 4 24 2 24 -3 0 -17 -34 -17 -69 1 -31 16 -34 16 -53
-2 -28 -26 -14 -42 28 -34 21 4 40 2 49 -6 11 -10 18 -9 30 4 24 24 32 20 37
-19 3 -25 0 -34 -8 -31 -15 6 -44 -36 -44 -63 0 -11 -4 -23 -10 -26 -5 -3 -10
-1 -10 4 0 6 -6 10 -12 8 -7 -1 -13 8 -13 20 0 12 -4 25 -8 29 -4 4 -7 2 -7
-5 0 -6 -9 -22 -20 -34 -18 -18 -22 -20 -30 -7 -8 13 -10 13 -10 -2 0 -9 -12
-26 -26 -37 l-26 -20 -27 20 c-15 11 -35 33 -44 48 l-16 28 29 1 c27 1 28 -1
20 -23 -6 -15 -6 -27 0 -30 6 -4 10 -1 10 6 0 7 8 5 21 -7 17 -16 22 -16 29
-4 14 22 12 36 -6 55 -13 13 -14 18 -3 31 11 14 15 13 29 -6 20 -26 54 -23 58
5 3 27 -11 46 -36 48 -24 1 -37 36 -16 44 8 3 14 10 14 17 0 9 24 26 49 35 2
0 12 -11 23 -25z m-378 10 c9 -3 16 -10 16 -16 0 -5 -4 -7 -9 -4 -5 4 -7 -3
-4 -15 6 -21 48 -43 64 -33 5 3 9 -1 9 -9 0 -8 16 -29 35 -46 19 -17 35 -33
35 -36 0 -12 -48 -4 -60 10 -16 20 -30 19 -46 -2 -17 -22 -18 -65 -2 -81 9 -9
8 -16 -6 -31 -9 -10 -16 -22 -15 -27 2 -14 -13 -54 -20 -54 -8 0 -6 58 2 67 4
3 7 15 7 25 0 17 -4 20 -32 22 -19 2 -28 19 -17 32 12 14 -9 54 -27 54 -6 0
-11 6 -12 13 -5 55 -16 96 -25 90 -6 -3 -7 -1 -3 5 4 7 12 12 17 12 12 0 40
-64 37 -82 -2 -7 7 -17 19 -22 16 -7 21 -16 17 -28 -3 -12 0 -18 10 -18 10 0
13 -6 10 -15 -4 -8 -10 -13 -14 -10 -5 3 -11 1 -15 -5 -3 -5 3 -10 13 -10 23
0 37 40 19 53 -9 7 -9 10 1 14 6 2 9 9 6 15 -4 6 -1 14 6 18 9 6 5 13 -14 25
-21 14 -26 25 -26 56 0 42 0 42 24 33z m606 -9 c0 -8 -44 -23 -53 -18 -14 8 4
23 29 23 13 0 24 -2 24 -5z m-125 -15 c-3 -5 -12 -10 -18 -10 -7 0 -6 4 3 10
19 12 23 12 15 0z m-515 -28 c0 -15 -2 -15 -10 -2 -13 20 -13 33 0 25 6 -3 10
-14 10 -23z m660 -31 c14 -28 47 -35 74 -17 26 16 36 12 36 -15 0 -11 -10 -21
-25 -25 -14 -3 -25 -11 -25 -17 0 -6 -12 -21 -27 -33 -23 -18 -28 -30 -28 -66
0 -24 -4 -42 -11 -41 -5 1 -16 -7 -23 -19 -10 -16 -10 -19 1 -13 7 4 5 -1 -5
-11 -17 -18 -19 -18 -28 -1 -6 9 -20 17 -33 17 -13 0 -29 7 -36 15 -11 13 -14
12 -26 -11 -18 -35 -18 -43 4 -38 24 7 92 -23 92 -41 0 -8 -4 -15 -10 -15 -5
0 -10 -6 -10 -12 1 -7 9 -3 20 10 23 28 50 23 65 -10 6 -14 18 -22 30 -21 11
1 22 -3 26 -8 3 -6 18 -3 37 8 28 16 33 16 46 3 12 -11 14 -29 9 -74 -4 -42
-9 -54 -15 -42 -5 9 -13 14 -19 11 -5 -4 -9 3 -9 14 0 13 -7 21 -17 21 -15 0
-16 2 -3 10 10 6 16 6 18 0 7 -19 17 -10 18 15 2 25 -10 33 -21 15 -4 -6 -10
-8 -15 -5 -5 3 -12 0 -15 -5 -5 -7 -12 -5 -22 7 -13 17 -14 16 -8 -11 6 -26 5
-27 -10 -12 -22 21 -37 20 -58 -4 -14 -17 -48 -27 -60 -17 -2 1 -11 -4 -20
-11 -9 -8 -22 -10 -29 -6 -6 4 -37 7 -68 5 -30 -1 -66 -2 -80 -3 -14 -1 -45 9
-69 20 -51 25 -55 26 -46 12 10 -16 -7 -12 -27 7 -17 15 -18 15 -18 0 0 -12
-9 -17 -29 -17 -37 0 -62 -10 -55 -21 9 -15 -13 -10 -26 6 -18 21 -32 19 -25
-5 4 -11 2 -20 -4 -20 -10 0 -15 14 -12 33 1 4 -6 10 -14 13 -8 4 -15 12 -15
19 0 7 -6 18 -14 25 -8 6 -12 18 -9 26 3 8 -3 24 -12 34 -10 11 -16 22 -13 25
12 12 40 -10 59 -46 22 -44 86 -80 101 -57 6 10 11 9 19 -4 15 -27 32 -22 25
7 -5 18 -1 27 12 34 13 7 19 22 20 47 1 29 -5 43 -32 70 -19 19 -41 34 -51 34
-12 0 -16 8 -13 33 2 17 8 30 13 27 6 -3 9 -11 8 -18 0 -8 6 -21 16 -30 22
-23 71 -44 71 -32 0 6 7 10 15 10 8 0 15 -7 15 -15 0 -8 -7 -15 -15 -15 -18 0
-19 -9 0 -33 13 -18 14 -17 17 5 3 22 4 22 22 -9 14 -22 31 -34 59 -42 39 -9
42 -8 75 27 l35 37 -8 -30 c-3 -16 -11 -33 -17 -36 -6 -4 -8 -15 -4 -24 6 -16
1 -17 -46 -12 -55 5 -78 -6 -78 -37 0 -21 17 -29 62 -29 28 0 43 6 54 21 14
20 16 20 43 4 44 -25 85 -8 89 36 2 18 -2 39 -8 47 -6 7 -7 15 -1 17 5 1 2 10
-7 18 -14 13 -15 12 -9 -3 5 -14 0 -17 -27 -17 -29 0 -34 4 -40 30 -3 17 -1
42 5 56 7 21 6 31 -7 45 -10 11 -25 19 -35 19 -10 0 -21 5 -25 11 -4 7 -1 10
7 7 8 -3 22 2 32 11 18 15 20 14 40 -11 12 -14 33 -28 46 -30 14 -2 27 -13 32
-26 6 -15 5 -21 -1 -17 -6 3 -10 1 -10 -4 0 -16 26 -13 40 4 10 12 9 16 -4 21
-12 5 -16 20 -16 61 0 47 4 58 25 75 16 13 25 29 25 49 0 34 24 40 40 10z
m125 -82 c11 -17 -1 -21 -15 -4 -8 9 -8 15 -2 15 6 0 14 -5 17 -11z m59 -24
c-4 -8 -10 -12 -15 -9 -11 6 -2 24 11 24 5 0 7 -7 4 -15z m-596 -61 c12 -8 22
-19 22 -23 0 -10 -69 21 -70 32 0 12 24 8 48 -9z m-255 -25 c3 -13 1 -19 -6
-16 -15 5 -22 37 -9 37 5 0 12 -9 15 -21z m97 -8 c0 -6 -4 -13 -10 -16 -5 -3
-10 1 -10 9 0 9 5 16 10 16 6 0 10 -4 10 -9z m615 -62 c10 -14 1 -21 -19 -13
-9 3 -13 10 -10 15 7 12 21 11 29 -2z m-738 -61 c-3 -8 -6 -5 -6 6 -1 11 2 17
5 13 3 -3 4 -12 1 -19z m759 11 c3 -6 1 -16 -5 -22 -8 -8 -11 -8 -11 1 0 7
-10 17 -22 22 -22 8 -22 9 4 9 15 1 30 -4 34 -10z"/>
<path d="M881 3741 c-8 -6 -9 -11 -3 -15 6 -3 14 -1 17 5 9 14 2 20 -14 10z"/>
<path d="M926 3725 c-16 -12 -16 -16 -5 -27 8 -8 23 -15 34 -16 11 -1 44 -5
73 -10 28 -5 52 -5 52 0 0 16 46 19 74 4 16 -8 35 -12 42 -9 8 3 14 0 14 -6 0
-7 7 -7 25 1 39 18 30 29 -23 27 -26 -1 -58 4 -71 10 -12 7 -34 10 -47 7 -13
-4 -43 -2 -66 3 -24 6 -44 6 -46 2 -4 -11 -42 -2 -42 9 0 5 10 11 23 13 19 4
19 4 2 5 -11 1 -28 -5 -39 -13z"/>
<path d="M1130 3736 c0 -3 9 -10 20 -16 11 -6 20 -8 20 -6 0 3 -9 10 -20 16
-11 6 -20 8 -20 6z"/>
<path d="M922 3625 c-13 -15 -22 -28 -20 -30 7 -7 50 35 46 45 -2 6 -14 -1
-26 -15z"/>
<path d="M1135 3640 c3 -5 8 -10 11 -10 2 0 4 5 4 10 0 6 -5 10 -11 10 -5 0
-7 -4 -4 -10z"/>
<path d="M1270 3625 c0 -8 7 -15 16 -15 14 0 14 3 4 15 -7 8 -14 15 -16 15 -2
0 -4 -7 -4 -15z"/>
<path d="M1013 3623 c-13 -2 -23 -11 -23 -19 0 -19 28 -30 43 -15 17 17 37 13
37 -9 0 -12 -7 -20 -17 -20 -10 0 -36 -16 -58 -35 l-40 -35 30 4 c47 6 75 17
75 30 0 6 10 -4 21 -21 22 -35 78 -59 91 -39 12 17 9 64 -6 100 -10 24 -25 38
-55 49 -41 17 -55 18 -98 10z"/>
<path d="M1196 3613 c-12 -12 -6 -42 12 -53 12 -8 13 -13 4 -16 -6 -3 -9 -10
-6 -16 4 -6 0 -14 -7 -19 -11 -7 -10 -12 7 -27 12 -9 27 -27 33 -39 18 -35 57
-30 97 13 38 39 41 49 19 58 -8 3 -15 16 -15 29 0 13 -5 28 -12 35 -14 14 -68
16 -68 2 0 -18 -18 -11 -25 9 -6 20 -29 34 -39 24z"/>
<path d="M860 3550 c0 -5 7 -10 15 -10 8 0 15 5 15 10 0 6 -7 10 -15 10 -8 0
-15 -4 -15 -10z"/>
<path d="M724 3502 c-1 -15 1 -21 3 -14 3 6 9 9 15 6 6 -4 8 1 6 11 -5 29 -23
27 -24 -3z"/>
<path d="M802 3518 c-7 -7 -12 -21 -12 -31 0 -19 34 -75 55 -89 17 -12 73 -9
77 4 3 7 18 11 37 10 30 -2 80 29 81 50 0 7 -47 4 -78 -6 -15 -5 -21 0 -25 23
-5 24 -14 32 -44 40 -50 14 -76 14 -91 -1z"/>
<path d="M1030 3426 c-29 -24 -29 -63 -2 -120 l17 -35 28 22 c33 26 59 94 46
118 -5 9 -21 21 -37 27 -23 8 -32 6 -52 -12z m60 -96 c0 -5 -5 -10 -11 -10 -5
0 -7 5 -4 10 3 6 8 10 11 10 2 0 4 -4 4 -10z"/>
<path d="M1158 3423 c-10 -2 -18 -9 -18 -14 0 -6 4 -7 10 -4 6 3 7 -1 4 -10
-4 -8 -3 -31 0 -50 6 -28 11 -35 31 -35 26 0 55 24 55 46 0 20 -41 74 -54 73
-6 -1 -19 -3 -28 -6z"/>
<path d="M906 3368 c-12 -17 -11 -58 2 -58 2 0 11 8 18 17 7 10 15 15 18 12 9
-9 -27 -46 -40 -42 -7 2 -19 -3 -27 -12 -9 -8 -20 -15 -26 -15 -19 0 -9 -100
10 -111 10 -5 25 -31 34 -58 18 -55 28 -66 66 -69 24 -3 45 11 49 33 4 19 8
30 24 87 13 45 15 66 7 95 -13 47 -37 83 -57 83 -19 0 -18 17 2 28 14 8 14 11
3 18 -26 16 -69 12 -83 -8z m63 -309 c-14 -8 -29 -3 -29 11 0 4 9 6 21 3 15
-4 17 -8 8 -14z"/>
<path d="M836 3361 c-4 -5 3 -7 14 -4 23 6 26 13 6 13 -8 0 -17 -4 -20 -9z"/>
<path d="M837 3333 c-13 -13 -7 -33 11 -33 19 0 49 17 42 23 -11 10 -47 17
-53 10z"/>
<path d="M1142 3283 c-15 -6 -6 -23 14 -23 8 0 14 7 14 15 0 15 -6 17 -28 8z"/>
<path d="M1103 3245 c-7 -8 -13 -25 -13 -39 0 -13 -6 -27 -12 -29 -9 -4 -8 -6
3 -6 8 -1 25 -15 37 -31 22 -30 23 -30 43 -11 12 11 29 17 40 14 10 -3 19 0
19 6 0 6 -7 11 -15 11 -10 0 -15 10 -15 34 0 18 -6 38 -13 44 -22 19 -61 23
-74 7z"/>
<path d="M678 3219 c-13 -7 -17 -20 -15 -44 2 -40 3 -41 38 -17 19 13 24 23
19 41 -7 29 -18 34 -42 20z"/>
<path d="M751 3216 c-20 -24 12 -70 45 -63 20 3 23 1 19 -13 -6 -19 11 -37 23
-25 4 4 2 10 -4 12 -7 2 -10 13 -7 23 7 25 -24 73 -42 66 -8 -3 -15 0 -17 6
-2 6 -9 3 -17 -6z"/>
<path d="M691 3112 c-29 -28 -45 -68 -31 -77 4 -2 10 -18 14 -35 4 -23 15 -35
41 -46 33 -13 48 -34 25 -34 -5 0 -10 -4 -10 -10 0 -5 10 -10 21 -10 16 0 20
5 16 20 -3 11 0 23 5 27 8 4 9 -8 5 -35 -5 -44 5 -55 22 -24 9 15 10 14 8 -7
-1 -13 3 -26 9 -28 17 -6 8 76 -11 97 -19 21 -7 33 31 35 20 0 22 -3 18 -30
-3 -21 -2 -25 4 -12 7 17 9 17 21 3 15 -17 41 -22 41 -7 0 5 -10 11 -22 13
-15 2 -24 11 -26 25 -2 12 -11 27 -19 35 -15 11 -16 11 -10 -4 4 -12 2 -18 -8
-18 -10 0 -12 9 -8 34 7 45 -23 88 -72 103 -34 11 -39 9 -64 -15z"/>
<path d="M655 3110 c-3 -5 -1 -10 4 -10 6 0 11 5 11 10 0 6 -2 10 -4 10 -3 0
-8 -4 -11 -10z"/>
<path d="M1038 3093 c-26 -31 -15 -69 27 -103 21 -17 45 -28 52 -26 11 5 18
-12 14 -36 0 -5 3 -8 8 -8 5 0 7 -9 4 -21 -4 -16 -8 -17 -14 -7 -6 8 -9 9 -9
1 0 -6 -9 -9 -20 -6 -23 6 -25 -4 -5 -31 14 -19 16 -19 52 11 34 27 72 35 57
12 -3 -5 -1 -9 5 -9 15 0 23 18 15 32 -5 7 -7 29 -5 49 2 30 -2 40 -19 49 -12
6 -28 9 -36 6 -9 -4 -14 1 -14 15 0 11 -12 36 -26 55 -29 38 -62 44 -86 17z"/>
<path d="M830 3090 c0 -5 5 -10 10 -10 6 0 10 5 10 10 0 6 -4 10 -10 10 -5 0
-10 -4 -10 -10z"/>
<path d="M620 3073 c0 -7 -6 -13 -13 -13 -21 0 -38 -87 -20 -101 7 -7 15 -10
17 -8 36 47 46 89 26 119 -6 10 -10 11 -10 3z"/>
<path d="M1005 3040 c-3 -5 -1 -10 4 -10 6 0 11 5 11 10 0 6 -2 10 -4 10 -3 0
-8 -4 -11 -10z"/>
<path d="M998 3003 c-2 -10 -12 -18 -23 -18 -11 0 -19 -6 -17 -13 2 -10 -2
-10 -18 -2 -13 7 -20 7 -20 0 0 -5 5 -10 10 -10 6 0 10 -6 10 -12 0 -7 9 -24
19 -37 35 -45 96 3 63 50 -9 13 -15 32 -14 42 4 22 -6 22 -10 0z"/>
<path d="M1391 3006 c-9 -10 -8 -15 4 -20 10 -4 15 1 15 14 0 24 -4 25 -19 6z"/>
<path d="M1423 2977 c-6 -20 -7 -39 -2 -42 10 -7 22 36 17 62 -2 12 -7 5 -15
-20z"/>
<path d="M1260 2990 c-12 -7 -12 -12 -2 -22 9 -9 15 -9 24 0 8 8 9 15 2 22 -5
5 -15 6 -24 0z"/>
<path d="M1490 2991 c0 -6 5 -13 10 -16 6 -3 10 1 10 9 0 9 -4 16 -10 16 -5 0
-10 -4 -10 -9z"/>
<path d="M542 2951 c-1 -14 -8 -32 -16 -40 -13 -16 -31 -71 -22 -71 16 0 47
74 43 102 -3 23 -4 26 -5 9z"/>
<path d="M1045 2960 c-3 -5 -1 -10 4 -10 6 0 11 5 11 10 0 6 -2 10 -4 10 -3 0
-8 -4 -11 -10z"/>
<path d="M580 2905 c0 -8 -5 -15 -10 -15 -7 0 -7 -6 0 -20 6 -11 17 -20 25
-20 16 0 31 43 20 59 -9 16 -35 13 -35 -4z"/>
<path d="M664 2893 c-13 -2 -28 -19 -39 -43 -15 -34 -19 -37 -32 -24 -21 21
-50 17 -56 -8 -8 -29 9 -58 33 -58 11 0 20 -7 20 -15 0 -9 6 -12 16 -8 11 4
12 9 5 16 -14 14 -14 37 -1 37 6 0 10 -6 10 -14 0 -22 29 -46 56 -46 16 0 25
-6 26 -17 0 -10 2 -23 2 -29 2 -18 25 -41 47 -47 16 -4 18 -3 8 9 -6 7 -15 12
-19 9 -4 -3 -11 2 -14 11 -5 12 -1 14 17 8 12 -4 27 -14 33 -22 15 -21 30 -9
29 24 -2 25 -6 28 -34 29 -18 0 -36 7 -41 15 -14 22 -12 33 4 27 10 -4 13 7
12 48 -1 42 -7 59 -25 79 -14 14 -27 25 -30 25 -3 -1 -16 -4 -27 -6z"/>
<path d="M1043 2885 c0 -18 19 -15 25 3 2 7 -3 12 -10 12 -8 0 -15 -7 -15 -15z"/>
<path d="M930 2886 c0 -2 7 -7 16 -10 8 -3 12 -2 9 4 -6 10 -25 14 -25 6z"/>
<path d="M850 2840 c-14 -12 -32 -18 -47 -15 -22 3 -24 1 -18 -18 3 -12 10
-37 15 -55 4 -19 11 -36 14 -39 7 -7 0 46 -9 70 -10 25 13 22 34 -5 l18 -22
26 25 c19 18 24 31 20 52 -6 32 -22 34 -53 7z"/>
<path d="M968 2842 c-16 -2 -28 -7 -28 -12 0 -12 29 -20 35 -10 9 15 28 12 22
-2 -2 -8 4 -14 17 -14 92 -7 106 -9 106 -21 0 -16 -17 -26 -25 -13 -7 11 -36
14 -32 3 1 -5 -7 -17 -18 -28 -17 -17 -27 -19 -65 -12 -71 14 -141 16 -134 6
3 -6 11 -8 17 -6 6 2 19 -5 29 -15 10 -10 23 -16 28 -13 5 3 22 -3 37 -14 25
-18 33 -19 71 -9 36 9 41 13 30 26 -12 13 -11 14 9 2 16 -11 19 -18 12 -31
-14 -26 -12 -29 28 -46 26 -10 38 -12 41 -4 5 16 22 14 22 -3 0 -22 29 -27 40
-7 7 14 6 22 -5 31 -9 7 -18 10 -22 6 -3 -3 -1 -6 5 -6 7 0 12 -4 12 -10 0
-18 -22 -10 -27 10 -4 16 -8 18 -19 9 -11 -9 -17 -9 -28 0 -7 6 -21 9 -30 5
-12 -5 -15 -2 -10 10 3 9 10 16 16 16 5 0 7 4 3 9 -3 5 -1 12 4 15 9 6 26 -22
23 -36 -1 -5 3 -8 8 -8 6 0 10 5 10 10 0 6 6 9 13 8 6 -2 11 3 10 10 -2 6 2
12 7 12 6 0 15 11 20 24 5 14 19 26 32 28 33 4 37 51 6 72 -30 22 -60 20 -88
-4 -28 -25 -53 -25 -76 -3 -12 13 -19 14 -21 6 -4 -10 -10 -10 -31 0 -15 7
-39 11 -54 9z m197 -112 c3 -5 1 -10 -4 -10 -6 0 -11 5 -11 10 0 6 2 10 4 10
3 0 8 -4 11 -10z m-171 -36 c4 -10 1 -14 -6 -12 -15 5 -23 28 -10 28 5 0 13
-7 16 -16z"/>
<path d="M894 2775 c-18 -14 -18 -14 4 -8 12 3 22 9 22 14 0 12 -3 11 -26 -6z"/>
<path d="M1027 2779 c7 -7 15 -10 18 -7 3 3 -2 9 -12 12 -14 6 -15 5 -6 -5z"/>
<path d="M510 2759 c0 -11 4 -18 10 -14 5 3 7 12 3 20 -7 21 -13 19 -13 -6z"/>
<path d="M760 2760 c0 -5 5 -10 11 -10 5 0 7 5 4 10 -3 6 -8 10 -11 10 -2 0
-4 -4 -4 -10z"/>
<path d="M1268 2752 c-34 -21 -55 -91 -33 -108 8 -6 15 -16 15 -23 0 -19 65
-13 88 9 24 23 31 84 10 96 -7 5 -8 3 -3 -6 5 -9 4 -11 -4 -6 -7 5 -16 19 -21
32 -11 28 -15 28 -52 6z"/>
<path d="M567 2686 c10 -13 19 -23 21 -21 5 5 -22 45 -31 45 -4 0 0 -11 10
-24z"/>
<path d="M540 2678 c0 -9 5 -20 10 -23 13 -8 13 5 0 25 -8 13 -10 13 -10 -2z"/>
<path d="M632 2670 c0 -14 2 -19 5 -12 2 6 2 18 0 25 -3 6 -5 1 -5 -13z"/>
<path d="M1574 2650 c2 -35 -3 -54 -20 -79 -22 -32 -22 -32 -26 -10 -6 45 -23
18 -20 -32 2 -38 -3 -60 -18 -86 -20 -34 -20 -38 -5 -76 10 -24 13 -51 10 -68
-8 -34 10 -40 19 -6 l6 22 19 -25 c28 -35 39 -16 12 20 l-22 30 21 0 c12 0 18
-4 15 -10 -3 -5 1 -20 9 -32 9 -12 16 -17 16 -10 0 7 5 10 10 7 6 -3 10 -27
11 -53 0 -32 3 -41 8 -28 7 18 8 18 14 3 4 -10 17 -17 34 -17 21 0 24 3 15 12
-7 7 -12 23 -12 37 1 23 2 24 11 9 5 -10 20 -18 33 -18 19 0 22 4 18 25 -2 14
-8 28 -13 31 -5 3 -9 22 -9 42 0 26 -6 41 -20 50 -24 14 -26 40 -5 48 19 8 19
34 1 59 -8 11 -12 25 -9 32 3 7 0 13 -6 13 -12 0 -9 -69 3 -89 3 -5 -1 -11 -8
-14 -10 -4 -16 2 -18 15 -2 12 -8 23 -14 25 -15 5 -24 -30 -12 -51 7 -12 5
-18 -7 -22 -11 -5 -13 -10 -5 -19 9 -10 7 -16 -7 -23 -17 -9 -18 -4 -20 64 -2
75 7 95 33 73 13 -10 15 -7 13 22 -1 19 4 47 10 63 9 23 9 27 -3 23 -18 -7
-53 30 -60 63 -2 14 -4 5 -2 -20z m94 -288 c2 -7 -3 -12 -12 -12 -9 0 -16 7
-16 16 0 17 22 14 28 -4z m-9 -109 c1 -7 -6 -13 -14 -13 -16 0 -22 50 -8 64 7
7 20 -23 22 -51z"/>
<path d="M650 2675 c0 -3 8 -18 17 -33 17 -26 17 -26 0 -13 -10 8 -20 11 -24
7 -3 -3 -1 -6 5 -6 20 0 13 -28 -9 -35 -14 -5 -18 -10 -11 -17 6 -6 8 -17 5
-24 -3 -8 2 -17 11 -20 10 -4 16 -18 16 -35 0 -16 5 -29 12 -29 6 0 9 3 5 6
-3 4 4 15 16 25 21 17 15 25 -15 20 -5 0 -8 5 -8 13 0 7 -7 19 -15 26 -8 7
-12 17 -8 23 4 6 13 1 25 -12 l18 -23 -6 30 c-6 28 -4 29 20 25 19 -4 25 -10
22 -22 -7 -21 9 -46 23 -37 6 4 8 18 5 31 -4 17 -1 24 13 28 16 4 16 5 -2 6
-11 0 -38 17 -59 36 -37 32 -56 43 -56 30z"/>
<path d="M863 2650 c-9 -10 -22 -16 -29 -13 -8 3 -14 0 -14 -6 0 -6 7 -11 15
-11 16 0 38 -34 27 -44 -9 -10 18 -25 35 -19 7 3 13 11 13 18 0 17 23 25 41
14 12 -8 12 -10 0 -18 -7 -5 -10 -14 -7 -20 11 -16 26 -13 20 4 -7 18 23 20
46 4 13 -9 12 -10 -2 -5 -22 7 -24 -10 -2 -18 21 -8 21 -8 21 7 0 6 3 22 7 35
6 16 3 22 -8 22 -9 0 -16 -5 -16 -12 0 -7 -7 -6 -17 5 -10 8 -30 27 -45 40
-36 34 -66 40 -85 17z"/>
<path d="M1631 2654 c0 -11 3 -14 6 -6 3 7 2 16 -1 19 -3 4 -6 -2 -5 -13z"/>
<path d="M1018 2653 c7 -3 16 -2 19 1 4 3 -2 6 -13 5 -11 0 -14 -3 -6 -6z"/>
<path d="M1065 2630 c3 -5 11 -10 16 -10 6 0 7 5 4 10 -3 6 -11 10 -16 10 -6
0 -7 -4 -4 -10z"/>
<path d="M1110 2601 c0 -6 -8 -11 -17 -11 -15 0 -16 -2 -3 -10 13 -9 13 -10 0
-10 -13 -1 -13 -2 1 -13 8 -7 18 -20 22 -29 3 -10 16 -18 27 -18 12 0 18 5 15
10 -4 6 -10 8 -15 5 -10 -6 -24 50 -16 64 4 5 2 12 -4 16 -5 3 -10 1 -10 -4z"/>
<path d="M830 2590 c0 -5 5 -10 11 -10 5 0 7 5 4 10 -3 6 -8 10 -11 10 -2 0
-4 -4 -4 -10z"/>
<path d="M770 2581 c0 -5 7 -14 15 -21 16 -14 18 -10 9 14 -6 17 -24 22 -24 7z"/>
<path d="M744 2529 c-3 -5 -10 -7 -15 -4 -14 9 -11 -11 5 -24 7 -6 24 -10 37
-9 19 2 25 -2 27 -22 l4 -25 -22 20 -23 20 12 -23 c8 -15 18 -21 28 -18 9 4
17 -1 20 -14 3 -11 12 -20 20 -20 8 0 11 -4 8 -10 -3 -5 -1 -10 5 -10 7 0 10
6 7 14 -3 7 -1 18 5 24 8 8 4 14 -15 21 -14 6 -33 25 -42 44 -16 34 -50 54
-61 36z"/>
<path d="M918 2524 c13 -9 26 -13 30 -9 8 8 -17 25 -38 25 -9 0 -6 -6 8 -16z"/>
<path d="M830 2521 c0 -6 5 -13 10 -16 6 -3 10 1 10 9 0 9 -4 16 -10 16 -5 0
-10 -4 -10 -9z"/>
<path d="M897 2487 c11 -50 25 -87 33 -87 8 0 22 -41 25 -75 1 -11 3 -24 5
-30 1 -5 2 -18 1 -27 -1 -10 3 -18 8 -18 6 0 11 -5 11 -11 0 -8 -5 -8 -15 1
-8 7 -15 22 -15 34 0 11 -7 30 -15 40 -8 10 -12 24 -8 30 3 6 3 8 -2 4 -4 -4
-15 1 -24 10 -9 10 -12 12 -8 6 5 -8 1 -17 -12 -24 -12 -6 -28 -22 -37 -35
-14 -22 -14 -27 -1 -55 13 -25 13 -30 1 -30 -8 0 -14 5 -14 10 0 6 -5 10 -12
10 -6 0 -4 -8 6 -19 13 -14 15 -24 8 -37 -6 -11 -11 -13 -16 -5 -4 6 -4 11 -1
11 3 0 -1 10 -9 22 -9 12 -16 29 -16 36 0 8 -9 25 -20 39 -11 14 -20 35 -19
47 0 15 4 11 13 -14 15 -41 22 -42 47 -3 23 34 23 37 3 58 -15 14 -18 15 -34
0 -15 -14 -18 -14 -30 0 -10 12 -10 18 0 30 9 10 9 15 1 15 -6 0 -11 7 -11 15
0 18 -31 20 -48 3 -20 -20 -12 -95 9 -82 5 3 9 -2 9 -10 0 -9 -7 -16 -15 -16
-8 0 -15 -7 -15 -15 0 -26 20 -16 35 18 8 17 14 30 15 27 0 -3 6 -25 14 -50
l14 -45 -43 3 c-32 3 -44 9 -48 23 -3 10 -12 19 -20 19 -8 0 -17 7 -21 15 -11
28 -21 15 -22 -29 0 -24 -9 -60 -18 -80 -17 -36 -15 -56 5 -56 6 0 9 11 7 25
-2 13 0 24 5 25 31 1 40 -4 53 -36 8 -20 18 -34 21 -30 3 3 -2 21 -11 40 -18
39 -20 62 -6 71 6 3 10 0 10 -7 0 -7 14 -29 30 -48 18 -21 30 -29 30 -20 0 13
1 13 10 0 5 -8 10 -21 10 -29 0 -11 -3 -11 -16 0 -14 11 -16 10 -12 -11 2 -19
-1 -24 -14 -22 -9 1 -19 -2 -23 -8 -3 -5 0 -10 9 -10 8 0 17 -6 19 -12 4 -10
8 -10 15 1 8 11 12 9 22 -8 7 -13 17 -20 26 -17 8 3 14 -1 14 -9 0 -9 6 -12
15 -9 13 5 13 9 0 26 -13 19 -12 23 10 39 13 11 35 19 49 19 14 0 26 5 26 10
0 6 -5 10 -11 10 -5 0 -7 5 -4 10 3 6 17 10 31 10 13 0 24 5 24 10 0 6 13 10
29 10 30 0 46 20 42 51 -1 9 6 19 16 23 10 3 24 9 32 12 8 4 12 2 9 -7 -2 -7
0 -18 6 -25 17 -18 56 -3 72 28 14 27 14 31 -2 49 -9 10 -23 19 -29 19 -11 0
-25 21 -25 36 0 2 11 4 25 4 14 0 26 3 26 8 9 57 7 75 -7 90 -15 15 -16 14
-10 -8 7 -25 7 -25 -11 -5 -25 27 -38 28 -74 10 -28 -15 -31 -15 -47 3 -9 11
-33 22 -53 25 -34 5 -36 4 -32 -16z m142 -101 c11 -13 13 -20 4 -23 -7 -2 -9
-11 -6 -20 5 -13 2 -15 -18 -9 -13 4 -30 8 -37 8 -9 1 -10 4 -2 12 7 7 4 16
-12 29 -19 16 -20 18 -4 13 15 -5 17 -4 7 8 -9 11 -8 15 4 20 10 3 15 -1 16
-12 0 -12 4 -9 11 8 10 23 11 23 16 5 2 -11 11 -29 21 -39z m-245 -195 c9 -12
8 -13 -6 -8 -13 4 -18 1 -18 -11 -1 -15 -2 -14 -12 2 -8 15 -8 21 0 24 7 2 12
11 13 20 0 14 2 14 6 2 3 -8 11 -21 17 -29z"/>
<path d="M1015 2369 c-4 -6 -5 -12 -2 -15 2 -3 7 2 10 11 7 17 1 20 -8 4z"/>
<path d="M604 2435 c-3 -8 1 -24 9 -36 15 -21 15 -21 26 -1 6 11 8 28 5 36 -8
20 -33 21 -40 1z"/>
<path d="M1178 2405 c-3 -13 0 -26 6 -29 7 -3 2 -13 -12 -25 -14 -12 -18 -22
-12 -26 6 -4 20 1 31 11 18 16 19 16 19 -4 0 -15 6 -22 20 -22 17 0 18 4 10
25 -6 15 -6 25 0 25 15 0 24 -23 25 -59 0 -21 6 -36 15 -39 13 -4 13 -3 2 11
-10 11 -11 21 -3 35 7 13 7 22 -1 30 -9 9 -9 12 0 12 17 0 15 31 -4 55 -13 17
-17 18 -36 6 -18 -11 -20 -11 -15 3 5 12 0 16 -17 16 -17 0 -25 -7 -28 -25z"/>
<path d="M900 2395 c0 -8 7 -15 16 -15 14 0 14 3 4 15 -7 8 -14 15 -16 15 -2
0 -4 -7 -4 -15z"/>
<path d="M1410 2390 c0 -5 5 -10 10 -10 6 0 10 5 10 10 0 6 -4 10 -10 10 -5 0
-10 -4 -10 -10z"/>
<path d="M1104 2355 c11 -8 22 -12 25 -9 6 6 -19 24 -34 24 -5 -1 -1 -7 9 -15z"/>
<path d="M1440 2360 c0 -5 5 -10 11 -10 5 0 7 5 4 10 -3 6 -8 10 -11 10 -2 0
-4 -4 -4 -10z"/>
<path d="M1467 2333 c-4 -3 -7 -16 -7 -27 0 -12 -7 -33 -14 -48 -8 -16 -11
-28 -7 -28 4 0 14 -16 21 -35 16 -41 51 -56 75 -32 16 17 21 57 6 57 -5 0 -11
9 -14 19 -2 11 -15 21 -28 23 -21 3 -24 8 -22 41 2 38 1 42 -10 30z"/>
<path d="M1377 2310 c-3 -13 1 -24 14 -30 17 -9 19 -7 19 20 0 34 -25 42 -33
10z"/>
<path d="M1422 2280 c0 -14 2 -19 5 -12 2 6 2 18 0 25 -3 6 -5 1 -5 -13z"/>
<path d="M1145 2249 c-4 -6 -5 -12 -2 -15 2 -3 7 2 10 11 7 17 1 20 -8 4z"/>
<path d="M1815 2223 c2 -16 11 -41 20 -58 l16 -30 -7 35 c-13 68 -37 110 -29
53z"/>
<path d="M1576 2164 c-7 -18 0 -34 15 -34 12 0 12 37 0 44 -5 3 -12 -1 -15
-10z"/>
<path d="M967 2133 c-10 -9 -9 -51 2 -57 13 -9 44 31 38 49 -7 15 -28 20 -40
8z"/>
<path d="M820 2095 c0 -8 2 -15 4 -15 2 0 6 7 10 15 3 8 1 15 -4 15 -6 0 -10
-7 -10 -15z"/>
<path d="M370 2059 c0 -5 5 -7 10 -4 6 3 10 8 10 11 0 2 -4 4 -10 4 -5 0 -10
-5 -10 -11z"/>
<path d="M1017 2055 c-4 -8 -2 -17 3 -20 6 -4 10 -4 10 -1 0 2 3 11 6 20 3 9
2 16 -4 16 -5 0 -12 -7 -15 -15z"/>
<path d="M755 2040 c-3 -5 -1 -10 4 -10 6 0 11 5 11 10 0 6 -2 10 -4 10 -3 0
-8 -4 -11 -10z"/>
<path d="M400 2018 c0 -12 7 -18 23 -17 15 0 17 2 7 6 -8 3 -18 11 -22 17 -5
7 -8 4 -8 -6z"/>
<path d="M633 2018 c-30 -14 -39 -56 -16 -74 10 -7 24 -11 31 -9 8 3 18 5 23
5 5 0 9 14 9 30 0 28 -2 30 -27 24 -27 -6 -27 -6 -8 9 11 8 24 13 29 10 5 -4
6 -1 2 5 -8 14 -14 14 -43 0z"/>
<path d="M1137 1993 c-4 -3 -7 -11 -7 -17 0 -6 5 -5 12 2 6 6 9 14 7 17 -3 3
-9 2 -12 -2z"/>
<path d="M837 1966 c3 -12 11 -23 18 -23 10 0 11 5 4 18 -14 28 -27 31 -22 5z"/>
<path d="M403 1973 c-7 -2 -13 -11 -13 -19 0 -8 -4 -14 -8 -14 -5 0 -14 -11
-20 -24 -13 -30 8 -53 52 -58 21 -2 34 -12 45 -35 9 -18 21 -34 27 -37 14 -5
-12 50 -27 60 -6 3 -7 24 -4 49 10 63 -11 95 -52 78z"/>
<path d="M482 1870 c0 -14 2 -19 5 -12 2 6 2 18 0 25 -3 6 -5 1 -5 -13z"/>
<path d="M413 1814 c-4 -11 1 -22 12 -30 23 -17 43 -18 27 -2 -7 7 -12 20 -12
30 0 23 -18 24 -27 2z"/>
<path d="M490 1750 c0 -5 5 -10 11 -10 5 0 7 5 4 10 -3 6 -8 10 -11 10 -2 0
-4 -4 -4 -10z"/>
<path d="M1040 856 c0 -2 7 -7 16 -10 8 -3 12 -2 9 4 -6 10 -25 14 -25 6z"/>
<path d="M1253 806 c-26 -12 -30 -26 -9 -26 8 0 17 -6 19 -12 4 -10 6 -10 6 0
1 6 6 12 12 12 6 0 17 7 26 15 14 14 13 15 -12 9 -20 -5 -26 -4 -21 5 4 6 6
10 4 10 -2 -1 -13 -6 -25 -13z"/>
<path d="M1257 733 c4 -11 2 -14 -5 -9 -7 4 -12 2 -12 -3 0 -6 11 -11 25 -11
26 0 26 24 0 34 -10 3 -12 0 -8 -11z"/>
<path d="M1247 573 c-12 -12 -7 -31 10 -37 9 -4 20 -3 24 1 8 10 -25 46 -34
36z"/>
<path d="M1215 531 c-6 -11 33 -36 42 -27 5 5 -21 36 -31 36 -3 0 -7 -4 -11
-9z"/>
</g>
</svg>
