<?xml version="1.0" encoding="utf-8"?>
<!-- Svg Vector Icons : http://www.onlinewebfonts.com/icon -->
<!DOCTYPE svg PUBLIC "-//W3C//DTD SVG 1.1//EN" "http://www.w3.org/Graphics/SVG/1.1/DTD/svg11.dtd">
<svg version="1.1" xmlns="http://www.w3.org/2000/svg" xmlns:xlink="http://www.w3.org/1999/xlink" x="0px" y="0px" viewBox="0 0 1000 1000" enable-background="new 0 0 1000 1000" xml:space="preserve">
<metadata> Svg Vector Icons : http://www.onlinewebfonts.com/icon </metadata>
<g><g transform="translate(0.000000,511.000000) scale(0.100000,-0.100000)"><path d="M4747.5,3345.6c-377.9-361.9-607-682.6-836-1163.6c-678-1431.6-515.4-3232,407.7-4482.6c144.3-194.7,508.5-574.9,618.5-648.2c61.8-38.9,66.4-38.9,128.3,2.3c114.5,75.6,476.4,453.5,618.4,645.9c1115.5,1516.4,1092.6,3768-52.7,5240.8c-139.7,178.7-591,627.6-632.2,627.6C4988,3567.7,4875.8,3467,4747.5,3345.6z"/><path d="M1751.5,2138.4c-128.3-345.9-192.4-737.6-192.4-1181.9c2.3-1539.3,909.3-2998.4,2286-3678.6c137.4-68.7,263.4-123.7,281.7-123.7c16,0-27.5,68.7-93.9,155.8c-513.1,636.8-868.1,1514.1-978.1,2409.7c-59.6,501.6-11.5,1250.7,112.2,1747.7l61.9,247.4l-126,75.6c-334.4,201.6-710.1,350.5-1067.4,428.3c-112.2,22.9-213,43.5-222.2,43.5C1804.2,2262.1,1776.7,2207.2,1751.5,2138.4z"/><path d="M7956.6,2216.3c-343.6-73.3-836.1-274.9-1097.2-449l-84.7-55l61.8-245.1c123.7-497,171.8-1246.1,112.2-1747.7c-107.7-893.3-465-1775.2-978.1-2409.7c-66.4-87-112.2-155.8-96.2-155.8c43.5,0,430.6,190.1,604.7,297.8c650.5,400.8,1195.7,1007.8,1546.1,1729.4C8446.8,47.1,8559,979.4,8343.7,1833.8c-61.8,245.1-132.9,428.3-164.9,426C8162.8,2259.8,8064.3,2239.2,7956.6,2216.3z"/><path d="M942.9-257.5c-112.2-11.5-256.5-29.8-320.7-43.5C434.4-339.9,100-445.3,100-465.9c0-9.2,16-91.6,34.4-181c265.7-1269,1438.5-2359.3,2824.3-2636.4c268-52.7,712.4-80.2,930-55l158,16l-229.1,96.2C2699.8-2749.6,1765.2-1728,1346.1-520.9C1236.1-207.1,1270.5-227.7,942.9-257.5z"/><path d="M8751.4-252.9c-4.6-9.2-38.9-103.1-73.3-210.7C8281.9-1679.9,7319.8-2742.7,6183.7-3226l-226.8-96.2l158-16c217.6-25.2,662,2.3,930,55c1392.7,277.1,2563.1,1372,2826.5,2647.9c20.6,96.2,32.1,178.7,27.5,183.2c-27.5,25.2-423.8,132.9-588.7,158.1C9058.4-252.9,8762.9-230,8751.4-252.9z"/></g></g>
</svg>